<svg xmlns="http://www.w3.org/2000/svg" width="22" height="30" viewBox="0 0 22 30">
  <defs>
    <style>
      .cls-1 {
        fill: #b30984;
        fill-rule: evenodd;
      }
    </style>
  </defs>
  <path id="Shape_2_copy" data-name="Shape 2 copy" class="cls-1" d="M970.376,1111.37a1.345,1.345,0,1,1-1.33,1.34A1.336,1.336,0,0,1,970.376,1111.37Zm3.469,4.37a2.26,2.26,0,1,1-2.233,2.26A2.246,2.246,0,0,1,973.845,1115.74Zm-3.469,8.8a1.345,1.345,0,1,1,1.331-1.35A1.337,1.337,0,0,1,970.376,1124.54Zm-1.592,4.27,11.787-10.77-11.752-10.82A2.412,2.412,0,0,1,970.3,1103h0.082a2.337,2.337,0,0,1,1.392.46l17.249,12.64a2.423,2.423,0,0,1-.007,3.9l-17.249,12.55a2.364,2.364,0,0,1-3.236-.44A2.433,2.433,0,0,1,968.784,1128.81Z" transform="translate(-968 -1103)"/>
</svg>
