<svg xmlns="http://www.w3.org/2000/svg" xmlns:xlink="http://www.w3.org/1999/xlink" viewBox="0 0 57 57"><defs><style>.cls-1{fill:url(#linear-gradient);}.cls-2{fill:url(#linear-gradient-2);}.cls-3{fill:url(#linear-gradient-3);}.cls-4{fill:url(#linear-gradient-4);}</style><linearGradient id="linear-gradient" x1="27.85" y1="-1.93" x2="30.14" y2="104.69" gradientUnits="userSpaceOnUse"><stop offset="0" stop-color="#962e92"/><stop offset="0.26" stop-color="#ca1a72"/><stop offset="0.52" stop-color="#ed1f2e"/><stop offset="0.77" stop-color="#f26322"/><stop offset="1" stop-color="#faa31a"/></linearGradient><linearGradient id="linear-gradient-2" x1="27.9" y1="-1.93" x2="30.19" y2="104.69" xlink:href="#linear-gradient"/><linearGradient id="linear-gradient-3" x1="27.42" y1="-1.92" x2="29.71" y2="104.7" xlink:href="#linear-gradient"/><linearGradient id="linear-gradient-4" x1="27.58" y1="-1.92" x2="29.87" y2="104.7" xlink:href="#linear-gradient"/></defs><title>Dashboard_Highlight</title><g id="Layer_2" data-name="Layer 2"><g id="Layer_2-2" data-name="Layer 2"><path class="cls-1" d="M55.76,0H1.24A1.23,1.23,0,0,0,0,1.24V55.76A1.23,1.23,0,0,0,1.24,57H55.76A1.23,1.23,0,0,0,57,55.76V1.24A1.23,1.23,0,0,0,55.76,0ZM2.48,2.48H14.87V9.91H2.48Zm52,52h-52V12.39h52Zm0-44.61H17.35V2.48H54.52Z"/><path class="cls-2" d="M8.67,34.7H48.33a1.25,1.25,0,0,0,1.24-1.24V18.59a1.24,1.24,0,0,0-1.24-1.24H8.67a1.24,1.24,0,0,0-1.24,1.24V33.46A1.25,1.25,0,0,0,8.67,34.7ZM9.91,19.83H47.09V32.22H9.91Z"/><path class="cls-3" d="M8.67,49.57H48.33a1.24,1.24,0,1,0,0-2.48H8.67a1.24,1.24,0,1,0,0,2.48Z"/><path class="cls-4" d="M8.67,42.13H48.33a1.24,1.24,0,0,0,0-2.48H8.67a1.24,1.24,0,1,0,0,2.48Z"/></g></g></svg>