<?xml version="1.0" encoding="UTF-8" standalone="no"?>
<!-- Created with Inkscape (http://www.inkscape.org/) -->

<svg
   xmlns:dc="http://purl.org/dc/elements/1.1/"
   xmlns:cc="http://creativecommons.org/ns#"
   xmlns:rdf="http://www.w3.org/1999/02/22-rdf-syntax-ns#"
   xmlns:svg="http://www.w3.org/2000/svg"
   xmlns="http://www.w3.org/2000/svg"
   version="1.1"
   width="64"
   height="64"
   id="svg5877">
  <defs
     id="defs5879" />
  <metadata
     id="metadata5882">
    <rdf:RDF>
      <cc:Work
         rdf:about="">
        <dc:format>image/svg+xml</dc:format>
        <dc:type
           rdf:resource="http://purl.org/dc/dcmitype/StillImage" />
        <dc:title></dc:title>
      </cc:Work>
    </rdf:RDF>
  </metadata>
  <g
     id="layer1">
    <rect
       width="30.517849"
       height="52.52034"
       x="13.830078"
       y="7.4580779"
       id="rect5435"
       style="fill:#333333;fill-opacity:1;stroke:none;display:inline" />
    <path
       d="m 35.050753,38.157379 0.1732,0"
       id="path3101-6-1"
       style="fill:#008080;stroke:none;display:inline" />
    <path
       d="m 50.169921,31.422501 0,7.673683 c -3.842291,6.715533 -27.08158,5.472238 -27.364732,-0.890949 l 0,-6.782734 c 4.209014,5.225223 21.482787,5.866326 27.364732,0 z"
       id="rect4556-7"
       style="fill:#008080;fill-opacity:1;stroke:none;display:inline" />
    <path
       d="m -250.30977,407.17502 a 128.31245,49.66008 0 1 1 -256.62491,0 128.31245,49.66008 0 1 1 256.62491,0 z"
       transform="matrix(0.10639396,0,0,0.11087157,76.770676,-16.390047)"
       id="path4554-4"
       style="fill:#00b6c6;fill-opacity:1;stroke:none;display:inline" />
    <path
       d="m 50.169921,40.972296 0,7.673675 C 46.32763,55.361512 23.088341,54.118209 22.805189,47.75503 l 0,-6.782734 c 4.209014,5.225223 21.482787,5.866326 27.364732,0 z"
       id="rect4556-7-0"
       style="fill:#008080;fill-opacity:1;stroke:none;display:inline" />
    <path
       d="m 50.169921,50.52209 0,7.673676 c -3.842291,6.715533 -27.08158,5.472238 -27.364732,-0.890942 l 0,-6.782734 c 4.209014,5.225224 21.482787,5.866327 27.364732,0 z"
       id="rect4556-7-0-9"
       style="fill:#008080;fill-opacity:1;stroke:none;display:inline" />
    <g
       transform="matrix(0.32957733,0,0,0.32957733,-351.54835,-182.94944)"
       id="g5501"
       style="display:inline">
      <rect
         width="64.517937"
         height="12.62391"
         x="1122.4675"
         y="586.75427"
         id="rect3173"
         style="fill:#666666;fill-opacity:1;stroke:none" />
      <rect
         width="64.517937"
         height="11.480632"
         x="1122.4675"
         y="603.72876"
         id="rect3173-1"
         style="fill:#666666;fill-opacity:1;stroke:none" />
      <path
         d="m 1084.2512,345.43683 a 5.8234372,5.8234372 0 1 1 -11.6469,0 5.8234372,5.8234372 0 1 1 11.6469,0 z"
         transform="translate(49.863213,279.08651)"
         id="path5481"
         style="fill:#666666;fill-opacity:1;stroke:none" />
    </g>
    <path
       d="m 17.213023,1.312727 24.02037,0 3.042577,5.5246837 -30.425799,0 z"
       id="rect5949"
       style="fill:#999999;fill-opacity:1;stroke:none;display:inline" />
  </g>
</svg>
