<svg xmlns="http://www.w3.org/2000/svg" viewBox="0 0 199 186.16"><defs><style>.cls-1,.cls-2{fill:#afb6c6;}.cls-2{font-size:21.98px;font-family:Inter-Bold, Inter, Roboto;font-weight:700;}</style></defs><title>Icon_03</title><g id="Layer_2" data-name="Layer 2"><g id="Layer_2-2" data-name="Layer 2"><path class="cls-1" d="M186.16,25.68h-58a28.88,28.88,0,0,0-57.4,0h-58A12.85,12.85,0,0,0,0,38.52V154.06A12.85,12.85,0,0,0,12.84,166.9h61v19.26h51.36V166.9h61A12.85,12.85,0,0,0,199,154.06V38.52A12.85,12.85,0,0,0,186.16,25.68Zm6.42,12.84v6.42h-77V38.52A6.43,6.43,0,0,1,122,32.1h64.19A6.43,6.43,0,0,1,192.58,38.52ZM130,93.21a9.85,9.85,0,0,0-4.8.42V90.21a9.91,9.91,0,0,0-8-9.84,10.62,10.62,0,0,0-1.59-.11V51.35h77v83.46H138V103.05A9.91,9.91,0,0,0,130,93.21ZM99.5,6.42A22.48,22.48,0,0,1,121.71,25.7a12.84,12.84,0,0,0-12.58,12.82V76.36A9.29,9.29,0,0,0,104.31,74a9.76,9.76,0,0,0-4.81.42V64.19a9.56,9.56,0,0,0-9.63-9.59V38.52A12.84,12.84,0,0,0,77.29,25.7,22.48,22.48,0,0,1,99.5,6.42ZM61,102.71v32.1H6.42V51.35h77v5.78a10.22,10.22,0,0,0-3.21,7.41v36.67A19.16,19.16,0,0,0,67.4,96.29,6.43,6.43,0,0,0,61,102.71ZM12.84,32.1H77a6.43,6.43,0,0,1,6.42,6.42v6.42h-77V38.52A6.43,6.43,0,0,1,12.84,32.1Zm-6.42,122V141.23H61v1.91a16.12,16.12,0,0,0,3.52,10l5.86,7.31H12.84A6.43,6.43,0,0,1,6.42,154.06Zm112.34,25.68H80.24V162.57L69.51,149.16a9.68,9.68,0,0,1-2.11-6V102.71a12.85,12.85,0,0,1,12.84,12.84v12.84h6.42V64.54A3.47,3.47,0,0,1,89.31,61a3.25,3.25,0,0,1,2.64.72,3.19,3.19,0,0,1,1.13,2.44v64.2H99.5V83.45a3.22,3.22,0,0,1,3.77-3.16,3.47,3.47,0,0,1,2.65,3.5v44.6h6.42V89.87a3.2,3.2,0,0,1,3.77-3.16,3.47,3.47,0,0,1,2.65,3.5v38.18h6.42V102.71A3.2,3.2,0,0,1,129,99.55a3.47,3.47,0,0,1,2.65,3.5v40.09a9.68,9.68,0,0,1-2.11,6l-10.73,13.41Zm67.4-19.26H128.64l5.86-7.31a16.12,16.12,0,0,0,3.52-10v-1.91h54.56v12.83A6.43,6.43,0,0,1,186.16,160.48Z"/><path class="cls-1" d="M41.73,86.66h6.42a3.21,3.21,0,0,1,3.2,3.21h6.42a9.64,9.64,0,0,0-9.62-9.63V73.82H41.73v6.42a9.63,9.63,0,1,0,0,19.26h6.42a3.21,3.21,0,0,1,0,6.42H41.73a3.21,3.21,0,0,1-3.21-3.21H32.1a9.64,9.64,0,0,0,9.63,9.63v6.42h6.42v-6.42a9.63,9.63,0,0,0,0-19.26H41.73a3.21,3.21,0,0,1,0-6.42Z"/><path class="cls-1" d="M157.27,105.92h-6.42a3.21,3.21,0,0,1-3.2-3.21h-6.42a9.64,9.64,0,0,0,9.62,9.63v6.42h6.42v-6.42a9.63,9.63,0,0,0,0-19.26h-6.42a3.21,3.21,0,0,1,0-6.42h6.42a3.21,3.21,0,0,1,3.21,3.21h6.42a9.64,9.64,0,0,0-9.63-9.63V73.82h-6.42v6.42a9.63,9.63,0,0,0,0,19.26h6.42a3.21,3.21,0,0,1,0,6.42Z"/><path class="cls-1" d="M32.1,147.65H57.77v6.41H32.1Z"/><path class="cls-1" d="M141.23,147.65H166.9v6.41H141.23Z"/><text class="cls-2" transform="translate(86.2 28.12)">02</text></g></g></svg>