<svg xmlns="http://www.w3.org/2000/svg" viewBox="0 0 199 192.37"><defs><style>.cls-1{fill:#afb6c6;}</style></defs><title>Icon_01</title><g id="Layer_2" data-name="Layer 2"><g id="Layer_2-2" data-name="Layer 2"><path class="cls-1" d="M185.73,0H13.27A13.28,13.28,0,0,0,0,13.27V122.72A3.32,3.32,0,0,0,3.32,126H195.68a3.32,3.32,0,0,0,3.32-3.31V13.27A13.28,13.28,0,0,0,185.73,0Zm6.64,119.4H6.63V13.27a6.65,6.65,0,0,1,6.64-6.64H185.73a6.65,6.65,0,0,1,6.64,6.64Z"/><path class="cls-1" d="M195.68,119.4H3.32A3.32,3.32,0,0,0,0,122.72V139.3a13.29,13.29,0,0,0,13.27,13.27H185.73A13.29,13.29,0,0,0,199,139.3V122.72A3.32,3.32,0,0,0,195.68,119.4Zm-3.31,19.9a6.64,6.64,0,0,1-6.64,6.63H13.27a6.64,6.64,0,0,1-6.64-6.63V126H192.37V139.3Z"/><path class="cls-1" d="M109.45,132.67H89.55a3.32,3.32,0,1,0,0,6.63h19.9a3.32,3.32,0,1,0,0-6.63Z"/><path class="cls-1" d="M182.42,13.27H16.58a3.31,3.31,0,0,0-3.31,3.31V122.72A3.31,3.31,0,0,0,16.58,126H182.42a3.31,3.31,0,0,0,3.31-3.31V16.58A3.31,3.31,0,0,0,182.42,13.27ZM179.1,119.4H19.9V19.9H179.1v99.5Z"/><path class="cls-1" d="M142.62,172.47H56.38a9.95,9.95,0,1,0,0,19.9h86.24a9.95,9.95,0,0,0,0-19.9Zm0,13.26H56.38a3.32,3.32,0,0,1,0-6.63h86.24a3.32,3.32,0,0,1,0,6.63Z"/><path class="cls-1" d="M136,172.47c-11,0-16.58-7.81-16.58-23.22a3.32,3.32,0,0,0-3.32-3.32H82.92a3.32,3.32,0,0,0-3.32,3.32c0,15.41-5.58,23.22-16.58,23.22a3.32,3.32,0,1,0,0,6.63h73a3.32,3.32,0,1,0,0-6.63Zm-56.81,0c4.09-4.53,6.49-11.26,7-19.9h26.72c.48,8.64,2.88,15.37,7,19.9Z"/><path class="cls-1" d="M158.48,97.72l-8-8,4.45-4.46a3.32,3.32,0,0,0-1.39-5.52l-33.16-9.95a3.32,3.32,0,0,0-3.3.83,3.28,3.28,0,0,0-.83,3.3l10,33.17a3.29,3.29,0,0,0,2.36,2.26,3.35,3.35,0,0,0,3.16-.87l4.69-4.69,8,8a3.3,3.3,0,0,0,4.69,0l9.38-9.38A3.31,3.31,0,0,0,158.48,97.72Zm-11.72,7-7.29-7.29a4.33,4.33,0,0,0-6.12,0l-2.4,2.4-6.58-22,21.94,6.59-2.56,2.56a3.75,3.75,0,0,0,0,5.31l7.7,7.7Z"/><path class="cls-1" d="M139.3,26.53H46.43a3.32,3.32,0,0,0-3.31,3.32V46.43a3.32,3.32,0,0,0,3.31,3.32H139.3a3.32,3.32,0,0,0,3.32-3.32V29.85A3.32,3.32,0,0,0,139.3,26.53ZM136,43.12H49.75V33.17H136Z"/><path class="cls-1" d="M86.23,63H59.7a3.32,3.32,0,0,0-3.32,3.31V79.6a3.32,3.32,0,0,0,3.32,3.32H86.23a3.32,3.32,0,0,0,3.32-3.32V66.33A3.32,3.32,0,0,0,86.23,63ZM82.92,76.28H63V69.65h19.9Z"/><path class="cls-1" d="M139.3,26.53H46.43a3.32,3.32,0,0,0-3.31,3.32v63a3.31,3.31,0,0,0,3.31,3.31h79a3.32,3.32,0,0,0,3.18-4.27l-4.2-14,14,4.2a3.32,3.32,0,0,0,4.27-3.18V29.85A3.32,3.32,0,0,0,139.3,26.53ZM136,74.47l-15.61-4.68a3.31,3.31,0,0,0-4.13,4.13l4.69,15.63H49.75V33.17H136Z"/></g></g></svg>