<svg xmlns="http://www.w3.org/2000/svg" viewBox="0 0 127.6 142"><defs><style>.cls-1{fill:#fff;}</style></defs><title>Logo</title><g id="Layer_2" data-name="Layer 2"><g id="Layer_2-2" data-name="Layer 2"><path id="path3284" class="cls-1" d="M63.9,20.35,43.5,0H49L63.9,14.91,78.8.09h5.5ZM0,51.87V57.4l63.9,65.28,63.7-65.09V52.05l-63.7,65.1Zm0-41v5.53L63.9,81.69,127.6,16.6V11.07L63.9,76.16ZM7.9,0H2.4L63.9,61.34,125.4,0h-5.5l-56,55.81ZM0,31.33v5.53l63.9,65.28,63.7-65.09V31.51L63.9,96.61Zm63.9,4L28.5,0H23L63.9,40.8,104.8,0H99.3ZM0,72.31v4.41L63.9,142l63.7-65.09V72.5L63.9,137.59Z"/></g></g></svg>