<?xml version="1.0" encoding="utf-8"?>
<!-- Generator: Adobe Illustrator 23.0.2, SVG Export Plug-In . SVG Version: 6.00 Build 0)  -->
<svg version="1.1" id="Capa_1" xmlns="http://www.w3.org/2000/svg" xmlns:xlink="http://www.w3.org/1999/xlink" x="0px" y="0px"
	 viewBox="0 0 20 20" style="enable-background:new 0 0 20 20;" xml:space="preserve">
<style type="text/css">
	.st0{fill:#5A4FEF;}
	.st1{fill-rule:evenodd;clip-rule:evenodd;fill:#5A4FEF;}
</style>
<g id="password">
	<g>
		<path class="st0" d="M16.3,7.3V5.6c0-3-2.7-5.5-6-5.5c-3.3,0-6,2.5-6,5.5v1.7C2.9,7.7,2,8.8,2,10.1V17c0,1.6,1.3,2.9,2.9,2.9h10.5
			c1.6,0,2.9-1.3,2.9-2.9v-6.9C18.4,8.8,17.5,7.7,16.3,7.3z M5.6,5.6c0-2.2,2.1-4.1,4.6-4.1c2.5,0,4.6,1.8,4.6,4.1v1.6H5.6V5.6z
			 M15.5,18.5H5c-0.8,0-1.5-0.6-1.5-1.5v-6.9c0-0.8,0.6-1.5,1.5-1.5h10.5c0.8,0,1.5,0.6,1.5,1.5l0,7C16.9,17.9,16.3,18.5,15.5,18.5z
			"/>
	</g>
	<g>
		<path class="st0" d="M10.2,10c-1,0-1.8,0.8-1.8,1.8v2.1c0,1,0.8,1.8,1.8,1.8c1,0,1.8-0.8,1.8-1.8v-2.1C12,10.8,11.2,10,10.2,10z
			 M9.9,11.8c0-0.2,0.2-0.3,0.3-0.3c0.2,0,0.3,0.2,0.3,0.3v2.1c0,0.2-0.2,0.3-0.3,0.3c-0.2,0-0.3-0.2-0.3-0.3V11.8z"/>
	</g>
</g>
</svg>
