<?xml version="1.0" encoding="UTF-8" standalone="no"?>
<!-- Created with Inkscape (http://www.inkscape.org/) -->

<svg
   xmlns:dc="http://purl.org/dc/elements/1.1/"
   xmlns:cc="http://creativecommons.org/ns#"
   xmlns:rdf="http://www.w3.org/1999/02/22-rdf-syntax-ns#"
   xmlns:svg="http://www.w3.org/2000/svg"
   xmlns="http://www.w3.org/2000/svg"
   xmlns:sodipodi="http://sodipodi.sourceforge.net/DTD/sodipodi-0.dtd"
   xmlns:inkscape="http://www.inkscape.org/namespaces/inkscape"
   width="744.09448819"
   height="1052.3622047"
   id="svg2"
   version="1.1"
   inkscape:version="0.48.5 r10040"
   sodipodi:docname="Printer_with_marker.svg">
  <defs
     id="defs4">
    <inkscape:perspective
       sodipodi:type="inkscape:persp3d"
       inkscape:vp_x="0 : 526.18109 : 1"
       inkscape:vp_y="0 : 1000 : 0"
       inkscape:vp_z="744.09448 : 526.18109 : 1"
       inkscape:persp3d-origin="372.04724 : 350.78739 : 1"
       id="perspective4169" />
  </defs>
  <sodipodi:namedview
     id="base"
     pagecolor="#ffffff"
     bordercolor="#666666"
     borderopacity="1.0"
     inkscape:pageopacity="0.0"
     inkscape:pageshadow="2"
     inkscape:zoom="0.5"
     inkscape:cx="91.928571"
     inkscape:cy="510.3609"
     inkscape:document-units="px"
     inkscape:current-layer="layer1"
     showgrid="false"
     inkscape:window-width="1311"
     inkscape:window-height="750"
     inkscape:window-x="49"
     inkscape:window-y="18"
     inkscape:window-maximized="1" />
  <metadata
     id="metadata7">
    <rdf:RDF>
      <cc:Work
         rdf:about="">
        <dc:format>image/svg+xml</dc:format>
        <dc:type
           rdf:resource="http://purl.org/dc/dcmitype/StillImage" />
        <dc:title />
      </cc:Work>
    </rdf:RDF>
  </metadata>
  <g
     inkscape:label="Layer 1"
     inkscape:groupmode="layer"
     id="layer1">
    <path
       sodipodi:type="arc"
       style="opacity:0;fill:#242938;fill-opacity:1;stroke:#f61d1d;stroke-width:20;stroke-linecap:round;stroke-linejoin:round;stroke-miterlimit:4;stroke-opacity:1;stroke-dasharray:none;stroke-dashoffset:5"
       id="path3969"
       sodipodi:cx="-738.57141"
       sodipodi:cy="438.07648"
       sodipodi:rx="124.28571"
       sodipodi:ry="80"
       d="m -614.2857,438.07648 a 124.28571,80 0 1 1 -248.57142,0 124.28571,80 0 1 1 248.57142,0 z" />
    <g
       id="g5500"
       transform="matrix(1.1450249,0,0,1.1745515,-61.547696,47.08123)">
      <rect
         ry="26.414356"
         rx="27.095497"
         y="283.79074"
         x="245.71428"
         height="165.71428"
         width="280"
         id="rect5417"
         style="fill:#ffffff;fill-opacity:1;stroke:#000000;stroke-width:15;stroke-linecap:round;stroke-linejoin:round;stroke-miterlimit:4;stroke-opacity:1;stroke-dasharray:none;stroke-dashoffset:1" />
      <path
         transform="matrix(0.10699048,0,0,0.17345427,594.67236,366.55777)"
         d="m -739.99997,338.07648 c 0,52.07256 -68.43648,94.28571 -152.85715,94.28571 -84.42067,0 -152.85718,-42.21315 -152.85718,-94.28571 0,-52.07256 68.43651,-94.28572 152.85718,-94.28572 84.42067,0 152.85715,42.21316 152.85715,94.28572 z"
         sodipodi:ry="94.285713"
         sodipodi:rx="152.85715"
         sodipodi:cy="338.07648"
         sodipodi:cx="-892.85712"
         id="path3971"
         style="fill:#f0f1f4;fill-opacity:1;stroke:#ffffff;stroke-width:20;stroke-linecap:round;stroke-linejoin:round;stroke-miterlimit:4;stroke-opacity:1;stroke-dasharray:none;stroke-dashoffset:5"
         sodipodi:type="arc" />
      <rect
         ry="26.414356"
         inkscape:transform-center-y="-1945.7247"
         inkscape:transform-center-x="-20658.755"
         y="358.59497"
         x="107.2071"
         height="282.92593"
         width="557.01434"
         id="rect4895"
         style="fill:#000000;fill-opacity:1;stroke:none"
         rx="27.095497" />
      <path
         transform="matrix(0.55507136,0,0,0.53093782,447.20861,127.10496)"
         d="m 342.85713,516.64789 c 0,18.1465 -14.07105,32.85714 -31.42857,32.85714 -17.35752,0 -31.42857,-14.71064 -31.42857,-32.85714 0,-18.1465 14.07105,-32.85715 31.42857,-32.85715 17.35752,0 31.42857,14.71065 31.42857,32.85715 z"
         sodipodi:ry="32.857143"
         sodipodi:rx="31.428572"
         sodipodi:cy="516.64789"
         sodipodi:cx="311.42856"
         id="path5384"
         style="fill:#ffffff;fill-opacity:1;stroke:#ffffff;stroke-width:1;stroke-linecap:round;stroke-linejoin:round;stroke-miterlimit:4;stroke-opacity:1;stroke-dasharray:none;stroke-dashoffset:1"
         sodipodi:type="arc" />
      <rect
         ry="26.414356"
         rx="27.095497"
         y="548.07648"
         x="247.14285"
         height="260"
         width="288.57144"
         id="rect5386"
         style="fill:#ffffff;fill-opacity:1;stroke:#000000;stroke-width:20;stroke-linecap:round;stroke-linejoin:round;stroke-miterlimit:4;stroke-opacity:1;stroke-dasharray:none;stroke-dashoffset:1" />
      <path
         inkscape:connector-curvature="0"
         id="path5390-8"
         d="m 298.57143,686.64788 c 182.85714,-2.85715 182.85714,-2.85715 182.85714,-2.85715"
         style="fill:none;stroke:#000000;stroke-width:15;stroke-linecap:butt;stroke-linejoin:miter;stroke-miterlimit:4;stroke-opacity:1;stroke-dasharray:none" />
      <path
         inkscape:connector-curvature="0"
         id="path5390-4"
         d="m 301.42857,740.9336 c 182.85714,-2.85715 182.85714,-2.85715 182.85714,-2.85715"
         style="fill:none;stroke:#000000;stroke-width:15;stroke-linecap:butt;stroke-linejoin:miter;stroke-miterlimit:4;stroke-opacity:1;stroke-dasharray:none" />
      <path
         inkscape:connector-curvature="0"
         id="path5390"
         d="m 298.57145,628.62938 c 182.85714,-2.85715 182.85714,-2.85715 182.85714,-2.85715"
         style="fill:none;stroke:#000000;stroke-width:15;stroke-linecap:butt;stroke-linejoin:miter;stroke-miterlimit:4;stroke-opacity:1;stroke-dasharray:none" />
    </g>
    <g
       transform="matrix(0.3304534,0,0,0.28177567,308.4732,22.875573)"
       id="g3145">
      <g
         id="g3130">
        <title
           id="title3132">Layer 1</title>
        <path
           style="fill:#ff0000;fill-rule:evenodd;stroke:#000000;stroke-width:37;stroke-miterlimit:10"
           inkscape:connector-curvature="0"
           id="svg_2"
           d="M 702.02692,1819.7159 C 663.26105,1627.2798 594.91095,1467.139 512.12396,1318.7174 450.71698,1208.6238 379.58002,1107.0054 313.75995,1000.246 291.78796,964.60651 272.82599,926.95575 251.71294,889.96832 209.497,816.0108 175.26897,730.26135 177.44396,619.03021 c 2.125,-108.6788 33.208,-195.85708 78.02996,-267.13592 73.71907,-117.23572 197.20107,-213.35619 362.88405,-238.61646 135.46606,-20.653143 262.4751,14.24 352.54297,67.49689 73.60016,43.52087 130.59616,101.65488 173.92006,170.16803 45.22,71.5094 76.3591,155.99075 78.971,266.18536 1.337,56.45642 -7.8049,108.73847 -20.684,152.10559 -13.0339,43.89612 -33.9959,80.58918 -52.646,119.78309 -36.406,76.50787 -82.0489,146.60861 -127.855,216.75081 -136.43702,208.9241 -264.4961,421.992 -320.58008,713.9483 z"
           stroke-miterlimit="10"
           clip-rule="evenodd" />
      </g>
      <path
         sodipodi:type="arc"
         style="opacity:0.98930479;fill:#ffffff;fill-opacity:1;stroke:#ff0101;stroke-width:2;stroke-linecap:round;stroke-linejoin:round;stroke-miterlimit:4;stroke-opacity:0.99607843;stroke-dasharray:none;stroke-dashoffset:0"
         id="path3141"
         sodipodi:cx="-381.69232"
         sodipodi:cy="703.67883"
         sodipodi:rx="381.69232"
         sodipodi:ry="367.37885"
         d="m 0,703.67883 c 0,202.89774 -170.88947,367.37887 -381.69232,367.37887 -210.80285,0 -381.69232,-164.48113 -381.69232,-367.37887 0,-202.89773 170.88947,-367.37884 381.69232,-367.37884 C -170.88947,336.29999 0,500.7811 0,703.67883 z"
         transform="matrix(0.77558241,0,0,0.77982587,996.1646,54.737644)" />
    </g>
  </g>
</svg>
