<?xml version="1.0" encoding="UTF-8" standalone="no"?>
<svg
   xmlns:dc="http://purl.org/dc/elements/1.1/"
   xmlns:cc="http://creativecommons.org/ns#"
   xmlns:rdf="http://www.w3.org/1999/02/22-rdf-syntax-ns#"
   xmlns:svg="http://www.w3.org/2000/svg"
   xmlns="http://www.w3.org/2000/svg"
   xmlns:sodipodi="http://sodipodi.sourceforge.net/DTD/sodipodi-0.dtd"
   xmlns:inkscape="http://www.inkscape.org/namespaces/inkscape"
   width="2481"
   height="2073"
   id="svg3126"
   version="1.1"
   inkscape:version="0.48.5 r10040"
   sodipodi:docname="Red-Marker.svg"
   inkscape:export-filename="/home/bharat/Red-Marker.png"
   inkscape:export-xdpi="90"
   inkscape:export-ydpi="90">
  <metadata
     id="metadata3139">
    <rdf:RDF>
      <cc:Work
         rdf:about="">
        <dc:format>image/svg+xml</dc:format>
        <dc:type
           rdf:resource="http://purl.org/dc/dcmitype/StillImage" />
        <dc:title>Google Maps Icon - Blank</dc:title>
      </cc:Work>
    </rdf:RDF>
  </metadata>
  <defs
     id="defs3137" />
  <sodipodi:namedview
     pagecolor="#ffffff"
     bordercolor="#666666"
     borderopacity="1"
     objecttolerance="10"
     gridtolerance="10"
     guidetolerance="10"
     inkscape:pageopacity="0"
     inkscape:pageshadow="2"
     inkscape:window-width="1311"
     inkscape:window-height="750"
     id="namedview3135"
     showgrid="false"
     inkscape:zoom="1.63"
     inkscape:cx="240.5"
     inkscape:cy="744.23459"
     inkscape:window-x="49"
     inkscape:window-y="18"
     inkscape:window-maximized="1"
     inkscape:current-layer="svg3126" />
  <title
     id="title3128">Google Maps Icon - Blank</title>
  <g
     id="g3145"
     transform="matrix(0.01634398,0,0,0.01610754,438.25088,1298.0689)">
    <g
       id="g3130">
      <title
         id="title3132">Layer 1</title>
      <path
         clip-rule="evenodd"
         stroke-miterlimit="10"
         d="M 702.02692,1819.7159 C 663.26105,1627.2798 594.91095,1467.139 512.12396,1318.7174 450.71698,1208.6238 379.58002,1107.0054 313.75995,1000.246 291.78796,964.60651 272.82599,926.95575 251.71294,889.96832 209.497,816.0108 175.26897,730.26135 177.44396,619.03021 c 2.125,-108.6788 33.208,-195.85708 78.02996,-267.13592 73.71907,-117.23572 197.20107,-213.35619 362.88405,-238.61646 135.46606,-20.653143 262.4751,14.24 352.54297,67.49689 73.60016,43.52087 130.59616,101.65488 173.92006,170.16803 45.22,71.5094 76.3591,155.99075 78.971,266.18536 1.337,56.45642 -7.8049,108.73847 -20.684,152.10559 -13.0339,43.89612 -33.9959,80.58918 -52.646,119.78309 -36.406,76.50787 -82.0489,146.60861 -127.855,216.75081 -136.43702,208.9241 -264.4961,421.992 -320.58008,713.9483 z"
         id="svg_2"
         inkscape:connector-curvature="0"
         style="fill:#ff0000;fill-rule:evenodd;stroke:#000000;stroke-width:37;stroke-miterlimit:10" />
    </g>
    <path
       transform="matrix(0.77558241,0,0,0.77982587,996.1646,54.737644)"
       d="m 0,703.67883 c 0,202.89774 -170.88947,367.37887 -381.69232,367.37887 -210.80285,0 -381.69232,-164.48113 -381.69232,-367.37887 0,-202.89773 170.88947,-367.37884 381.69232,-367.37884 C -170.88947,336.29999 0,500.7811 0,703.67883 z"
       sodipodi:ry="367.37885"
       sodipodi:rx="381.69232"
       sodipodi:cy="703.67883"
       sodipodi:cx="-381.69232"
       id="path3141"
       style="opacity:0.98930479;fill:#ffffff;fill-opacity:1;stroke:#ff0101;stroke-width:2;stroke-linecap:round;stroke-linejoin:round;stroke-miterlimit:4;stroke-opacity:0.99607843;stroke-dasharray:none;stroke-dashoffset:0"
       sodipodi:type="arc" />
  </g>
</svg>
