<?xml version="1.0" encoding="UTF-8" standalone="no"?>
<!-- Created with Inkscape (http://www.inkscape.org/) -->

<svg
   xmlns:dc="http://purl.org/dc/elements/1.1/"
   xmlns:cc="http://creativecommons.org/ns#"
   xmlns:rdf="http://www.w3.org/1999/02/22-rdf-syntax-ns#"
   xmlns:svg="http://www.w3.org/2000/svg"
   xmlns="http://www.w3.org/2000/svg"
   xmlns:sodipodi="http://sodipodi.sourceforge.net/DTD/sodipodi-0.dtd"
   xmlns:inkscape="http://www.inkscape.org/namespaces/inkscape"
   width="744.09448819"
   height="1052.3622047"
   id="svg4053"
   version="1.1"
   inkscape:version="0.48.5 r10040"
   sodipodi:docname="server_with_marker.svg"
   inkscape:export-filename="/home/bharat/server.png"
   inkscape:export-xdpi="90"
   inkscape:export-ydpi="90">
  <defs
     id="defs4055" />
  <sodipodi:namedview
     id="base"
     pagecolor="#ffffff"
     bordercolor="#666666"
     borderopacity="1.0"
     inkscape:pageopacity="0.0"
     inkscape:pageshadow="2"
     inkscape:zoom="0.5"
     inkscape:cx="375"
     inkscape:cy="607.60146"
     inkscape:document-units="px"
     inkscape:current-layer="layer1"
     showgrid="false"
     inkscape:window-width="1311"
     inkscape:window-height="750"
     inkscape:window-x="49"
     inkscape:window-y="18"
     inkscape:window-maximized="1" />
  <metadata
     id="metadata4058">
    <rdf:RDF>
      <cc:Work
         rdf:about="">
        <dc:format>image/svg+xml</dc:format>
        <dc:type
           rdf:resource="http://purl.org/dc/dcmitype/StillImage" />
        <dc:title />
      </cc:Work>
    </rdf:RDF>
  </metadata>
  <g
     inkscape:label="Layer 1"
     inkscape:groupmode="layer"
     id="layer1">
    <g
       id="g4092"
       transform="matrix(35.755389,0,0,24.356266,-12565.392,-14203.301)">
      <rect
         inkscape:export-ydpi="90"
         inkscape:export-xdpi="90"
         inkscape:export-filename="D:\Projects\Vunet\Vunet_page\pg1_v1.9_networkicons\webserver.png"
         y="597.27582"
         x="354.19669"
         height="25.672047"
         width="12.596852"
         id="rect5435"
         style="fill:#333333;fill-opacity:1;stroke:none;display:inline" />
      <path
         inkscape:export-ydpi="90"
         inkscape:export-xdpi="90"
         inkscape:export-filename="D:\Projects\Vunet\Vunet_page\pg1_v1.9_networkicons\webserver.png"
         sodipodi:nodetypes="cc"
         id="path3101-6-1"
         d="m 362.95594,612.28169 0.0715,0"
         style="fill:#008080;stroke:none;display:inline"
         inkscape:connector-curvature="0" />
      <path
         inkscape:export-ydpi="90"
         inkscape:export-xdpi="90"
         inkscape:export-filename="D:\Projects\Vunet\Vunet_page\pg1_v1.9_networkicons\webserver.png"
         sodipodi:nodetypes="ccccc"
         inkscape:connector-curvature="0"
         id="rect4556-7"
         d="m 369.19669,608.98967 0,3.75091 c -1.58598,3.28256 -11.17848,2.67484 -11.29535,-0.4355 l 0,-3.31541 c 1.73736,2.5541 8.86745,2.86747 11.29535,0 z"
         style="fill:#008080;fill-opacity:1;stroke:none;display:inline" />
      <path
         inkscape:export-ydpi="90"
         inkscape:export-xdpi="90"
         inkscape:export-filename="D:\Projects\Vunet\Vunet_page\pg1_v1.9_networkicons\webserver.png"
         transform="matrix(0.04391624,0,0,0.05419424,380.17668,585.6188)"
         d="m -250.30977,407.17502 c 0,27.4265 -57.44744,49.66008 -128.31245,49.66008 -70.86501,0 -128.31246,-22.23358 -128.31246,-49.66008 0,-27.42651 57.44745,-49.66008 128.31246,-49.66008 70.86501,0 128.31245,22.23357 128.31245,49.66008 z"
         sodipodi:ry="49.66008"
         sodipodi:rx="128.31245"
         sodipodi:cy="407.17502"
         sodipodi:cx="-378.62222"
         id="path4554-4"
         style="fill:#00b6c6;fill-opacity:1;stroke:none;display:inline"
         sodipodi:type="arc" />
      <path
         inkscape:export-ydpi="90"
         inkscape:export-xdpi="90"
         inkscape:export-filename="D:\Projects\Vunet\Vunet_page\pg1_v1.9_networkicons\webserver.png"
         sodipodi:nodetypes="ccccc"
         inkscape:connector-curvature="0"
         id="rect4556-7-0"
         d="m 369.19669,613.65763 0,3.75091 c -1.58598,3.28257 -11.17848,2.67483 -11.29535,-0.4355 l 0,-3.31541 c 1.73736,2.55409 8.86745,2.86747 11.29535,0 z"
         style="fill:#008080;fill-opacity:1;stroke:none;display:inline" />
      <path
         inkscape:export-ydpi="90"
         inkscape:export-xdpi="90"
         inkscape:export-filename="D:\Projects\Vunet\Vunet_page\pg1_v1.9_networkicons\webserver.png"
         sodipodi:nodetypes="ccccc"
         inkscape:connector-curvature="0"
         id="rect4556-7-0-9"
         d="m 369.19669,618.32558 0,3.75091 c -1.58598,3.28257 -11.17848,2.67485 -11.29535,-0.43549 l 0,-3.31542 c 1.73736,2.55411 8.86745,2.86748 11.29535,0 z"
         style="fill:#008080;fill-opacity:1;stroke:none;display:inline" />
      <g
         inkscape:export-ydpi="90"
         inkscape:export-xdpi="90"
         inkscape:export-filename="D:\Projects\Vunet\Vunet_page\pg1_v1.9_networkicons\webserver.png"
         transform="matrix(0.13603964,0,0,0.16109806,203.37942,504.20424)"
         id="g5501"
         style="display:inline">
        <rect
           style="fill:#666666;fill-opacity:1;stroke:none"
           id="rect3173"
           width="64.517937"
           height="12.62391"
           x="1122.4675"
           y="586.75427" />
        <rect
           style="fill:#666666;fill-opacity:1;stroke:none"
           id="rect3173-1"
           width="64.517937"
           height="11.480632"
           x="1122.4675"
           y="603.72876" />
        <path
           transform="translate(49.863213,279.08651)"
           sodipodi:type="arc"
           style="fill:#666666;fill-opacity:1;stroke:none"
           id="path5481"
           sodipodi:cx="1078.4277"
           sodipodi:cy="345.43683"
           sodipodi:rx="5.8234372"
           sodipodi:ry="5.8234372"
           d="m 1084.2512,345.43683 c 0,3.21619 -2.6073,5.82344 -5.8235,5.82344 -3.2162,0 -5.8234,-2.60725 -5.8234,-5.82344 0,-3.2162 2.6072,-5.82344 5.8234,-5.82344 3.2162,0 5.8235,2.60724 5.8235,5.82344 z" />
      </g>
      <path
         inkscape:export-ydpi="90"
         inkscape:export-xdpi="90"
         inkscape:export-filename="D:\Projects\Vunet\Vunet_page\pg1_v1.9_networkicons\webserver.png"
         sodipodi:nodetypes="ccccc"
         inkscape:connector-curvature="0"
         id="rect5949"
         d="m 355.59307,594.27195 9.91488,0 1.25587,2.70047 -12.55885,0 z"
         style="fill:#999999;fill-opacity:1;stroke:none;display:inline" />
    </g>
    <g
       transform="matrix(0.28910657,0,0,0.28696411,147.49296,-2.051761)"
       id="g3145">
      <g
         id="g3130">
        <title
           id="title3132">Layer 1</title>
        <path
           style="fill:#ff0000;fill-rule:evenodd;stroke:#000000;stroke-width:37;stroke-miterlimit:10"
           inkscape:connector-curvature="0"
           id="svg_2"
           d="M 702.02692,1819.7159 C 663.26105,1627.2798 594.91095,1467.139 512.12396,1318.7174 450.71698,1208.6238 379.58002,1107.0054 313.75995,1000.246 291.78796,964.60651 272.82599,926.95575 251.71294,889.96832 209.497,816.0108 175.26897,730.26135 177.44396,619.03021 c 2.125,-108.6788 33.208,-195.85708 78.02996,-267.13592 73.71907,-117.23572 197.20107,-213.35619 362.88405,-238.61646 135.46606,-20.653143 262.4751,14.24 352.54297,67.49689 73.60016,43.52087 130.59616,101.65488 173.92006,170.16803 45.22,71.5094 76.3591,155.99075 78.971,266.18536 1.337,56.45642 -7.8049,108.73847 -20.684,152.10559 -13.0339,43.89612 -33.9959,80.58918 -52.646,119.78309 -36.406,76.50787 -82.0489,146.60861 -127.855,216.75081 -136.43702,208.9241 -264.4961,421.992 -320.58008,713.9483 z"
           stroke-miterlimit="10"
           clip-rule="evenodd" />
      </g>
      <path
         sodipodi:type="arc"
         style="opacity:0.98930479;fill:#ffffff;fill-opacity:1;stroke:#ff0101;stroke-width:2;stroke-linecap:round;stroke-linejoin:round;stroke-miterlimit:4;stroke-opacity:0.99607843;stroke-dasharray:none;stroke-dashoffset:0"
         id="path3141"
         sodipodi:cx="-381.69232"
         sodipodi:cy="703.67883"
         sodipodi:rx="381.69232"
         sodipodi:ry="367.37885"
         d="m 0,703.67883 c 0,202.89774 -170.88947,367.37887 -381.69232,367.37887 -210.80285,0 -381.69232,-164.48113 -381.69232,-367.37887 0,-202.89773 170.88947,-367.37884 381.69232,-367.37884 C -170.88947,336.29999 0,500.7811 0,703.67883 z"
         transform="matrix(0.77558241,0,0,0.77982587,996.1646,54.737644)" />
    </g>
  </g>
</svg>
