<svg xmlns="http://www.w3.org/2000/svg" width="24" height="30" viewBox="0 0 24 30">
  <defs>
    <style>
      .cls-1 {
        fill: #dd171d;
        fill-rule: evenodd;
      }
    </style>
  </defs>
  <path id="Trend_Down" class="cls-1" d="M703.155,1433.24l-9.392-9.29a2.561,2.561,0,0,1,0-3.65,2.624,2.624,0,0,1,3.689,0l4.938,4.88v-18.6a2.609,2.609,0,0,1,5.218,0v18.6l4.938-4.88a2.626,2.626,0,0,1,3.69,0,2.543,2.543,0,0,1,.764,1.82,2.583,2.583,0,0,1-.764,1.83l-9.392,9.29A2.624,2.624,0,0,1,703.155,1433.24Z" transform="translate(-693 -1404)"/>
</svg>
