<svg xmlns="http://www.w3.org/2000/svg" viewBox="0 0 48.2 53.7"><defs><style>.cls-1{fill:#a2a5c6;fill-rule:evenodd;}</style></defs><title>User</title><g id="Layer_2" data-name="Layer 2"><g id="Layer_2-2" data-name="Layer 2"><path id="Shape_1_copy" data-name="Shape 1 copy" class="cls-1" d="M48.19,51.78l-.64-5.58A9.46,9.46,0,0,0,39.75,38L32,36.56a1.7,1.7,0,0,1-1.39-1.62v-2l3.61-2,.1-.06a7.08,7.08,0,0,0,3.17-5.46V17.06c1.23-.72,2.13-2.06,2.13-4.46V8.17a1.27,1.27,0,0,0,0-.2,7.21,7.21,0,0,0-7.38-6.71H14.76A3.79,3.79,0,0,1,12.67.49,2.65,2.65,0,0,0,10,.27,2.47,2.47,0,0,0,8.56,2.48V8.89a8.74,8.74,0,0,0,2.13,5.68V25.29a.57.57,0,0,0,0,.13,7.1,7.1,0,0,0,3.19,5.46l.1.06,3.6,2c0,.06,0,.12,0,.17v1.86a1.7,1.7,0,0,1-1.39,1.62L8.44,38a9.48,9.48,0,0,0-7.8,8.17L0,51.78a1.66,1.66,0,0,0,.45,1.34,1.86,1.86,0,0,0,1.35.58H46.4a1.86,1.86,0,0,0,1.35-.58A1.66,1.66,0,0,0,48.19,51.78Zm-36-42.89V4.21a7.11,7.11,0,0,0,2.58.52H32.24A3.68,3.68,0,0,1,36,8.24V12.6h0a2.19,2.19,0,0,1-.3,1.43,2.36,2.36,0,0,1-1.45.32H17.87a5.6,5.6,0,0,1-5.69-5.46ZM15.85,28a3.73,3.73,0,0,1-1.53-2.74V17.14a9.63,9.63,0,0,0,3.56.68h16v7.4A3.74,3.74,0,0,1,32.37,28l-6.92,3.79-.1.06a2.29,2.29,0,0,1-2.51,0l-.1-.06Zm12.6,10.48a8.67,8.67,0,0,1-8.7,0,5.05,5.05,0,0,0,1.45-3.5v0a6,6,0,0,0,5.8,0v0a5,5,0,0,0,1.44,3.5ZM3.83,50.23h0l.41-3.65a6,6,0,0,1,4.91-5.14l6.93-1.32a12.33,12.33,0,0,0,16.05,0l6.92,1.32A6,6,0,0,1,44,46.58l.42,3.65H3.83Z"/></g></g></svg>