<?xml version="1.0" encoding="utf-8"?>
<!-- Generator: Adobe Illustrator 23.0.2, SVG Export Plug-In . SVG Version: 6.00 Build 0)  -->
<svg version="1.1" id="Capa_1" xmlns="http://www.w3.org/2000/svg" xmlns:xlink="http://www.w3.org/1999/xlink" x="0px" y="0px"
	 viewBox="0 0 20 20" style="enable-background:new 0 0 20 20;" xml:space="preserve">
<style type="text/css">
	.st0{fill:#5A4FEF;}
	.st1{fill-rule:evenodd;clip-rule:evenodd;fill:#5A4FEF;}
</style>
<path id="user" class="st1" d="M18.9,19.2l-0.2-2.1c-0.2-1.5-1.4-2.7-2.9-3l-2.9-0.5c-0.3-0.1-0.5-0.3-0.5-0.6v-0.7c0,0,0,0,0-0.1
	l1.3-0.7l0,0c0.7-0.4,1.1-1.2,1.2-2c0,0,0,0,0,0v-3c0.6-0.4,0.9-1,0.8-1.6V3.1c0,0,0,0,0-0.1c-0.1-1.4-1.3-2.5-2.7-2.5H6.6
	C6.3,0.6,6,0.5,5.8,0.3c-0.3-0.2-0.7-0.2-1-0.1C4.5,0.4,4.3,0.7,4.3,1v2.4c0,0.8,0.3,1.5,0.8,2.1v4c0,0,0,0,0,0
	c0.1,0.8,0.5,1.6,1.2,2l0,0l1.3,0.7c0,0,0,0,0,0.1V13c0,0.3-0.2,0.5-0.5,0.6l-2.9,0.5c-1.5,0.3-2.7,1.5-2.9,3l-0.2,2.1
	c0,0.2,0,0.4,0.2,0.5c0.1,0.1,0.3,0.2,0.5,0.2h16.5c0.2,0,0.4-0.1,0.5-0.2C18.9,19.6,18.9,19.4,18.9,19.2z M5.6,3.4V1.7
	c0.3,0.1,0.6,0.2,1,0.2H13c0.7,0,1.4,0.6,1.4,1.3c0,0,0,0,0,0v1.6l0,0c0,0.2,0,0.4-0.1,0.5c-0.2,0.1-0.3,0.1-0.5,0.1H7.7
	C6.6,5.4,5.6,4.5,5.6,3.4L5.6,3.4z M7,10.4c-0.3-0.2-0.5-0.6-0.6-1v-3c0.4,0.2,0.9,0.3,1.3,0.3h5.9v2.7c0,0.4-0.2,0.8-0.6,1
	l-2.6,1.4l0,0c-0.3,0.2-0.6,0.2-0.9,0c0,0,0,0,0,0L7,10.4z M11.6,14.3c-1,0.6-2.2,0.6-3.2,0c0.3-0.3,0.5-0.8,0.5-1.3v0
	c0.7,0.4,1.5,0.4,2.1,0v0C11.1,13.5,11.3,13.9,11.6,14.3L11.6,14.3z M2.5,18.6L2.5,18.6l0.2-1.3c0.1-1,0.9-1.7,1.8-1.9L7,14.9
	c1.7,1.5,4.2,1.5,5.9,0l2.6,0.5c1,0.2,1.7,0.9,1.8,1.9l0.2,1.3H2.5L2.5,18.6z"/>
</svg>
