<svg xmlns="http://www.w3.org/2000/svg" width="37.687" height="44.219" viewBox="0 0 37.687 44.219">
  <defs>
    <style>
      .cls-1 {
        fill: #5a4fef;
        fill-rule: evenodd;
      }
    </style>
  </defs>
  <path id="Shape_1_copy_4" data-name="Shape 1 copy 4" class="cls-1" d="M957.416,887.978l-0.5-4.588a7.652,7.652,0,0,0-6.1-6.724l-6.065-1.219a1.363,1.363,0,0,1-1.086-1.336v-1.524c0-.045,0-0.089-0.006-0.134l2.829-1.632c0.026-.015.052-0.031,0.077-0.048a5.908,5.908,0,0,0,2.484-4.494c0-.036,0-0.072,0-0.109V859.4c0.956-.594,1.663-1.7,1.663-3.674l0-3.649a1.489,1.489,0,0,0-.008-0.164,5.772,5.772,0,0,0-5.773-5.529H931.265a2.857,2.857,0,0,1-1.633-.628,2,2,0,0,0-2.114-.18,2.027,2.027,0,0,0-1.105,1.815v5.282a7.35,7.35,0,0,0,1.666,4.672v8.829c0,0.037,0,.073,0,0.109a5.923,5.923,0,0,0,2.5,4.5l0.076,0.047,2.813,1.627a1.281,1.281,0,0,0-.007.139v1.524a1.363,1.363,0,0,1-1.086,1.336l-6.063,1.219a7.653,7.653,0,0,0-6.1,6.725l-0.5,4.588a1.435,1.435,0,0,0,.354,1.109,1.409,1.409,0,0,0,1.055.475h34.883a1.411,1.411,0,0,0,1.055-.475A1.432,1.432,0,0,0,957.416,887.978Zm-28.168-35.309v-3.86a5.111,5.111,0,0,0,2.017.431h13.673a2.943,2.943,0,0,1,2.944,2.888l0,0.054,0,3.538h0a1.838,1.838,0,0,1-.235,1.181,1.721,1.721,0,0,1-1.131.257H933.7A4.476,4.476,0,0,1,929.248,852.669Zm2.864,15.7a3.089,3.089,0,0,1-1.2-2.254v-6.652a7.177,7.177,0,0,0,2.784.559h12.521v6.093a3.085,3.085,0,0,1-1.181,2.254l-5.413,3.121c-0.027.016-.052,0.032-0.077,0.049a1.7,1.7,0,0,1-1.963,0c-0.024-.017-0.05-0.033-0.076-0.048ZM941.967,877a6.48,6.48,0,0,1-6.8,0,4.238,4.238,0,0,0,1.135-2.885v-0.022a4.483,4.483,0,0,0,4.534,0v0.021A4.241,4.241,0,0,0,941.967,877ZM922.705,886.7h0l0.324-3a4.816,4.816,0,0,1,3.839-4.231l5.421-1.089a9.291,9.291,0,0,0,12.554,0l5.419,1.09a4.814,4.814,0,0,1,3.84,4.23l0.325,3H922.705Z" transform="translate(-919.719 -845.344)"/>
</svg>
