<svg xmlns="http://www.w3.org/2000/svg" viewBox="0 0 26.46 58"><defs><style>.cls-1{fill:#a2a5c6;}</style></defs><title>Voice</title><g id="Layer_2" data-name="Layer 2"><g id="Layer_2-2" data-name="Layer 2"><path class="cls-1" d="M5,23V14.61a1.68,1.68,0,0,1,3.36,0V23a4.87,4.87,0,0,0,4.86,4.86h.13A4.87,4.87,0,0,0,18.16,23V8.23A4.87,4.87,0,0,0,13.3,3.37h-.13A4.87,4.87,0,0,0,8.31,8.23,1.68,1.68,0,0,1,5,8.23,8.23,8.23,0,0,1,13.17,0h.13a8.23,8.23,0,0,1,8.22,8.23V23a8.23,8.23,0,0,1-8.22,8.22h-.13A8.23,8.23,0,0,1,5,23Z"/><path class="cls-1" d="M14.8,40V56.32a1.68,1.68,0,0,1-3.36,0V40a1.68,1.68,0,0,1,3.36,0Z"/><path class="cls-1" d="M26.46,24.3A13.12,13.12,0,0,1,13.35,37.41h-.23A13.13,13.13,0,0,1,0,24.3a1.69,1.69,0,1,1,3.37,0,9.76,9.76,0,0,0,9.75,9.75h.23A9.76,9.76,0,0,0,23.1,24.3a1.68,1.68,0,1,1,3.36,0Z"/></g></g></svg>