<?xml version="1.0" encoding="UTF-8" standalone="no"?>
<!-- Created with Inkscape (http://www.inkscape.org/) -->

<svg
   xmlns:dc="http://purl.org/dc/elements/1.1/"
   xmlns:cc="http://creativecommons.org/ns#"
   xmlns:rdf="http://www.w3.org/1999/02/22-rdf-syntax-ns#"
   xmlns:svg="http://www.w3.org/2000/svg"
   xmlns="http://www.w3.org/2000/svg"
   xmlns:sodipodi="http://sodipodi.sourceforge.net/DTD/sodipodi-0.dtd"
   xmlns:inkscape="http://www.inkscape.org/namespaces/inkscape"
   width="744.09448819"
   height="1052.3622047"
   id="svg3639"
   version="1.1"
   inkscape:version="0.48.5 r10040"
   sodipodi:docname="wap.svg">
  <defs
     id="defs3641" />
  <sodipodi:namedview
     id="base"
     pagecolor="#ffffff"
     bordercolor="#666666"
     borderopacity="1.0"
     inkscape:pageopacity="0.0"
     inkscape:pageshadow="2"
     inkscape:zoom="0.35"
     inkscape:cx="325"
     inkscape:cy="520"
     inkscape:document-units="px"
     inkscape:current-layer="layer1"
     showgrid="false"
     inkscape:window-width="1311"
     inkscape:window-height="750"
     inkscape:window-x="49"
     inkscape:window-y="18"
     inkscape:window-maximized="1" />
  <metadata
     id="metadata3644">
    <rdf:RDF>
      <cc:Work
         rdf:about="">
        <dc:format>image/svg+xml</dc:format>
        <dc:type
           rdf:resource="http://purl.org/dc/dcmitype/StillImage" />
        <dc:title />
      </cc:Work>
    </rdf:RDF>
  </metadata>
  <g
     inkscape:label="Layer 1"
     inkscape:groupmode="layer"
     id="layer1">
    <g
       id="g3028"
       transform="matrix(1,0,0,1.061802,2,-53.846496)">
      <path
         sodipodi:nodetypes="ccc"
         inkscape:connector-curvature="0"
         id="path5365"
         d="m 507.93592,274.41119 c 118.76676,70.4656 92.388,223.03952 2.8637,269.31689 151.36922,-13.72152 157.50413,-249.67596 -2.8637,-269.31689 z"
         style="fill:#333333;stroke:none" />
      <path
         sodipodi:nodetypes="ccc"
         inkscape:connector-curvature="0"
         id="path5365-0"
         d="m 432.74343,319.92536 c 97.46357,46.9306 75.81644,148.54318 2.34992,179.36424 124.21846,-9.13879 129.25287,-166.28261 -2.34992,-179.36424 z"
         style="fill:#333333;stroke:none" />
      <path
         inkscape:connector-curvature="0"
         id="path3009"
         d="m 379.59413,441.79814 c 0,157.97433 0,157.97433 0,157.97433"
         style="fill:none;stroke:#000000;stroke-width:22.01681709;stroke-linecap:butt;stroke-linejoin:miter;stroke-miterlimit:4;stroke-opacity:1;stroke-dasharray:none" />
      <path
         transform="matrix(1.355443,0,0,0.95332996,1589.5322,-44.800963)"
         d="m -874.28569,476.64789 c 0,11.83467 -8.31471,21.42857 -18.57143,21.42857 -10.25671,0 -18.57142,-9.5939 -18.57142,-21.42857 0,-11.83468 8.31471,-21.42857 18.57142,-21.42857 10.25672,0 18.57143,9.59389 18.57143,21.42857 z"
         sodipodi:ry="21.428572"
         sodipodi:rx="18.571428"
         sodipodi:cy="476.64789"
         sodipodi:cx="-892.85712"
         id="path3779"
         style="opacity:0.98930479;fill:#140606;fill-opacity:1;stroke:#0d0202;stroke-width:22.10000038;stroke-linecap:round;stroke-linejoin:round;stroke-miterlimit:4;stroke-opacity:0.99607843;stroke-dasharray:none;stroke-dashoffset:0"
         sodipodi:type="arc" />
      <rect
         y="627.22211"
         x="30.896967"
         height="244.05273"
         width="677.08246"
         id="rect3781"
         style="opacity:0.98930479;fill:#140606;fill-opacity:1;stroke:#0d0202;stroke-width:39.68054962;stroke-linecap:round;stroke-linejoin:round;stroke-miterlimit:4;stroke-opacity:0.99607843;stroke-dasharray:none;stroke-dashoffset:0" />
      <path
         inkscape:transform-center-y="-68.571437"
         inkscape:transform-center-x="394.28573"
         transform="matrix(0.5739374,0,0,0.47589865,1166.236,592.06161)"
         d="m -888.57143,458.07648 c 0,36.293 -30.06089,65.71428 -67.14286,65.71428 -37.08198,0 -67.14291,-29.42128 -67.14291,-65.71428 0,-36.293 30.06093,-65.71429 67.14291,-65.71429 37.08197,0 67.14286,29.42129 67.14286,65.71429 z"
         sodipodi:ry="65.714287"
         sodipodi:rx="67.14286"
         sodipodi:cy="458.07648"
         sodipodi:cx="-955.71429"
         id="path3783"
         style="opacity:0.98930479;fill:#ffffff;fill-opacity:1;stroke:#0d0202;stroke-width:2;stroke-linecap:round;stroke-linejoin:round;stroke-miterlimit:4;stroke-opacity:0.99607843;stroke-dasharray:none;stroke-dashoffset:0"
         sodipodi:type="arc" />
      <path
         inkscape:transform-center-y="-68.571437"
         inkscape:transform-center-x="394.28573"
         transform="matrix(0.5739374,0,0,0.47589865,1051.6188,596.92672)"
         d="m -888.57143,458.07648 c 0,36.293 -30.06089,65.71428 -67.14286,65.71428 -37.08198,0 -67.14291,-29.42128 -67.14291,-65.71428 0,-36.293 30.06093,-65.71429 67.14291,-65.71429 37.08197,0 67.14286,29.42129 67.14286,65.71429 z"
         sodipodi:ry="65.714287"
         sodipodi:rx="67.14286"
         sodipodi:cy="458.07648"
         sodipodi:cx="-955.71429"
         id="path3783-1"
         style="opacity:0.98930479;fill:#ffffff;fill-opacity:1;stroke:#0d0202;stroke-width:2;stroke-linecap:round;stroke-linejoin:round;stroke-miterlimit:4;stroke-opacity:0.99607843;stroke-dasharray:none;stroke-dashoffset:0"
         sodipodi:type="arc" />
      <path
         inkscape:transform-center-y="-38.269993"
         inkscape:transform-center-x="178.58134"
         transform="matrix(0.25994983,0,0,0.26560092,318.47634,534.48141)"
         d="m -888.57143,458.07648 c 0,36.293 -30.06089,65.71428 -67.14286,65.71428 -37.08198,0 -67.14291,-29.42128 -67.14291,-65.71428 0,-36.293 30.06093,-65.71429 67.14291,-65.71429 37.08197,0 67.14286,29.42129 67.14286,65.71429 z"
         sodipodi:ry="65.714287"
         sodipodi:rx="67.14286"
         sodipodi:cy="458.07648"
         sodipodi:cx="-955.71429"
         id="path3783-9"
         style="opacity:0.98930479;fill:#ffffff;fill-opacity:1;stroke:#0d0202;stroke-width:2;stroke-linecap:round;stroke-linejoin:round;stroke-miterlimit:4;stroke-opacity:0.99607843;stroke-dasharray:none;stroke-dashoffset:0"
         sodipodi:type="arc" />
      <path
         sodipodi:nodetypes="ccc"
         inkscape:connector-curvature="0"
         id="path5365-6"
         d="M 232.90374,270.27683 C 105.9122,342.5284 134.11775,498.96933 229.84171,546.41961 67.98995,532.35032 61.4302,290.41556 232.90374,270.27683 z"
         style="fill:#333333;stroke:none" />
      <path
         sodipodi:nodetypes="ccc"
         inkscape:connector-curvature="0"
         id="path5365-0-3"
         d="m 321.06954,326.02984 c -98.38413,45.1446 -76.53258,142.8902 -2.37215,172.53833 -125.39177,-8.791 -130.47371,-159.95455 2.37215,-172.53833 z"
         style="fill:#333333;stroke:none" />
      <path
         inkscape:transform-center-y="-68.571437"
         inkscape:transform-center-x="394.28573"
         transform="matrix(0.5739374,0,0,0.47589865,928.52019,594.3642)"
         d="m -888.57143,458.07648 c 0,36.293 -30.06089,65.71428 -67.14286,65.71428 -37.08198,0 -67.14291,-29.42128 -67.14291,-65.71428 0,-36.293 30.06093,-65.71429 67.14291,-65.71429 37.08197,0 67.14286,29.42129 67.14286,65.71429 z"
         sodipodi:ry="65.714287"
         sodipodi:rx="67.14286"
         sodipodi:cy="458.07648"
         sodipodi:cx="-955.71429"
         id="path3783-1-1"
         style="opacity:0.98930479;fill:#ffffff;fill-opacity:1;stroke:#0d0202;stroke-width:2;stroke-linecap:round;stroke-linejoin:round;stroke-miterlimit:4;stroke-opacity:0.99607843;stroke-dasharray:none;stroke-dashoffset:0"
         sodipodi:type="arc" />
      <path
         inkscape:transform-center-y="-38.269993"
         inkscape:transform-center-x="178.58134"
         transform="matrix(0.25994983,0,0,0.26560092,385.58063,530.69665)"
         d="m -888.57143,458.07648 c 0,36.293 -30.06089,65.71428 -67.14286,65.71428 -37.08198,0 -67.14291,-29.42128 -67.14291,-65.71428 0,-36.293 30.06093,-65.71429 67.14291,-65.71429 37.08197,0 67.14286,29.42129 67.14286,65.71429 z"
         sodipodi:ry="65.714287"
         sodipodi:rx="67.14286"
         sodipodi:cy="458.07648"
         sodipodi:cx="-955.71429"
         id="path3783-9-3"
         style="opacity:0.98930479;fill:#ffffff;fill-opacity:1;stroke:#0d0202;stroke-width:2;stroke-linecap:round;stroke-linejoin:round;stroke-miterlimit:4;stroke-opacity:0.99607843;stroke-dasharray:none;stroke-dashoffset:0"
         sodipodi:type="arc" />
    </g>
  </g>
</svg>
