<?xml version="1.0" encoding="UTF-8" standalone="no"?>
<!-- Created with Inkscape (http://www.inkscape.org/) -->

<svg
   xmlns:dc="http://purl.org/dc/elements/1.1/"
   xmlns:cc="http://creativecommons.org/ns#"
   xmlns:rdf="http://www.w3.org/1999/02/22-rdf-syntax-ns#"
   xmlns:svg="http://www.w3.org/2000/svg"
   xmlns="http://www.w3.org/2000/svg"
   xmlns:sodipodi="http://sodipodi.sourceforge.net/DTD/sodipodi-0.dtd"
   xmlns:inkscape="http://www.inkscape.org/namespaces/inkscape"
   width="744.09448819"
   height="1052.3622047"
   id="svg3085"
   version="1.1"
   inkscape:version="0.48.5 r10040"
   sodipodi:docname="windows_with_marker.svg">
  <defs
     id="defs3087" />
  <sodipodi:namedview
     id="base"
     pagecolor="#ffffff"
     bordercolor="#666666"
     borderopacity="1.0"
     inkscape:pageopacity="0.0"
     inkscape:pageshadow="2"
     inkscape:zoom="0.35"
     inkscape:cx="-483.57143"
     inkscape:cy="520"
     inkscape:document-units="px"
     inkscape:current-layer="layer1"
     showgrid="false"
     inkscape:window-width="1311"
     inkscape:window-height="750"
     inkscape:window-x="49"
     inkscape:window-y="18"
     inkscape:window-maximized="1" />
  <metadata
     id="metadata3090">
    <rdf:RDF>
      <cc:Work
         rdf:about="">
        <dc:format>image/svg+xml</dc:format>
        <dc:type
           rdf:resource="http://purl.org/dc/dcmitype/StillImage" />
        <dc:title />
      </cc:Work>
    </rdf:RDF>
  </metadata>
  <g
     inkscape:label="Layer 1"
     inkscape:groupmode="layer"
     id="layer1">
    <path
       style="fill:#b3b3b3;fill-opacity:1;stroke:none"
       d="m 237.5243,652.42192 302.55393,3.23886 114.22951,106.88338 -537.18785,0 z"
       id="rect5256-2"
       inkscape:connector-curvature="0"
       sodipodi:nodetypes="ccccc" />
    <rect
       style="fill:#808080;fill-opacity:1;stroke:none"
       id="rect5252-8"
       width="429.13309"
       height="354.35507"
       x="171.14671"
       y="280.91153" />
    <rect
       style="fill:#ffffff;fill-opacity:1;stroke:none"
       id="rect5254-2"
       width="370.99246"
       height="284.33789"
       x="200.21799"
       y="316.09094" />
    <rect
       style="fill:#4d4d4d;fill-opacity:1;stroke:none"
       id="rect5994-8"
       width="535.93188"
       height="39.700924"
       x="117.74835"
       y="761.25562" />
    <g
       id="g3808"
       transform="matrix(0.56961155,0,0,0.59960259,1043.9596,62.397491)">
      <rect
         inkscape:transform-center-y="54.120919"
         inkscape:transform-center-x="125.49336"
         transform="matrix(0.99994828,-0.01017057,-0.36951915,0.92922312,0,0)"
         rx="5.0159903"
         ry="4.310154"
         y="449.97275"
         x="-886.83191"
         height="234.68674"
         width="221.86519"
         id="rect2988-0"
         style="fill:#16b716;fill-opacity:1;stroke:#000000;stroke-width:0;stroke-linecap:round;stroke-linejoin:round;stroke-miterlimit:4;stroke-opacity:1;stroke-dasharray:none;stroke-dashoffset:1" />
      <rect
         inkscape:transform-center-y="54.120919"
         inkscape:transform-center-x="125.49336"
         transform="matrix(0.99994828,-0.01017057,-0.36951915,0.92922312,0,0)"
         rx="5.0159903"
         ry="4.310154"
         y="450.50372"
         x="-1135.4409"
         height="234.68674"
         width="221.86519"
         id="rect2988-0-1"
         style="fill:#d40000;fill-opacity:1;stroke:#000000;stroke-width:0;stroke-linecap:round;stroke-linejoin:round;stroke-miterlimit:4;stroke-opacity:1;stroke-dasharray:none;stroke-dashoffset:1" />
      <rect
         inkscape:transform-center-y="54.120919"
         inkscape:transform-center-x="125.49336"
         transform="matrix(0.99994828,-0.01017057,-0.36951915,0.92922312,0,0)"
         rx="5.0159903"
         ry="4.310154"
         y="702.26685"
         x="-888.11108"
         height="234.68674"
         width="221.86519"
         id="rect2988-0-7"
         style="fill:#2222ee;fill-opacity:1;stroke:#000000;stroke-width:0;stroke-linecap:round;stroke-linejoin:round;stroke-miterlimit:4;stroke-opacity:1;stroke-dasharray:none;stroke-dashoffset:1" />
      <rect
         inkscape:transform-center-y="54.120919"
         inkscape:transform-center-x="125.49336"
         transform="matrix(0.99994828,-0.01017057,-0.36951915,0.92922312,0,0)"
         rx="5.0159903"
         ry="4.310154"
         y="705.74078"
         x="-1132.5543"
         height="234.68674"
         width="221.86519"
         id="rect2988-0-2"
         style="fill:#f9d50e;fill-opacity:1;stroke:#000000;stroke-width:0;stroke-linecap:round;stroke-linejoin:round;stroke-miterlimit:4;stroke-opacity:1;stroke-dasharray:none;stroke-dashoffset:1" />
    </g>
    <g
       transform="matrix(0.19535975,0,0,0.21321113,353.12437,22.650762)"
       id="g3145">
      <g
         id="g3130">
        <title
           id="title3132">Layer 1</title>
        <path
           style="fill:#ff0000;fill-rule:evenodd;stroke:#000000;stroke-width:37;stroke-miterlimit:10"
           inkscape:connector-curvature="0"
           id="svg_2"
           d="M 702.02692,1819.7159 C 663.26105,1627.2798 594.91095,1467.139 512.12396,1318.7174 450.71698,1208.6238 379.58002,1107.0054 313.75995,1000.246 291.78796,964.60651 272.82599,926.95575 251.71294,889.96832 209.497,816.0108 175.26897,730.26135 177.44396,619.03021 c 2.125,-108.6788 33.208,-195.85708 78.02996,-267.13592 73.71907,-117.23572 197.20107,-213.35619 362.88405,-238.61646 135.46606,-20.653143 262.4751,14.24 352.54297,67.49689 73.60016,43.52087 130.59616,101.65488 173.92006,170.16803 45.22,71.5094 76.3591,155.99075 78.971,266.18536 1.337,56.45642 -7.8049,108.73847 -20.684,152.10559 -13.0339,43.89612 -33.9959,80.58918 -52.646,119.78309 -36.406,76.50787 -82.0489,146.60861 -127.855,216.75081 -136.43702,208.9241 -264.4961,421.992 -320.58008,713.9483 z"
           stroke-miterlimit="10"
           clip-rule="evenodd" />
      </g>
      <path
         sodipodi:type="arc"
         style="opacity:0.98930479;fill:#ffffff;fill-opacity:1;stroke:#ff0101;stroke-width:2;stroke-linecap:round;stroke-linejoin:round;stroke-miterlimit:4;stroke-opacity:0.99607843;stroke-dasharray:none;stroke-dashoffset:0"
         id="path3141"
         sodipodi:cx="-381.69232"
         sodipodi:cy="703.67883"
         sodipodi:rx="381.69232"
         sodipodi:ry="367.37885"
         d="m 0,703.67883 c 0,202.89774 -170.88947,367.37887 -381.69232,367.37887 -210.80285,0 -381.69232,-164.48113 -381.69232,-367.37887 0,-202.89773 170.88947,-367.37884 381.69232,-367.37884 C -170.88947,336.29999 0,500.7811 0,703.67883 z"
         transform="matrix(0.77558241,0,0,0.77982587,996.1646,54.737644)" />
    </g>
  </g>
</svg>
