<?xml version="1.0" standalone="no"?>
<!DOCTYPE svg PUBLIC "-//W3C//DTD SVG 20010904//EN"
 "http://www.w3.org/TR/2001/REC-SVG-20010904/DTD/svg10.dtd">
<svg version="1.0" xmlns="http://www.w3.org/2000/svg"
 width="360.000000pt" height="360.000000pt" viewBox="0 0 360.000000 360.000000"
 preserveAspectRatio="xMidYMid meet">
<metadata>
Created by potrace 1.11, written by Peter Selinger 2001-2013
</metadata>
<g transform="translate(0.000000,360.000000) scale(0.100000,-0.100000)"
fill="#000000" stroke="none">
<path d="M431 3493 c25 -26 341 -362 702 -745 361 -383 660 -699 665 -702 8
-5 609 629 1170 1232 l152 164 0 49 c0 27 -3 49 -8 49 -14 0 -170 -163 -956
-993 -191 -202 -352 -367 -357 -365 -4 2 -294 307 -644 678 l-636 675 -67 3
-67 3 46 -48z"/>
<path d="M1017 3373 c87 -93 300 -318 472 -501 l315 -333 26 28 c15 15 209
222 430 458 222 237 421 449 444 473 l40 42 -61 0 -61 0 -408 -430 c-224 -237
-410 -429 -414 -428 -4 2 -188 195 -410 431 l-403 427 -64 0 -65 0 159 -167z"/>
<path d="M1364 3510 c13 -17 118 -129 232 -249 l207 -219 82 86 c45 48 149
159 232 247 l151 160 -61 3 -60 3 -116 -123 c-64 -68 -141 -149 -171 -181
l-56 -59 -169 180 -170 180 -63 1 -64 1 26 -30z"/>
<path d="M330 3207 l0 -68 737 -800 c578 -628 739 -798 747 -787 6 8 234 257
506 553 272 297 564 615 648 707 l152 168 0 57 -1 58 -100 -105 c-55 -58 -351
-376 -657 -708 -306 -331 -559 -601 -563 -600 -3 2 -322 347 -709 768 -386
421 -715 778 -731 795 l-29 30 0 -68z"/>
<path d="M332 2703 l3 -71 721 -784 c397 -431 728 -789 736 -795 11 -10 121
105 570 595 305 334 601 657 657 718 l101 112 0 58 -1 59 -76 -80 c-41 -44
-337 -363 -656 -708 -319 -345 -584 -626 -588 -625 -4 2 -332 356 -729 788
-397 432 -726 789 -732 795 -5 6 -8 -16 -6 -62z"/>
<path d="M330 2203 l0 -68 732 -795 c402 -437 734 -796 738 -798 5 -2 689 740
1233 1338 l87 95 0 58 c0 31 -2 57 -4 57 -4 0 -45 -44 -773 -833 -294 -317
-538 -577 -542 -577 -4 0 -225 237 -491 527 -267 290 -596 647 -732 795 l-248
268 0 -67z"/>
<path d="M330 1710 l0 -51 736 -800 c594 -645 739 -798 749 -787 7 7 212 231
456 498 245 267 536 585 647 707 l202 223 0 47 c0 40 -2 45 -14 33 -7 -8 -80
-87 -162 -175 -110 -118 -1033 -1118 -1129 -1223 -10 -11 -154 141 -745 782
-402 438 -734 796 -736 796 -2 0 -4 -23 -4 -50z"/>
</g>
</svg>
