<?xml version="1.0" encoding="UTF-8" standalone="no"?>
<svg
   xmlns:dc="http://purl.org/dc/elements/1.1/"
   xmlns:cc="http://creativecommons.org/ns#"
   xmlns:rdf="http://www.w3.org/1999/02/22-rdf-syntax-ns#"
   xmlns:svg="http://www.w3.org/2000/svg"
   xmlns="http://www.w3.org/2000/svg"
   xmlns:sodipodi="http://sodipodi.sourceforge.net/DTD/sodipodi-0.dtd"
   xmlns:inkscape="http://www.inkscape.org/namespaces/inkscape"
   width="8"
   height="8"
   viewBox="0 0 8 8"
   fill="white"
   id="svg2"
   version="1.1"
   inkscape:version="0.91 r13725"
   sodipodi:docname="alert.svg">
  <metadata
     id="metadata10">
    <rdf:RDF>
      <cc:Work
         rdf:about="">
        <dc:format>image/svg+xml</dc:format>
        <dc:type
           rdf:resource="http://purl.org/dc/dcmitype/StillImage" />
      </cc:Work>
    </rdf:RDF>
  </metadata>
  <defs
     id="defs8" />
  <sodipodi:namedview
     pagecolor="#ffffff"
     bordercolor="#666666"
     borderopacity="1"
     objecttolerance="10"
     gridtolerance="10"
     guidetolerance="10"
     inkscape:pageopacity="0"
     inkscape:pageshadow="2"
     inkscape:window-width="1319"
     inkscape:window-height="744"
     id="namedview6"
     showgrid="false"
     inkscape:zoom="29.5"
     inkscape:cx="1.2881356"
     inkscape:cy="2.6440678"
     inkscape:window-x="47"
     inkscape:window-y="24"
     inkscape:window-maximized="1"
     inkscape:current-layer="svg2" />
  <g
     id="g4684">
    <path
       d="m 3.7871714,7.8681273 c 0.057814,0.031218 0.1212714,0.047127 0.1881427,0.047127 0.2557024,0 0.4657134,-0.2497569 0.4833696,-0.5949993 9.176e-4,-0.01531 0.00183,-0.04422 0.00183,-0.04422 l -0.9695196,0 c 6.883e-4,0.2441971 0.1226387,0.4975117 0.2965942,0.5920997"
       style="fill:#ffffff;fill-opacity:1;fill-rule:nonzero;stroke:none"
       id="path2102"
       inkscape:connector-curvature="0" />
    <path
       d="m 4.0762848,1.1931155 c -0.1246777,0 -0.2261213,-0.096523 -0.2261213,-0.21515007 0,-0.1186466 0.1014436,-0.2151631 0.2261213,-0.2151631 0.124707,0 0.2261216,0.096516 0.2261216,0.2151631 0,0.11862717 -0.1014133,0.21515007 -0.2261216,0.21515007 z m 0.2052459,0.2721159 -0.031967,-0.0013 0,-0.065878 c 0.1732614,-0.068572 0.2999076,-0.2309841 0.2999076,-0.42006777 0,-0.2508951 -0.2119998,-0.4549769 -0.4756815,-0.4549769 -0.2636914,0 -0.4719099,0.2040818 -0.4719099,0.4549769 0,0.18908367 0.1279133,0.35149707 0.3011641,0.42006997 l 0,0.075713 C 2.1704662,1.8003469 2.8120629,3.1873491 2.3722906,4.312453 2.0842484,5.0493602 1.3594872,5.5027715 1.4813961,6.3476144 c 1.7268229,0 3.4536476,0 5.1804625,0 C 6.8279754,5.4821678 6.0527087,5.072627 5.7697109,4.3248594 5.3797238,3.2941479 6.0335581,1.6589725 4.2815504,1.4652508"
       style="fill:#ffffff;fill-opacity:1;fill-rule:nonzero;stroke:none"
       id="path2104"
       inkscape:connector-curvature="0" />
    <path
       d="M 1.6465567,4.7423766 C 1.7443825,4.696843 1.7849253,4.5844906 1.7370851,4.4914167 1.4564721,3.9453601 1.4654168,3.1914087 2.1179714,2.7380428 2.2059172,2.6769204 2.2251542,2.5595727 2.1609405,2.4758716 2.0967257,2.3922091 1.9733451,2.3738923 1.8853953,2.4350147 1.4932467,2.7074683 1.2514004,3.0877663 1.186017,3.5348121 c -0.054207,0.3707238 0.015661,0.768995 0.1967564,1.121434 0.034218,0.066559 0.1043457,0.1052809 0.1773079,0.1052809 0.029062,0 0.058582,-0.00585 0.086475,-0.019096"
       style="fill:#ffffff;fill-opacity:1;fill-rule:nonzero;stroke:none"
       id="path2106"
       inkscape:connector-curvature="0" />
    <path
       d="M 1.5277022,1.9864427 C 1.6156481,1.9253202 1.6348833,1.807953 1.5706714,1.7242521 1.5064563,1.6405902 1.3830758,1.6222729 1.295125,1.6833955 0.70271155,2.0949759 0.33743985,2.6690995 0.23876975,3.3437347 c -0.082342,0.5629968 0.024043,1.1683117 0.2995412,1.7044823 0.034198,0.066553 0.1043453,0.1052338 0.1772874,0.1052338 0.029082,0 0.058582,-0.00585 0.086474,-0.019096 0.0978259,-0.045533 0.1383683,-0.1578797 0.0905285,-0.2509796 C 0.42974115,3.9826508 0.44661305,2.7375362 1.5277013,1.9864558"
       style="fill:#ffffff;fill-opacity:1;fill-rule:nonzero;stroke:none"
       id="path2108"
       inkscape:connector-curvature="0" />
    <path
       d="m 0.87958575,1.3032534 c 0.087954,-0.061121 0.1071817,-0.1784899 0.04295,-0.2621713 -0.0641968,-0.0836622 -0.1875745,-0.10195937 -0.2755457,-0.040857 -0.7892997,0.5483886 -1.2759394,1.31309 -1.4073554,2.2115078 -0.1099761,0.7520546 0.032288,1.5609385 0.4006157,2.2777161 0.034198,0.066579 0.1043237,0.1052524 0.1772874,0.1052524 0.029081,0 0.058601,-0.00585 0.086474,-0.019096 0.097826,-0.045534 0.1383687,-0.1578797 0.090529,-0.2509795 -0.6420517,-1.249499 -0.6174056,-2.9775082 0.885046,-4.02136"
       style="fill:#ffffff;fill-opacity:1;fill-rule:nonzero;stroke:none"
       id="path2110"
       inkscape:connector-curvature="0" />
    <path
       d="m 6.2671547,2.4349889 c -0.088004,-0.061123 -0.2113079,-0.042804 -0.2755423,0.040857 -0.064225,0.083701 -0.044928,0.2010744 0.04298,0.2621709 0.6525577,0.4533662 0.6615041,1.2073175 0.3808844,1.7533741 -0.047851,0.093073 -0.00681,0.2054394 0.090539,0.2509599 0.027872,0.012926 0.057403,0.019096 0.086444,0.019096 0.072899,0 0.1430875,-0.038713 0.1772854,-0.1052786 C 6.9508597,4.3037295 7.0207271,3.9054582 6.9665212,3.5347345 6.9011271,3.0876887 6.6592858,2.7073905 6.2671158,2.4349371"
       style="fill:#ffffff;fill-opacity:1;fill-rule:nonzero;stroke:none"
       id="path2112"
       inkscape:connector-curvature="0" />
    <path
       d="m 6.8574465,1.683389 c -0.087908,-0.061124 -0.2113274,-0.042805 -0.2755423,0.040857 -0.064225,0.083701 -0.045025,0.2010679 0.042979,0.2621906 1.0810889,0.7510801 1.0979395,1.9961948 0.6350833,2.8969185 -0.047852,0.0931 -0.00681,0.2054589 0.090539,0.2509794 0.027873,0.012925 0.057403,0.019096 0.086445,0.019096 0.072996,0 0.1430873,-0.038647 0.1772853,-0.1052327 C 7.8897582,4.5120269 7.9961137,3.9067119 7.9137715,3.3437152 7.8151053,2.66908 7.4498338,2.0949566 6.8574174,1.683376"
       style="fill:#ffffff;fill-opacity:1;fill-rule:nonzero;stroke:none"
       id="path2114"
       inkscape:connector-curvature="0" />
    <path
       d="M 8.9129181,3.2117071 C 8.7815261,2.3132895 8.2948705,1.5485882 7.5055893,1.0001995 7.4175851,0.93907713 7.2942522,0.95739403 7.2300372,1.0410563 c -0.064225,0.083682 -0.044928,0.2010745 0.04298,0.2621712 1.5024379,1.0438322 1.5270849,2.7718608 0.8850334,4.02136 -0.047852,0.093098 -0.00681,0.2054656 0.090539,0.2509793 0.027872,0.012991 0.057403,0.019096 0.086446,0.019096 0.072899,0 0.1430875,-0.038648 0.1772855,-0.1052524 0.36832,-0.7167783 0.510588,-1.5256619 0.400588,-2.2777168"
       style="fill:#ffffff;fill-opacity:1;fill-rule:nonzero;stroke:none"
       id="path2116"
       inkscape:connector-curvature="0" />
  </g>
</svg>
