<?xml version="1.0" encoding="UTF-8" standalone="no"?>
<svg
   xmlns:dc="http://purl.org/dc/elements/1.1/"
   xmlns:cc="http://creativecommons.org/ns#"
   xmlns:rdf="http://www.w3.org/1999/02/22-rdf-syntax-ns#"
   xmlns:svg="http://www.w3.org/2000/svg"
   xmlns="http://www.w3.org/2000/svg"
   xmlns:sodipodi="http://sodipodi.sourceforge.net/DTD/sodipodi-0.dtd"
   xmlns:inkscape="http://www.inkscape.org/namespaces/inkscape"
   width="32"
   height="32"
   viewBox="0 0 32 32"
   id="svg2"
   version="1.1"
   inkscape:version="0.91 r13725"
   sodipodi:docname="app_alert.svg">
  <metadata
     id="metadata16">
    <rdf:RDF>
      <cc:Work
         rdf:about="">
        <dc:format>image/svg+xml</dc:format>
        <dc:type
           rdf:resource="http://purl.org/dc/dcmitype/StillImage" />
        <dc:title></dc:title>
      </cc:Work>
    </rdf:RDF>
  </metadata>
  <defs
     id="defs14" />
  <sodipodi:namedview
     pagecolor="#ffffff"
     bordercolor="#666666"
     borderopacity="1"
     objecttolerance="10"
     gridtolerance="10"
     guidetolerance="10"
     inkscape:pageopacity="0"
     inkscape:pageshadow="2"
     inkscape:window-width="1319"
     inkscape:window-height="744"
     id="namedview12"
     showgrid="false"
     inkscape:zoom="7.375"
     inkscape:cx="26.847458"
     inkscape:cy="5.1525424"
     inkscape:window-x="47"
     inkscape:window-y="24"
     inkscape:window-maximized="1"
     inkscape:current-layer="svg2" />
  <path
     inkscape:connector-curvature="0"
     id="path2102"
     style="fill:#13aec5;fill-opacity:1;fill-rule:nonzero;stroke:none"
     d="m 15.494732,26.308455 c 0.189107,0.07636 0.396674,0.115274 0.615407,0.115274 0.836393,0 1.523333,-0.610911 1.581086,-1.455384 0.003,-0.03745 0.006,-0.108161 0.006,-0.108161 l -3.171265,0 c 0.0023,0.597313 0.401147,1.216927 0.97015,1.448292" />
  <path
     inkscape:connector-curvature="0"
     id="path2104"
     style="fill:#13aec5;fill-opacity:1;fill-rule:nonzero;stroke:none"
     d="m 16.110199,7.6611307 c -0.384007,0 -0.696454,-0.3108846 -0.696454,-0.6929631 0,-0.3821413 0.312447,-0.6930058 0.696454,-0.6930058 0.384098,0 0.696455,0.3108645 0.696455,0.6930058 0,0.3820785 -0.312357,0.6929631 -0.696455,0.6929631 z m 0.632158,0.8764394 -0.09846,-0.00418 0,-0.2121798 C 17.17754,8.1003483 17.56761,7.577242 17.56761,6.9682345 c 0,-0.8080917 -0.652961,-1.4654056 -1.465099,-1.4654056 -0.812171,0 -1.453483,0.6573139 -1.453483,1.4654056 0,0.6090075 0.393973,1.1321138 0.927585,1.3529758 l 0,0.243854 c -5.33634,1.0518609 -3.360222,5.5191647 -4.714721,9.1429367 -0.8871704,2.373455 -3.1194351,3.833818 -2.7439554,6.554916 5.3186144,0 10.6372354,0 15.9558274,0 0.511639,-2.787459 -1.876182,-4.106522 -2.747817,-6.514957 -1.201159,-3.319749 0.81265,-8.5863779 -4.583534,-9.210323" />
  <path
     inkscape:connector-curvature="0"
     id="path2106"
     style="fill:#13aec5;fill-opacity:1;fill-rule:nonzero;stroke:none"
     d="m 8.6266366,19.09271 c 0.301303,-0.146656 0.426175,-0.508525 0.278827,-0.808301 -0.8642877,-1.758757 -0.8367385,-4.187108 1.1731314,-5.647325 0.270873,-0.196865 0.33012,-0.574822 0.132345,-0.844409 -0.197783,-0.269461 -0.5777944,-0.328458 -0.8486814,-0.131593 -1.2078169,0.877528 -1.9527044,2.102405 -2.154084,3.542264 -0.1669556,1.19404 0.04823,2.476805 0.6060098,3.611952 0.1053951,0.214377 0.321379,0.339086 0.5461077,0.339086 0.089511,0 0.1804315,-0.01883 0.2663405,-0.06151" />
  <path
     inkscape:connector-curvature="0"
     id="path2108"
     style="fill:#13aec5;fill-opacity:1;fill-rule:nonzero;stroke:none"
     d="M 8.2605639,10.216305 C 8.5314366,10.01944 8.5906816,9.6414201 8.3929089,9.3718331 8.1951268,9.1023717 7.8151149,9.0433747 7.5442258,9.2402406 5.7195918,10.565873 4.5945553,12.41503 4.2906517,14.587917 c -0.2536144,1.813318 0.074045,3.762937 0.9225866,5.489853 0.1053234,0.214356 0.321383,0.33894 0.5460455,0.33894 0.089571,0 0.1804319,-0.01883 0.2663405,-0.06151 0.3013052,-0.146653 0.4261758,-0.508501 0.2788286,-0.80836 -1.4256095,-2.901081 -1.3736441,-6.911388 1.9561076,-9.330493" />
  <path
     inkscape:connector-curvature="0"
     id="path2110"
     style="fill:#13aec5;fill-opacity:1;fill-rule:nonzero;stroke:none"
     d="M 6.2643646,8.0158656 C 6.5352676,7.8189999 6.594485,7.44098 6.3966493,7.171456 6.1989277,6.9019948 5.8189215,6.8430606 5.5479705,7.0398635 3.1169266,8.8061317 1.6180757,11.269108 1.2133152,14.162762 c -0.33872692,2.422242 0.099452,5.027523 1.2338959,7.336144 0.1053355,0.21444 0.3213171,0.339003 0.5460456,0.339003 0.089571,0 0.1804919,-0.01883 0.2663404,-0.06151 C 3.5609024,21.629746 3.685773,21.267898 3.5384258,20.968038 1.5609055,16.94361 1.6368159,11.377981 6.2643682,8.0159074" />
  <path
     inkscape:connector-curvature="0"
     id="path2112"
     style="fill:#13aec5;fill-opacity:1;fill-rule:nonzero;stroke:none"
     d="m 22.85808,11.660999 c -0.271054,-0.196866 -0.650828,-0.137869 -0.848671,0.131592 -0.197811,0.269587 -0.138378,0.647628 0.132375,0.84441 2.009879,1.460216 2.037434,3.888567 1.173124,5.647325 -0.147383,0.299775 -0.02101,0.661686 0.278858,0.8083 0.08585,0.04163 0.1768,0.06151 0.266252,0.06151 0.224527,0 0.440709,-0.124688 0.546038,-0.339086 0.557836,-1.135147 0.773028,-2.417912 0.606073,-3.611952 -0.201413,-1.439859 -0.946286,-2.664736 -2.15417,-3.542264" />
  <path
     inkscape:connector-curvature="0"
     id="path2114"
     style="fill:#13aec5;fill-opacity:1;fill-rule:nonzero;stroke:none"
     d="m 24.676179,9.2402197 c -0.270753,-0.1968659 -0.650888,-0.1378689 -0.84867,0.1315925 -0.197812,0.2695869 -0.138679,0.6476068 0.132374,0.8444718 3.329757,2.419106 3.381655,6.429412 1.956059,9.330493 -0.147384,0.299859 -0.02101,0.661749 0.278856,0.808363 0.08585,0.04163 0.176802,0.06151 0.266252,0.06151 0.224827,0 0.440708,-0.124479 0.546039,-0.338939 0.84861,-1.726917 1.176187,-3.676536 0.922572,-5.489854 -0.303892,-2.172887 -1.428928,-4.022044 -3.253572,-5.3476761" />
  <path
     inkscape:connector-curvature="0"
     id="path2116"
     style="fill:#13aec5;fill-opacity:1;fill-rule:nonzero;stroke:none"
     d="m 31.007034,14.162678 c -0.40469,-2.893653 -1.903588,-5.35663 -4.334574,-7.1228981 -0.271054,-0.1968657 -0.65092,-0.1378688 -0.8487,0.1315925 -0.197812,0.269524 -0.138379,0.6476275 0.132373,0.8444095 4.627512,3.3620101 4.703424,8.9277021 2.725903,12.9521311 -0.147382,0.299859 -0.02101,0.66177 0.27886,0.808363 0.08585,0.04184 0.176799,0.06151 0.26625,0.06151 0.224527,0 0.440709,-0.124479 0.546039,-0.339002 1.134432,-2.308622 1.572617,-4.913902 1.233819,-7.336144" />
</svg>
