<?xml version="1.0" encoding="utf-8"?>
<!-- Generator: Adobe Illustrator 24.0.1, SVG Export Plug-In . SVG Version: 6.00 Build 0)  -->
<svg version="1.1" id="Layer_1" xmlns="http://www.w3.org/2000/svg" xmlns:xlink="http://www.w3.org/1999/xlink" x="0px" y="0px"
	 viewBox="0 0 1080 787" style="enable-background:new 0 0 1080 787;" xml:space="preserve">
<style type="text/css">
	.st0{fill-rule:evenodd;clip-rule:evenodd;fill:#F2F3FA;}
	.st1{fill-rule:evenodd;clip-rule:evenodd;fill:url(#SVGID_1_);}
	.st2{fill-rule:evenodd;clip-rule:evenodd;fill:#9C226A;}
	.st3{fill-rule:evenodd;clip-rule:evenodd;fill:url(#SVGID_2_);fill-opacity:0.9;}
	.st4{fill-rule:evenodd;clip-rule:evenodd;fill:url(#SVGID_3_);fill-opacity:0.84;}
</style>
<path class="st0" d="M1080,80.8v671H0.2V115.2c0,0,0.7-0.5,2-1.3c0.1-0.1,0.3-0.2,0.4-0.3c3.7-2.4,11.7-7.3,23.4-13.6
	c0.7-0.4,1.4-0.8,2.2-1.2c79.3-42.5,315.6-143.6,555.1,1.2c0,0,7.2,5.6,20.1,14c1.4,0.9,2.9,1.9,4.5,2.9c7,4.5,15.5,9.6,25.1,15.1
	c4.8,2.7,9.8,5.4,15.2,8.2c74.3,38.9,201.6,83.9,324.1,25.1c12.4-6,24.8-13,37-21.2C1033.3,128,1057.1,107.2,1080,80.8z"/>
<linearGradient id="SVGID_1_" gradientUnits="userSpaceOnUse" x1="587.0352" y1="810.6381" x2="486.8755" y2="40.6708">
	<stop  offset="0" style="stop-color:#732A85"/>
	<stop  offset="1" style="stop-color:#AA2369"/>
</linearGradient>
<path class="st1" d="M1080,111.1V787H0V182.8c-0.7-0.8-1.3-1.5-2-2.3c-0.7-0.8-1.3-1.6-2-2.4v-27.9c0,0,0.7-0.5,2-1.3
	c0.5-0.4,1.2-0.8,2-1.3c0,0,0.1-0.1,0.2-0.1C4.7,144.9,12.7,140,24,134c0.4-0.2,0.8-0.4,1.2-0.7c7.6-4.1,16.7-8.6,27-13.5
	c98.2-46,311.2-115.1,526.9,15.3c0,0,7.2,5.6,20.1,14c0.3,0.2,0.6,0.4,0.9,0.6c1.1,0.8,2.3,1.5,3.6,2.3c0.2,0.1,0.5,0.3,0.7,0.4
	c0.7,0.5,1.5,0.9,2.2,1.4c5.7,3.6,12.2,7.5,19.4,11.6c76.8,43.9,235.6,110,379.1,13.8c0.3-0.2,0.5-0.3,0.8-0.5
	C1031.2,161.7,1056.1,139.5,1080,111.1z"/>
<path class="st2" d="M1080,710.4V753H0V77.2c8.6,8.1,17.2,15.7,26,22.9c8.6,7,17.4,13.6,26.2,19.9
	c162.5,114.6,357.4,95.9,477.3,61.9c3.7-1,7.3-2.1,10.9-3.2c26.8-8.1,49.3-16.8,66.3-24.7c4.3-2,8.2-3.9,11.8-5.8c0,0,0,0,0,0
	c0.4-0.2,0.7-0.3,1-0.3c3.1-0.2,5.2,6.7,6.5,17.7c5.1,41.1,0,139.4,0,139.4c163.6-79.1,308.5,51.8,438.4,69.9L1080,710.4z"/>
<linearGradient id="SVGID_2_" gradientUnits="userSpaceOnUse" x1="484.8773" y1="813.9225" x2="593.4767" y2="95.122">
	<stop  offset="0" style="stop-color:#732A85"/>
	<stop  offset="1" style="stop-color:#AA2369"/>
</linearGradient>
<path class="st3" d="M1080,68.3V787H0V111.2c0.9,0.8,1.7,1.6,2.6,2.4c7.5,7,15,13.6,22.6,19.8c0.3,0.2,0.5,0.4,0.8,0.7
	c174.2,142.1,383.7,94.8,503.4,47.8c29.7-11.7,53.9-23.3,70.6-32c0.4-0.2,0.7-0.4,1.1-0.6c16.1-8.4,25-14,25-14
	c2.3-1.1,4.5-2.2,6.7-3.2C793.4,56.4,952.3,50.8,1080,68.3z"/>
<linearGradient id="SVGID_3_" gradientUnits="userSpaceOnUse" x1="20.0543" y1="396.1694" x2="1075.5103" y2="563.3365">
	<stop  offset="0" style="stop-color:#AA2369"/>
	<stop  offset="1" style="stop-color:#732A85"/>
</linearGradient>
<path class="st4" d="M1080,217.3V787H0V182.8c0,0.1,0.1,0.1,0.2,0.2c210.4,242.2,496.8,19.3,496.8,19.3
	c14.5-8.8,28.9-16.6,43.4-23.6c21.5-10.5,42.9-19.1,64-26.1c0.4-0.1,0.9-0.3,1.3-0.4c4.2-1.4,8.4-2.7,12.7-4
	c0.4-0.1,0.7-0.2,1.1-0.3c9.6-2.9,19.2-5.4,28.7-7.6c127.6-29.7,244.3-4.3,324.1,25.1c12.1,4.4,23.3,9,33.6,13.4
	c0.4,0.2,0.8,0.3,1.2,0.5C1053,199.3,1080,217.3,1080,217.3z"/>
<path class="st2" d="M0,147.8v35.1c-0.7-0.8-1.3-1.5-2-2.3c-0.7-0.8-1.3-1.6-2-2.4v-27.9c0,0,0.7-0.5,2-1.3
	C-1.5,148.7-0.8,148.2,0,147.8z"/>
</svg>
