<svg xmlns="http://www.w3.org/2000/svg" viewBox="0 0 57 57"><defs><style>.cls-1{fill:#a2a5c6;}</style></defs><title>Dashboard</title><g id="Layer_2" data-name="Layer 2"><g id="Layer_2-2" data-name="Layer 2"><path class="cls-1" d="M55.76,0H1.24A1.23,1.23,0,0,0,0,1.24V55.76A1.23,1.23,0,0,0,1.24,57H55.76A1.23,1.23,0,0,0,57,55.76V1.24A1.23,1.23,0,0,0,55.76,0ZM2.48,2.48H14.87V9.91H2.48Zm52,52h-52V12.39h52Zm0-44.61H17.35V2.48H54.52Z"/><path class="cls-1" d="M8.67,34.7H48.33a1.25,1.25,0,0,0,1.24-1.24V18.59a1.24,1.24,0,0,0-1.24-1.24H8.67a1.24,1.24,0,0,0-1.24,1.24V33.46A1.25,1.25,0,0,0,8.67,34.7ZM9.91,19.83H47.09V32.22H9.91Z"/><path class="cls-1" d="M8.67,49.57H48.33a1.24,1.24,0,1,0,0-2.48H8.67a1.24,1.24,0,1,0,0,2.48Z"/><path class="cls-1" d="M8.67,42.13H48.33a1.24,1.24,0,0,0,0-2.48H8.67a1.24,1.24,0,1,0,0,2.48Z"/></g></g></svg>