<svg xmlns="http://www.w3.org/2000/svg" viewBox="0 0 52.67 48.84"><defs><style>.cls-1{fill:#a2a5c6;}.cls-2{fill:#5a4fef;}</style></defs><title>Notification</title><g id="Layer_2" data-name="Layer 2"><g id="Layer_2-2" data-name="Layer 2"><path class="cls-1" d="M46.92,41.33a9.28,9.28,0,0,0-6.76-8.82V21.2A16.73,16.73,0,0,0,28.76,5.36V5.29a5.29,5.29,0,0,0-10.58,0v.07A16.72,16.72,0,0,0,6.77,21.2V32.51A9.28,9.28,0,0,0,0,41.33v1.51H15.1a8.82,8.82,0,0,0,16.71,0H46.93ZM23.47,3a2.3,2.3,0,0,1,2.2,1.65,16.21,16.21,0,0,0-4.4,0A2.29,2.29,0,0,1,23.47,3Zm0,42.84a5.83,5.83,0,0,1-5.09-3H28.54A5.79,5.79,0,0,1,23.45,45.84Zm-20.24-6a6.23,6.23,0,0,1,5.18-4.61h4.06v-3H9.77v-11a13.7,13.7,0,1,1,27.39,0v11H17.22v3H38.54a6.23,6.23,0,0,1,5.19,4.61Z"/><circle class="cls-2" cx="39.17" cy="16.64" r="13.5"/></g></g></svg>