<svg xmlns="http://www.w3.org/2000/svg" xmlns:xlink="http://www.w3.org/1999/xlink" viewBox="0 0 51 51"><defs><style>.cls-1{fill:url(#linear-gradient);}</style><linearGradient id="linear-gradient" x1="35.14" y1="-10.64" x2="4.42" y2="104.47" gradientUnits="userSpaceOnUse"><stop offset="0" stop-color="#962e92"/><stop offset="0.26" stop-color="#ca1a72"/><stop offset="0.52" stop-color="#ed1f2e"/><stop offset="0.77" stop-color="#f26322"/><stop offset="1" stop-color="#faa31a"/></linearGradient></defs><title>Settings_Highlight</title><g id="Layer_2" data-name="Layer 2"><g id="Layer_2-2" data-name="Layer 2"><path class="cls-1" d="M29.75,51h-8.5L19.9,43.6a17.88,17.88,0,0,1-3.42-1.43l-6.15,4.28-6-6L8.72,34.4A18.43,18.43,0,0,1,7.3,31L0,29.76V21.24L7.3,20a19.48,19.48,0,0,1,1.43-3.41L4.56,10.42l6-6L16.6,8.82A18.43,18.43,0,0,1,20,7.4L21.23,0h8.54L31,7.4a18.37,18.37,0,0,1,3.4,1.43l6.15-4.28,6,6-4.37,6.13A16.9,16.9,0,0,1,43.6,20L51,21.23v8.52l-7.34,1.36a21.24,21.24,0,0,1-1.38,3.3l4.38,6.15-6,6-6.15-4.38A18.69,18.69,0,0,1,31.1,43.6Zm-6-3h3.5l1.25-6.83,1-.23a15.38,15.38,0,0,0,4.37-1.83l.84-.5,5.67,4,2.4-2.4-4-5.67.5-.84a18.14,18.14,0,0,0,1.85-4.35l.26-.89L48,27.25V23.77l-6.83-1.16-.23-1a14,14,0,0,0-1.8-4.23l-.55-.85,4-5.7L40.23,8.45l-5.67,3.94-.83-.5a15.38,15.38,0,0,0-4.37-1.83l-1-.23L27.23,3H23.77L22.61,9.83l-1,.23a15.38,15.38,0,0,0-4.37,1.83l-.85.51-5.56-4L8.44,10.79l3.84,5.66-.49.82A15.38,15.38,0,0,0,10,21.64l-.23,1L3,23.76v3.48l6.73,1.15.23,1a15.38,15.38,0,0,0,1.83,4.37l.51.85-4,5.56,2.41,2.41,5.67-3.93.83.49a15.38,15.38,0,0,0,4.37,1.83l1,.23ZM25.5,35A9.5,9.5,0,1,1,35,25.5,9.51,9.51,0,0,1,25.5,35Zm0-16A6.5,6.5,0,1,0,32,25.5,6.51,6.51,0,0,0,25.5,19Z"/></g></g></svg>