<svg xmlns="http://www.w3.org/2000/svg" viewBox="0 0 33 33"><defs><style>.cls-1{fill:#fff;stroke:#fff;stroke-miterlimit:10;stroke-width:2px;}</style></defs><title>Time</title><g id="Layer_2" data-name="Layer 2"><g id="Layer_2-2" data-name="Layer 2"><path class="cls-1" d="M16.5,1A15.5,15.5,0,1,0,32,16.5,15.57,15.57,0,0,0,16.5,1Zm0,29.93A14.43,14.43,0,1,1,30.93,16.5,14.46,14.46,0,0,1,16.5,30.93Z"/><path class="cls-1" d="M17,14.47V9.23a.51.51,0,0,0-1,0v5.24a1.94,1.94,0,0,0-1.46,1.47H10.86a.51.51,0,0,0,0,1h3.67a2,2,0,0,0,2,1.52,2.08,2.08,0,0,0,2.09-2.08A2,2,0,0,0,17,14.47Zm-.51,3a1,1,0,1,1,1-1A1,1,0,0,1,16.5,17.46Z"/><path class="cls-1" d="M16.5,6.13A.51.51,0,0,0,17,5.62V5.06a.51.51,0,0,0-1,0v.51A.53.53,0,0,0,16.5,6.13Z"/><path class="cls-1" d="M16.5,26.76a.51.51,0,0,0-.51.51v.5a.51.51,0,0,0,1,0v-.5A.51.51,0,0,0,16.5,26.76Z"/><path class="cls-1" d="M27.83,15.94h-.51a.51.51,0,1,0,0,1h.51a.51.51,0,0,0,.51-.51A.47.47,0,0,0,27.83,15.94Z"/><path class="cls-1" d="M5.68,15.94H5.17a.51.51,0,1,0,0,1h.51a.51.51,0,1,0,0-1Z"/><path class="cls-1" d="M24.17,8.05l-.34.33a.54.54,0,0,0,.34.91.39.39,0,0,0,.33-.17l.34-.34a.47.47,0,0,0,0-.73A.41.41,0,0,0,24.17,8.05Z"/><path class="cls-1" d="M8.5,23.71l-.34.34a.48.48,0,0,0,0,.74A.47.47,0,0,0,8.5,25a.38.38,0,0,0,.33-.16l.34-.34a.48.48,0,0,0,0-.74A.53.53,0,0,0,8.5,23.71Z"/><path class="cls-1" d="M24.5,23.71a.49.49,0,0,0-.73,0,.5.5,0,0,0,0,.74l.34.34a.48.48,0,0,0,.39.16.39.39,0,0,0,.34-.16.48.48,0,0,0,0-.74Z"/><path class="cls-1" d="M8.83,8.05a.47.47,0,0,0-.73,0,.49.49,0,0,0,0,.73l.34.34a.5.5,0,0,0,.34.17.42.42,0,0,0,.34-.17.5.5,0,0,0,0-.74Z"/></g></g></svg>