<svg xmlns="http://www.w3.org/2000/svg" width="24" height="30" viewBox="0 0 24 30">
  <defs>
    <style>
      .cls-1 {
        fill: #05a608;
        fill-rule: evenodd;
      }
    </style>
  </defs>
  <path id="Trend_Up" class="cls-1" d="M389.845,1404.76l9.392,9.29a2.561,2.561,0,0,1,0,3.65,2.624,2.624,0,0,1-3.689,0l-4.939-4.88v18.6a2.609,2.609,0,0,1-5.217,0v-18.6l-4.938,4.88a2.626,2.626,0,0,1-3.69,0,2.543,2.543,0,0,1-.764-1.82,2.583,2.583,0,0,1,.764-1.83l9.392-9.29A2.624,2.624,0,0,1,389.845,1404.76Z" transform="translate(-376 -1404)"/>
</svg>
