<svg xmlns="http://www.w3.org/2000/svg" xmlns:xlink="http://www.w3.org/1999/xlink" viewBox="0 0 26.46 58"><defs><style>.cls-1{fill:url(#linear-gradient);}.cls-2{fill:url(#linear-gradient-2);}.cls-3{fill:url(#linear-gradient-3);}</style><linearGradient id="linear-gradient" x1="11.85" y1="-5.52" x2="18.57" y2="96.9" gradientUnits="userSpaceOnUse"><stop offset="0" stop-color="#962e92"/><stop offset="0.26" stop-color="#ca1a72"/><stop offset="0.52" stop-color="#ed1f2e"/><stop offset="0.77" stop-color="#f26322"/><stop offset="1" stop-color="#faa31a"/></linearGradient><linearGradient id="linear-gradient-2" x1="11.26" y1="-5.48" x2="17.99" y2="96.94" xlink:href="#linear-gradient"/><linearGradient id="linear-gradient-3" x1="9.6" y1="-5.37" x2="16.33" y2="97.05" xlink:href="#linear-gradient"/></defs><title>Voice_Highlight</title><g id="Layer_2" data-name="Layer 2"><g id="Layer_2-2" data-name="Layer 2"><path class="cls-1" d="M5,23V14.61a1.68,1.68,0,1,1,3.36,0V23a4.86,4.86,0,0,0,4.86,4.85h.13A4.86,4.86,0,0,0,18.16,23V8.22A4.86,4.86,0,0,0,13.3,3.37h-.13A4.86,4.86,0,0,0,8.31,8.22,1.68,1.68,0,0,1,5,8.22,8.23,8.23,0,0,1,13.17,0h.13a8.23,8.23,0,0,1,8.22,8.22V23a8.23,8.23,0,0,1-8.22,8.22h-.13A8.23,8.23,0,0,1,5,23Z"/><path class="cls-2" d="M26.46,24.29A13.13,13.13,0,0,1,13.35,37.41h-.23A13.13,13.13,0,0,1,0,24.29a1.69,1.69,0,0,1,3.37,0A9.76,9.76,0,0,0,13.12,34h.23a9.76,9.76,0,0,0,9.75-9.75,1.68,1.68,0,0,1,3.36,0Z"/><path class="cls-3" d="M14.8,40V56.32a1.68,1.68,0,0,1-3.36,0V40a1.68,1.68,0,0,1,3.36,0Z"/></g></g></svg>