<?xml version="1.0" encoding="utf-8"?>
<!-- Generator: Adobe Illustrator 23.0.3, SVG Export Plug-In . SVG Version: 6.00 Build 0)  -->
<svg version="1.1" id="Layer_1" xmlns="http://www.w3.org/2000/svg" xmlns:xlink="http://www.w3.org/1999/xlink" x="0px" y="0px"
	 viewBox="0 0 608.5 342.3" style="enable-background:new 0 0 608.5 342.3;" xml:space="preserve">
<style type="text/css">
	.st0{fill:url(#SVGID_1_);}
	.st1{fill:url(#SVGID_2_);}
</style>
<linearGradient id="SVGID_1_" gradientUnits="userSpaceOnUse" x1="9.676" y1="175.8229" x2="118.9027" y2="175.8229">
	<stop  offset="0" style="stop-color:#9E0FA1"/>
	<stop  offset="0.2574" style="stop-color:#CB0571"/>
	<stop  offset="0.5178" style="stop-color:#FF0026"/>
	<stop  offset="0.7665" style="stop-color:#FF6000"/>
	<stop  offset="1" style="stop-color:#FFA400"/>
</linearGradient>
<path class="st0" d="M64.4,132.3l-17.5-17.5h4.7l12.7,12.7l12.7-12.7h4.7L64.4,132.3z M9.7,159.3v4.7l54.7,56l54.5-55.9v-4.7
	l-54.5,55.9L9.7,159.3z M9.7,124.1v4.7l54.7,56l54.5-55.9v-4.7l-54.5,55.9L9.7,124.1z M16.5,114.9h-4.7l52.6,52.7l52.7-52.7h-4.7
	l-47.9,47.9L16.5,114.9z M9.7,141.7v4.7l54.7,56l54.5-55.9v-4.7l-54.5,55.9L9.7,141.7z M64.4,145.2l-30.3-30.3h-4.7l35.1,35.1
	l35.1-35.1h-4.7L64.4,145.2z M9.7,176.9v3.8l54.7,56l54.5-55.9v-3.8L64.4,233L9.7,176.9z"/>
<linearGradient id="SVGID_2_" gradientUnits="userSpaceOnUse" x1="189.4789" y1="163.2697" x2="598.6387" y2="163.2697">
	<stop  offset="0" style="stop-color:#9E0FA1"/>
	<stop  offset="0.2574" style="stop-color:#CB0571"/>
	<stop  offset="0.5178" style="stop-color:#FF0026"/>
	<stop  offset="0.7665" style="stop-color:#FF6000"/>
	<stop  offset="1" style="stop-color:#FFA400"/>
</linearGradient>
<path class="st1" d="M246.7,218.6h-25.6l-31.6-87.4h25l16.1,54.5c1.9,6.7,3.2,14.1,3.2,14.1h0.3c0,0,1.3-7.5,3.2-14.1l16-54.5h24.8
	L246.7,218.6z M327.4,220.6c-24.1,0-36.8-9.7-36.8-32.4v-56.9h22v57.4c0,9.4,5,13.8,14.8,13.8c5.7,0,10.4-1,12.8-1.9v-69.2h22v83
	C354.7,218,341,220.6,327.4,220.6z M439.6,218.6V159c0-13-8-21.4-23.8-21.4c-8.8,0-16.4,1.6-21.2,3.6v77.5H385v-83
	c7.9-3.6,18.8-6,30.8-6c21.7,0,33.4,10.9,33.4,28.9v60.1H439.6z M541.9,171l-61.3,9.1c1.3,21.4,13.3,32.3,31.8,32.3
	c8.8,0,18.2-2.3,23.7-5.5l3.2,7.5c-5.8,3.4-16.2,6-27.2,6c-25,0-40.7-15.7-40.7-45.4c0-26.9,14.1-45.2,37-45.2
	c20.2,0,33.7,13.1,33.7,36.1C542,167.4,542,169,541.9,171z M508.3,137.3c-17.2,0-27.7,14.1-28.2,35.5l52.7-7.6
	C532.6,146.2,522.9,137.3,508.3,137.3z M591.8,219.4c-13,0-22.2-7.1-22.2-21.9v-59H556v-7.3h13.6v-21.7l9.2-3.6v25.3h19.8v7.3h-19.8
	v58.7c0,9.7,6.7,13.8,14.4,13.8c1.9,0,4-0.3,5.4-0.8v8.3C597.2,219.1,594.9,219.4,591.8,219.4z"/>
</svg>
