<?xml version="1.0" encoding="utf-8"?>
<!-- Generator: Adobe Illustrator 23.0.6, SVG Export Plug-In . SVG Version: 6.00 Build 0)  -->
<svg version="1.1" id="Layer_1" xmlns="http://www.w3.org/2000/svg" xmlns:xlink="http://www.w3.org/1999/xlink" x="0px" y="0px"
	 viewBox="0 0 480 480" style="enable-background:new 0 0 480 480;" xml:space="preserve">
<style type="text/css">
	.st0{fill:#2FBADB;}
	.st1{fill:#957856;}
	.st2{fill:#00479B;}
	.st3{fill:#FF3051;}
	.st4{fill:#FFB531;}
	.st5{fill:#0093BA;}
</style>
<path class="st0" d="M64,8h352c17.7,0,32,14.3,32,32v400c0,17.7-14.3,32-32,32H64c-17.7,0-32-14.3-32-32V40C32,22.3,46.3,8,64,8z"/>
<path class="st1" d="M256,200c0,8.8-7.2,16-16,16s-16-7.2-16-16s7.2-16,16-16S256,191.2,256,200z"/>
<g>
	<path class="st2" d="M424,432c0,8.8-7.2,16-16,16s-16-7.2-16-16s7.2-16,16-16S424,423.2,424,432z"/>
	<path class="st2" d="M88,432c0,8.8-7.2,16-16,16s-16-7.2-16-16s7.2-16,16-16S88,423.2,88,432z"/>
	<path class="st2" d="M88,48c0,8.8-7.2,16-16,16s-16-7.2-16-16s7.2-16,16-16S88,39.2,88,48z"/>
	<path class="st2" d="M424,48c0,8.8-7.2,16-16,16s-16-7.2-16-16s7.2-16,16-16S424,39.2,424,48z"/>
</g>
<path class="st3" d="M184,360h32v32h-32V360z"/>
<path class="st3" d="M152,360h32v32h-32V360z"/>
<path class="st3" d="M120,360h32v32h-32V360z"/>
<path class="st3" d="M88,360h32v32H88V360z"/>
<path class="st3" d="M216,360h176v32H216V360z"/>
<path class="st4" d="M240,64c75.1,0,136,60.9,136,136s-60.9,136-136,136s-136-60.9-136-136S164.9,64,240,64z M256,200
	c0-8.8-7.2-16-16-16s-16,7.2-16,16s7.2,16,16,16C248.8,216,256,208.8,256,200z"/>
<path class="st5" d="M240,344c79.5,0,144-64.5,144-144S319.5,56,240,56S96,120.5,96,200C96.1,279.5,160.5,343.9,240,344z M240,72
	c70.7,0,128,57.3,128,128s-57.3,128-128,128s-128-57.3-128-128C112.1,129.3,169.3,72.1,240,72z"/>
<path class="st5" d="M216,200c0,13.3,10.7,24,24,24s24-10.7,24-24s-10.7-24-24-24S216,186.7,216,200z M248,200c0,4.4-3.6,8-8,8
	s-8-3.6-8-8s3.6-8,8-8S248,195.6,248,200z"/>
<path class="st5" d="M144,200c0.1-53,43-95.9,96-96V88c-61.8,0.1-111.9,50.2-112,112H144z"/>
<path class="st5" d="M240,312c61.8-0.1,111.9-50.2,112-112h-16c-0.1,53-43,95.9-96,96V312z"/>
<path class="st5" d="M416,0H64C41.9,0,24,17.9,24,40v400c0,22.1,17.9,40,40,40h352c22.1,0,40-17.9,40-40V40C456,17.9,438.1,0,416,0z
	 M440,440c0,13.3-10.7,24-24,24H64c-13.3,0-24-10.7-24-24V40c0-13.3,10.7-24,24-24h352c13.3,0,24,10.7,24,24V440z"/>
<path class="st5" d="M400,392v-32c0-4.4-3.6-8-8-8H88c-4.4,0-8,3.6-8,8v32c0,4.4,3.6,8,8,8h304C396.4,400,400,396.4,400,392z
	 M96,368h16v16H96V368z M128,368h16v16h-16V368z M160,368h16v16h-16V368z M192,384v-16h16v16H192z M384,384H224v-16h160V384z"/>
<path class="st5" d="M72,72c13.3,0,24-10.7,24-24S85.3,24,72,24S48,34.7,48,48S58.7,72,72,72z M72,40c4.4,0,8,3.6,8,8s-3.6,8-8,8
	s-8-3.6-8-8S67.6,40,72,40z"/>
<path class="st5" d="M408,24c-13.3,0-24,10.7-24,24s10.7,24,24,24s24-10.7,24-24S421.3,24,408,24z M408,56c-4.4,0-8-3.6-8-8
	s3.6-8,8-8s8,3.6,8,8S412.4,56,408,56z"/>
<path class="st5" d="M72,408c-13.3,0-24,10.7-24,24s10.7,24,24,24s24-10.7,24-24S85.3,408,72,408z M72,440c-4.4,0-8-3.6-8-8
	s3.6-8,8-8s8,3.6,8,8S76.4,440,72,440z"/>
<path class="st5" d="M408,408c-13.3,0-24,10.7-24,24s10.7,24,24,24s24-10.7,24-24S421.3,408,408,408z M408,440c-4.4,0-8-3.6-8-8
	s3.6-8,8-8s8,3.6,8,8S412.4,440,408,440z"/>
</svg>
