<?xml version="1.0" encoding="utf-8"?>
<!-- Generator: Adobe Illustrator 23.0.6, SVG Export Plug-In . SVG Version: 6.00 Build 0)  -->
<svg version="1.1" id="Layer_1" xmlns="http://www.w3.org/2000/svg" xmlns:xlink="http://www.w3.org/1999/xlink" x="0px" y="0px"
	 viewBox="0 0 512 512" style="enable-background:new 0 0 512 512;" xml:space="preserve">
<style type="text/css">
	.st0{fill:#5AC6D4;}
	.st1{fill:#0093BA;}
	.st2{fill:#FFDA2D;}
	.st3{fill:#FDBF00;}
	.st4{fill:#FFA733;}
	.st5{fill:#FFB531;}
</style>
<path class="st0" d="M196,169.6c-5.1,0-10.5,0-15.9,0.6h-0.9C80.8,179.5,0,272.9,0,377c0,120.9,112.3,135,196,135
	c83.1,0,180-12.6,193.5-111.9C403.6,283.7,311.2,169.6,196,169.6z"/>
<path class="st1" d="M389.5,400.1C376,499.4,279.1,512,196,512V169.6C311.2,169.6,403.6,283.7,389.5,400.1z"/>
<path class="st0" d="M300.1,49.8l-30,91H121.9l-30-91c-1.8-4.5-0.9-9.6,1.8-13.5c3-3.9,7.5-6.3,12.3-6.3h47.7
	c6-17.4,22.8-30,42.3-30s36,12.6,42.3,30H286c4.8,0,9.3,2.4,12.3,6.3C301,40.2,301.9,45.3,300.1,49.8z"/>
<path class="st1" d="M300.1,49.8l-30,91H196V0c19.5,0,36,12.6,42.3,30H286c4.8,0,9.3,2.4,12.3,6.3C301,40.2,301.9,45.3,300.1,49.8z"
	/>
<path class="st2" d="M240.7,381.5c0,19.5-12.3,35.7-29.7,42V437c0,8.4-6.6,15-15,15s-15-6.6-15-15v-13.2
	c-17.4-6.3-30.3-22.8-30.3-42.3c0-8.4,6.9-15,15-15c8.4,0,15,6.6,15,15c0,8.1,6.9,15,15,15h0.3c8.4-0.3,14.7-6.9,14.7-15
	c0-8.4-6.3-14.7-14.7-15h-0.3c-24.6,0-45-20.4-45-45c0-19.8,12.9-36.3,30.3-42.3V257c0-8.4,6.6-15,15-15s15,6.6,15,15v22.2
	c17.4,6.3,29.7,22.8,29.7,42.3c0,8.1-6.6,15-15,15c-8.1,0-15-6.9-15-15c0-8.4-6.3-14.7-14.7-15h-0.3c-8.1,0-15,6.6-15,15
	c0,8.1,6.9,15,15,15h0.3C220.9,336.8,240.7,356.6,240.7,381.5z"/>
<path class="st2" d="M512,302c0,16.5-13.5,30-30,30l-76,30l-75-30c-16.5,0-30-13.5-30-30s13.5-30,30-30h151
	C498.5,272,512,285.5,512,302z"/>
<path class="st3" d="M512,302c0,16.5-13.5,30-30,30l-76,30v-90h76C498.5,272,512,285.5,512,302z"/>
<path class="st3" d="M512,362c0,16.5-13.5,30-30,30l-76,30l-75-30c-16.5,0-30-13.5-30-30s13.5-30,30-30h151
	C498.5,332,512,345.5,512,362z"/>
<path class="st4" d="M512,362c0,16.5-13.5,30-30,30l-76,30v-90h76C498.5,332,512,345.5,512,362z"/>
<path class="st2" d="M512,422c0,16.5-13.5,30-30,30l-76,30l-75-30c-16.5,0-30-13.5-30-30s13.5-30,30-30h151
	C498.5,392,512,405.5,512,422z"/>
<path class="st3" d="M512,422c0,16.5-13.5,30-30,30l-76,30v-90h76C498.5,392,512,405.5,512,422z"/>
<path class="st3" d="M512,482c0,16.5-13.5,30-30,30H331c-16.5,0-30-13.5-30-30s13.5-30,30-30h151C498.5,452,512,465.5,512,482z"/>
<path class="st4" d="M512,482c0,16.5-13.5,30-30,30h-76v-60h76C498.5,452,512,465.5,512,482z"/>
<path class="st2" d="M301,151c0,16.5-13.5,30-30,30H121c-16.5,0-30-13.5-30-30s13.5-30,30-30h150C287.5,121,301,134.5,301,151z"/>
<g>
	<path class="st5" d="M240.7,381.5c0,19.5-12.3,35.7-29.7,42V437c0,8.4-6.6,15-15,15v-55.5c8.4-0.3,14.7-6.9,14.7-15
		c0-8.4-6.3-14.7-14.7-15v-30C220.9,336.8,240.7,356.6,240.7,381.5z"/>
	<path class="st5" d="M240.7,321.5c0,8.1-6.6,15-15,15c-8.1,0-15-6.9-15-15c0-8.4-6.3-14.7-14.7-15V242c8.4,0,15,6.6,15,15v22.2
		C228.4,285.5,240.7,302,240.7,321.5z"/>
	<path class="st5" d="M301,151c0,16.5-13.5,30-30,30h-75v-60h75C287.5,121,301,134.5,301,151z"/>
</g>
</svg>
