<svg xmlns="http://www.w3.org/2000/svg" viewBox="0 0 57 57"><defs><style>.cls-1{fill:#ff4e3b;}.cls-2{fill:#631e1a;}</style></defs><title>Sad</title><g id="Layer_2" data-name="Layer 2"><g id="Layer_1-2" data-name="Layer 1"><circle class="cls-1" cx="28.5" cy="28.5" r="28.5" transform="translate(-11.7 31.34) rotate(-49.05)"/><path class="cls-2" d="M28.48,27.52a16.85,16.85,0,0,1,16,11.21,1.5,1.5,0,0,1-2.83,1,13.84,13.84,0,0,0-26.1,0,1.5,1.5,0,0,1-1.91.92,1.52,1.52,0,0,1-.92-1.92A16.88,16.88,0,0,1,28.48,27.52Z"/><circle class="cls-2" cx="20.15" cy="20.67" r="3.33"/><path class="cls-2" d="M33.48,20.61a3.34,3.34,0,1,0,3.32-3.35A3.34,3.34,0,0,0,33.48,20.61Z"/></g></g></svg>