<svg xmlns="http://www.w3.org/2000/svg" viewBox="0 0 57 57"><defs><style>.cls-1{fill:#ff8f4f;}.cls-2{fill:#70341a;}</style></defs><title>Warning</title><g id="Layer_2" data-name="Layer 2"><g id="Layer_1-2" data-name="Layer 1"><circle class="cls-1" cx="28.5" cy="28.5" r="28.5"/><path class="cls-2" d="M17.21,37.5A1.51,1.51,0,0,0,18.33,37a13.76,13.76,0,0,1,20.3,0,1.53,1.53,0,0,0,1.13.51h0A1.51,1.51,0,0,0,40.91,35a16.81,16.81,0,0,0-24.84,0,1.5,1.5,0,0,0,1.14,2.5Z"/><path class="cls-2" d="M23.52,20.63a3.34,3.34,0,1,1-3.34-3.33A3.34,3.34,0,0,1,23.52,20.63Z"/><path class="cls-2" d="M33.52,20.63a3.33,3.33,0,1,0,3.33-3.33A3.34,3.34,0,0,0,33.52,20.63Z"/></g></g></svg>