<?xml version="1.0" encoding="utf-8"?>
<!-- Generator: Adobe Illustrator 23.0.6, SVG Export Plug-In . SVG Version: 6.00 Build 0)  -->
<svg version="1.1" id="Layer_1" xmlns="http://www.w3.org/2000/svg" xmlns:xlink="http://www.w3.org/1999/xlink" x="0px" y="0px"
	 viewBox="0 0 512 512" style="enable-background:new 0 0 512 512;" xml:space="preserve">
<style type="text/css">
	.st0{fill:#348FD9;}
	.st1{fill:#5AC6D4;}
	.st2{fill:#FFB531;}
	.st3{fill:#DF2A47;}
	.st4{fill:#FF3051;}
	.st5{fill:#E0E0DE;}
	.st6{fill:#19567F;}
</style>
<path class="st0" d="M104,72h304c17.7,0,32,14.3,32,32v304c0,17.7-14.3,32-32,32H104c-17.7,0-32-14.3-32-32V104
	C72,86.3,86.3,72,104,72z"/>
<path class="st1" d="M424,424H120c-17.7,0-32-14.3-32-32V88c0-4.5,1-9,2.9-13.1C79.4,80,72,91.4,72,104v304c0,17.7,14.3,32,32,32
	h304c12.6,0,24-7.4,29.1-18.9C433,423,428.5,424,424,424z"/>
<path class="st1" d="M400,184v144l-72,72H184l-72-72V184l72-72h136L400,184z"/>
<g>
	<circle class="st1" cx="392" cy="120" r="16"/>
	<circle class="st1" cx="120" cy="120" r="16"/>
	<circle class="st1" cx="392" cy="392" r="16"/>
	<circle class="st1" cx="120" cy="392" r="16"/>
</g>
<path class="st2" d="M332.3,280c-1.4,4.5-3.2,8.8-5.4,13l25.3,25.3l-33.9,33.9L293,326.9c-4.1,2.2-8.5,4-13,5.4V368h-48v-35.7
	c-4.5-1.4-8.8-3.2-13-5.4l-25.3,25.3l-33.9-33.9l25.3-25.3c-2.2-4.1-4-8.5-5.4-13H144v-48h35.7c1.4-4.5,3.2-8.8,5.4-13l-25.3-25.3
	l33.9-33.9l25.3,25.3c4.1-2.2,8.5-4,13-5.4V144h48v35.7c4.5,1.4,8.8,3.2,13,5.4l25.3-25.3l33.9,33.9L326.9,219c2.2,4.1,4,8.5,5.4,13
	H368v48H332.3z"/>
<circle class="st3" cx="256" cy="256" r="40"/>
<circle class="st4" cx="256" cy="256" r="24"/>
<path class="st5" d="M488,200c4.4,0,8-3.6,8-8s-3.6-8-8-8h-40v-48h40c4.4,0,8-3.6,8-8c0-4.4-3.6-8-8-8h-40v-16c0-22.1-17.9-40-40-40
	h-16V24c0-4.4-3.6-8-8-8s-8,3.6-8,8v40h-48V24c0-4.4-3.6-8-8-8s-8,3.6-8,8v40h-48V24c0-4.4-3.6-8-8-8s-8,3.6-8,8v40h-48V24
	c0-4.4-3.6-8-8-8s-8,3.6-8,8v40h-48V24c0-4.4-3.6-8-8-8c-4.4,0-8,3.6-8,8v40h-16c-22.1,0-40,17.9-40,40v16H24c-4.4,0-8,3.6-8,8
	c0,4.4,3.6,8,8,8h40v48H24c-4.4,0-8,3.6-8,8s3.6,8,8,8h40v48H24c-4.4,0-8,3.6-8,8s3.6,8,8,8h40v48H24c-4.4,0-8,3.6-8,8s3.6,8,8,8h40
	v48H24c-4.4,0-8,3.6-8,8s3.6,8,8,8h40v16c0,22.1,17.9,40,40,40h16v40c0,4.4,3.6,8,8,8c4.4,0,8-3.6,8-8v-40h48v40c0,4.4,3.6,8,8,8
	s8-3.6,8-8v-40h48v40c0,4.4,3.6,8,8,8s8-3.6,8-8v-40h48v40c0,4.4,3.6,8,8,8s8-3.6,8-8v-40h48v40c0,4.4,3.6,8,8,8s8-3.6,8-8v-40h16
	c22.1,0,40-17.9,40-40v-16h40c4.4,0,8-3.6,8-8s-3.6-8-8-8h-40v-48h40c4.4,0,8-3.6,8-8s-3.6-8-8-8h-40v-48h40c4.4,0,8-3.6,8-8
	s-3.6-8-8-8h-40v-48H488z M432,408c0,13.3-10.7,24-24,24H104c-13.3,0-24-10.7-24-24V104c0-13.3,10.7-24,24-24h304
	c13.3,0,24,10.7,24,24V408z"/>
<path class="st6" d="M408,328V184c0-2.3-1-4.4-2.6-5.9l-80-72c-1.5-1.3-3.4-2.1-5.4-2.1H184c-2.1,0-4.2,0.8-5.7,2.3l-72,72
	c-1.5,1.5-2.3,3.5-2.3,5.7v144c0,2.1,0.8,4.2,2.3,5.7l72,72c1.5,1.5,3.5,2.3,5.7,2.3h144c2.1,0,4.2-0.8,5.7-2.3l72-72
	C407.2,332.2,408,330.1,408,328z M392,324.7L324.7,392H187.3L120,324.7V187.3l67.3-67.3h129.6l75.1,67.6V324.7z"/>
<path class="st6" d="M392,96c-13.3,0-24,10.7-24,24s10.7,24,24,24s24-10.7,24-24S405.3,96,392,96z M392,128c-4.4,0-8-3.6-8-8
	s3.6-8,8-8s8,3.6,8,8S396.4,128,392,128z"/>
<path class="st6" d="M120,144c13.3,0,24-10.7,24-24s-10.7-24-24-24s-24,10.7-24,24S106.7,144,120,144z M120,112c4.4,0,8,3.6,8,8
	s-3.6,8-8,8s-8-3.6-8-8S115.6,112,120,112z"/>
<path class="st6" d="M392,368c-13.3,0-24,10.7-24,24s10.7,24,24,24s24-10.7,24-24S405.3,368,392,368z M392,400c-4.4,0-8-3.6-8-8
	s3.6-8,8-8s8,3.6,8,8S396.4,400,392,400z"/>
<path class="st6" d="M120,368c-13.3,0-24,10.7-24,24s10.7,24,24,24s24-10.7,24-24S133.3,368,120,368z M120,400c-4.4,0-8-3.6-8-8
	s3.6-8,8-8s8,3.6,8,8S124.4,400,120,400z"/>
<path class="st6" d="M256,208c-26.5,0-48,21.5-48,48s21.5,48,48,48s48-21.5,48-48C304,229.5,282.5,208,256,208z M256,288
	c-17.7,0-32-14.3-32-32s14.3-32,32-32s32,14.3,32,32S273.7,288,256,288z"/>
<path class="st6" d="M291.4,175.4c-1.1-0.5-2.2-0.9-3.4-1.4v-30c0-4.4-3.6-8-8-8h-48c-4.4,0-8,3.6-8,8v30c-1.2,0.5-2.3,0.9-3.4,1.4
	l-21.2-21.2c-3.1-3.1-8.2-3.1-11.3,0l-33.9,33.9c-3.1,3.1-3.1,8.2,0,11.3l21.2,21.2c-0.5,1.1-0.9,2.2-1.4,3.4h-30c-4.4,0-8,3.6-8,8
	v48c0,4.4,3.6,8,8,8h30c0.5,1.2,0.9,2.3,1.4,3.4l-21.2,21.2c-3.1,3.1-3.1,8.2,0,11.3l33.9,33.9c3.1,3.1,8.2,3.1,11.3,0l21.2-21.2
	c1.1,0.5,2.2,0.9,3.4,1.4v30c0,4.4,3.6,8,8,8h48c4.4,0,8-3.6,8-8v-30c1.2-0.5,2.3-0.9,3.4-1.4l21.2,21.2c3.2,3,8.1,3,11.3,0
	l33.9-33.9c3.1-3.1,3.1-8.2,0-11.3l-21.2-21.2c0.5-1.1,0.9-2.2,1.4-3.3h30c4.4,0,8-3.6,8-8v-48c0-4.4-3.6-8-8-8h-30
	c-0.5-1.2-0.9-2.3-1.4-3.4l21.2-21.2c3.1-3.1,3.1-8.2,0-11.3l-33.9-33.9c-3.1-3.1-8.2-3.1-11.3,0L291.4,175.4z M340.8,193.8
	l-19.6,19.6c-2.5,2.5-3.1,6.4-1.4,9.5c2,3.7,3.6,7.6,4.8,11.6c1.1,3.3,4.1,5.6,7.6,5.6H360v32h-27.7c-3.5,0-6.6,2.2-7.6,5.6
	c-1.2,4-2.9,7.9-4.8,11.6c-1.7,3.1-1.2,7,1.4,9.5l19.6,19.6l-22.6,22.6l-19.6-19.6c-2.5-2.5-6.4-3.1-9.5-1.4
	c-3.7,2-7.6,3.6-11.6,4.8c-3.3,1.1-5.5,4.1-5.5,7.6V360h-32v-27.7c0-3.5-2.2-6.6-5.6-7.6c-4-1.2-7.9-2.9-11.6-4.8
	c-3.1-1.7-7-1.2-9.5,1.4l-19.6,19.6l-22.6-22.6l19.6-19.6c2.5-2.5,3.1-6.4,1.4-9.5c-2-3.7-3.6-7.6-4.8-11.6
	c-1.1-3.3-4.1-5.6-7.6-5.6H152v-32h27.7c3.5,0,6.6-2.2,7.6-5.6c1.2-4,2.9-7.9,4.8-11.6c1.7-3.1,1.2-7-1.4-9.5l-19.6-19.6l22.6-22.6
	l19.6,19.6c2.5,2.5,6.4,3.1,9.5,1.4c3.7-2,7.6-3.6,11.6-4.8c3.3-1.1,5.6-4.1,5.6-7.6V152h32v27.7c0,3.5,2.2,6.5,5.5,7.6
	c4,1.2,7.9,2.9,11.6,4.8c3.1,1.7,7,1.2,9.5-1.4l19.6-19.6L340.8,193.8z"/>
</svg>
