<?xml version="1.0" encoding="utf-8"?>
<!-- Generator: Adobe Illustrator 23.0.3, SVG Export Plug-In . SVG Version: 6.00 Build 0)  -->
<svg version="1.1" id="Capa_1" xmlns="http://www.w3.org/2000/svg" xmlns:xlink="http://www.w3.org/1999/xlink" x="0px" y="0px"
	 viewBox="0 0 60 60" style="enable-background:new 0 0 60 60;" xml:space="preserve">
<style type="text/css">
	.st0{fill:#5A4FEF;}
</style>
<path d="M28,8H18c-0.5,0-1,0.5-1,1s0.5,1,1,1h10c0.5,0,1-0.5,1-1S28.5,8,28,8z M42,22H18c-0.5,0-1,0.5-1,1s0.5,1,1,1h24
	c0.5,0,1-0.5,1-1S42.5,22,42,22z M42,15H18c-0.5,0-1,0.5-1,1s0.5,1,1,1h24c0.5,0,1-0.5,1-1S42.5,15,42,15z M42,15H18
	c-0.5,0-1,0.5-1,1s0.5,1,1,1h24c0.5,0,1-0.5,1-1S42.5,15,42,15z M42,22H18c-0.5,0-1,0.5-1,1s0.5,1,1,1h24c0.5,0,1-0.5,1-1
	S42.5,22,42,22z M28,8H18c-0.5,0-1,0.5-1,1s0.5,1,1,1h10c0.5,0,1-0.5,1-1S28.5,8,28,8z M28,8H18c-0.5,0-1,0.5-1,1s0.5,1,1,1h10
	c0.5,0,1-0.5,1-1S28.5,8,28,8z M42,22H18c-0.5,0-1,0.5-1,1s0.5,1,1,1h24c0.5,0,1-0.5,1-1S42.5,22,42,22z M42,15H18c-0.5,0-1,0.5-1,1
	s0.5,1,1,1h24c0.5,0,1-0.5,1-1S42.5,15,42,15z M18,17h24c0.5,0,1-0.5,1-1s-0.5-1-1-1H18c-0.5,0-1,0.5-1,1S17.5,17,18,17z M42,22H18
	c-0.5,0-1,0.5-1,1s0.5,1,1,1h24c0.5,0,1-0.5,1-1S42.5,22,42,22z M18,10h10c0.5,0,1-0.5,1-1s-0.5-1-1-1H18c-0.5,0-1,0.5-1,1
	S17.5,10,18,10z M57.5,27H54v-6.3c0-1.5-1.2-2.7-2.7-2.7H50V0H10v2H7v2H4v7H2.7C1.2,11,0,12.2,0,13.7v43.7h0C0,58,0.2,58.5,0.5,59
	c0.5,0.6,1.2,1,2,1h44.8c1.2,0,2.2-0.8,2.5-1.8l10.2-28V30C60,28.3,58.9,27,57.5,27z M50,20h1.3c0.4,0,0.7,0.3,0.7,0.7V27h-2V20z
	 M12,2h36v25H12.7c-0.2,0-0.5,0-0.7,0.1c0,0,0,0-0.1,0V2z M9,4h1v25.6l-0.1,0.2L9,32.3V4z M6,6h1v31.8l-1,2.7V6z M2,13.7
	C2,13.3,2.3,13,2.7,13H4v32.9l-2,5.5V13.7z M47.9,57.6c-0.1,0.3-0.3,0.4-0.5,0.4H2.6c-0.3,0-0.4-0.1-0.5-0.2C2,57.7,2,57.5,2,57.4
	l2-5.5l3-8.2l3-8.2l1.9-5.3l0.1-0.2l0.2-0.4l0-0.1c0.1-0.3,0.3-0.4,0.5-0.4h44.8c0.4,0,0.5,0.5,0.5,0.8L47.9,57.6z M18,17h24
	c0.5,0,1-0.5,1-1s-0.5-1-1-1H18c-0.5,0-1,0.5-1,1S17.5,17,18,17z M18,24h24c0.5,0,1-0.5,1-1s-0.5-1-1-1H18c-0.5,0-1,0.5-1,1
	S17.5,24,18,24z M18,10h10c0.5,0,1-0.5,1-1s-0.5-1-1-1H18c-0.5,0-1,0.5-1,1S17.5,10,18,10z M28,8H18c-0.5,0-1,0.5-1,1s0.5,1,1,1h10
	c0.5,0,1-0.5,1-1S28.5,8,28,8z M42,22H18c-0.5,0-1,0.5-1,1s0.5,1,1,1h24c0.5,0,1-0.5,1-1S42.5,22,42,22z M42,15H18c-0.5,0-1,0.5-1,1
	s0.5,1,1,1h24c0.5,0,1-0.5,1-1S42.5,15,42,15z M42,15H18c-0.5,0-1,0.5-1,1s0.5,1,1,1h24c0.5,0,1-0.5,1-1S42.5,15,42,15z M42,22H18
	c-0.5,0-1,0.5-1,1s0.5,1,1,1h24c0.5,0,1-0.5,1-1S42.5,22,42,22z M28,8H18c-0.5,0-1,0.5-1,1s0.5,1,1,1h10c0.5,0,1-0.5,1-1
	S28.5,8,28,8z M28,8H18c-0.5,0-1,0.5-1,1s0.5,1,1,1h10c0.5,0,1-0.5,1-1S28.5,8,28,8z M42,22H18c-0.5,0-1,0.5-1,1s0.5,1,1,1h24
	c0.5,0,1-0.5,1-1S42.5,22,42,22z M42,15H18c-0.5,0-1,0.5-1,1s0.5,1,1,1h24c0.5,0,1-0.5,1-1S42.5,15,42,15z M42,15H18
	c-0.5,0-1,0.5-1,1s0.5,1,1,1h24c0.5,0,1-0.5,1-1S42.5,15,42,15z M42,22H18c-0.5,0-1,0.5-1,1s0.5,1,1,1h24c0.5,0,1-0.5,1-1
	S42.5,22,42,22z M28,8H18c-0.5,0-1,0.5-1,1s0.5,1,1,1h10c0.5,0,1-0.5,1-1S28.5,8,28,8z"/>
<path d="M17,9c0-0.5,0.5-1,1-1h10c0.5,0,1,0.5,1,1s-0.5,1-1,1H18C17.5,10,17,9.5,17,9z"/>
<path d="M43,23c0,0.5-0.5,1-1,1H18c-0.5,0-1-0.5-1-1s0.5-1,1-1h24C42.5,22,43,22.5,43,23z"/>
<path d="M17,16c0-0.5,0.5-1,1-1h24c0.5,0,1,0.5,1,1s-0.5,1-1,1H18C17.5,17,17,16.5,17,16z"/>
<path class="st0" d="M43,16c0,0.5-0.5,1-1,1H18c-0.5,0-1-0.5-1-1s0.5-1,1-1h24C42.5,15,43,15.5,43,16z"/>
<path class="st0" d="M29,9c0,0.5-0.5,1-1,1H18c-0.5,0-1-0.5-1-1s0.5-1,1-1h10C28.5,8,29,8.5,29,9z"/>
<path class="st0" d="M43,23c0,0.5-0.5,1-1,1H18c-0.5,0-1-0.5-1-1s0.5-1,1-1h24C42.5,22,43,22.5,43,23z"/>
</svg>
