<svg xmlns="http://www.w3.org/2000/svg" width="15.905" height="15.766" viewBox="0 0 15.905 15.766">
  <g id="Group" transform="translate(-0.057 -0.117)">
    <path id="Shape" d="M5.772,2.713H.476a.488.488,0,0,1,0-.976h5.3a2.155,2.155,0,0,1,4.228,0h5.429a.5.5,0,0,1,.476.488.478.478,0,0,1-.476.488H10a2.155,2.155,0,0,1-4.228,0Z" transform="translate(0.057 5.756)" fill="#222"/>
    <path id="Shape-2" data-name="Shape" d="M0,2.225A2.21,2.21,0,0,1,2.172,0,2.178,2.178,0,0,1,4.286,1.737H15.391a.488.488,0,0,1,0,.976H4.286A2.178,2.178,0,0,1,2.172,4.449,2.209,2.209,0,0,1,0,2.225Z" transform="translate(0.076 0.117)" fill="#222"/>
    <path id="Shape-3" data-name="Shape" d="M11.6,2.693H.476a.488.488,0,0,1,0-.976H11.6a2.167,2.167,0,0,1,4.286.508,2.163,2.163,0,0,1-4.286.468Z" transform="translate(0.057 11.434)" fill="#222"/>
  </g>
</svg>
