<svg xmlns="http://www.w3.org/2000/svg" width="21.051" height="37.321" viewBox="0 0 21.051 37.321">
  <g id="Group_845" data-name="Group 845" transform="translate(-129 -171.085)">
    <g id="filter_2_" data-name="filter(2)" transform="translate(129 171.085)">
      <path id="Path_9255" data-name="Path 9255" d="M76.693,102.294c.365.538.256.09.256,10.823a1.145,1.145,0,0,0,1.833.936c3.237-2.488,3.884-2.7,3.884-3.868,0-7.821-.089-7.382.256-7.891L88.179,95H71.436Z" transform="translate(-69.285 -90.965)" fill="#dbdde5"/>
      <path id="Path_9256" data-name="Path 9256" d="M45.848.595A1.084,1.084,0,0,0,44.882,0H26.017a1.107,1.107,0,0,0-.892,1.739c0,.007-.057-.078.916,1.267H44.858c.83-1.147,1.384-1.642.99-2.412Z" transform="translate(-24.927)" fill="#dbdde5"/>
    </g>
  </g>
</svg>
