<?xml version="1.0" encoding="utf-8"?>
<!-- Generator: Adobe Illustrator 23.0.6, SVG Export Plug-In . SVG Version: 6.00 Build 0)  -->
<svg version="1.1" id="Layer_1" xmlns="http://www.w3.org/2000/svg" xmlns:xlink="http://www.w3.org/1999/xlink" x="0px" y="0px"
	 viewBox="0 0 512 512" style="enable-background:new 0 0 512 512;" xml:space="preserve">
<style type="text/css">
	.st0{fill:#C46DE8;}
	.st1{fill:#AF4FCB;}
	.st2{fill:#A506EF;}
	.st3{fill:#FF3051;}
	.st4{fill:#F1F2F2;}
</style>
<g>
	<path class="st0" d="M317,38h157c19.3,0,34.9,15.6,34.9,34.9v366.2c0,19.3-15.6,34.9-34.9,34.9H317c-19.3,0-34.9-15.6-34.9-34.9
		V72.9C282.2,53.6,297.7,38,317,38z"/>
	<path class="st1" d="M282.2,238.6v200.6c0,19.3,15.6,34.9,34.9,34.9h157c3.3,0,6.4-0.5,9.6-1.5
		C370.2,459.4,282.2,359.8,282.2,238.6L282.2,238.6z"/>
	<path class="st1" d="M38,38h157c19.3,0,34.9,15.6,34.9,34.9v366.2c0,19.3-15.6,34.9-34.9,34.9H38c-19.3,0-34.9-15.6-34.9-34.9V72.9
		C3.1,53.6,18.7,38,38,38z"/>
	<path class="st2" d="M81.6,72.9h69.8c9.6,0,17.4-7.8,17.4-17.4V38H64.2v17.4C64.2,65,72,72.9,81.6,72.9z"/>
	<path class="st2" d="M360.6,72.9h69.8c9.6,0,17.4-7.8,17.4-17.4V38H343.2v17.4C343.2,65,351,72.9,360.6,72.9z"/>
	<path class="st3" d="M317,317l78.5-61L317,195v34.9h-34.9h-52.3h-52.3v52.3h52.3h52.3H317V317z"/>
	<path class="st0" d="M3.1,238.6v200.6C3.1,458.4,18.7,474,38,474h157c3.3,0,6.4-0.5,9.6-1.5C91.2,459.4,3.1,359.8,3.1,238.6
		L3.1,238.6z"/>
	<path class="st2" d="M168.8,430.4H64.2c-4.8,0-8.7,3.9-8.7,8.7s3.9,8.7,8.7,8.7h104.6c4.8,0,8.7-3.9,8.7-8.7
		S173.6,430.4,168.8,430.4z"/>
	<path class="st2" d="M447.8,430.4H343.2c-4.8,0-8.7,3.9-8.7,8.7s3.9,8.7,8.7,8.7h104.6c4.8,0,8.7-3.9,8.7-8.7
		S452.6,430.4,447.8,430.4z"/>
	<path class="st4" d="M99,299.6c-9.6,0-17.4-7.8-17.4-17.4c0-4.8-3.9-8.7-8.7-8.7c-4.8,0-8.7,3.9-8.7,8.7
		c0.1,15.8,10.8,29.6,26.2,33.7v18.6c0,4.8,3.9,8.7,8.7,8.7c4.8,0,8.7-3.9,8.7-8.7v-18.6c18.6-4.8,29.9-23.8,25.1-42.4
		c-3.9-15.4-17.9-26.2-33.8-26.2c-9.6,0-17.4-7.8-17.4-17.4c0-9.6,7.8-17.4,17.4-17.4s17.4,7.8,17.4,17.4c0,4.8,3.9,8.7,8.7,8.7
		s8.7-3.9,8.7-8.7c-0.1-15.8-10.8-29.6-26.2-33.7v-18.6c0-4.8-3.9-8.7-8.7-8.7c-4.8,0-8.7,3.9-8.7,8.7v18.6
		c-18.6,4.8-29.9,23.8-25.1,42.4c3.9,15.4,17.9,26.2,33.8,26.2c9.6,0,17.4,7.8,17.4,17.4S108.6,299.6,99,299.6z"/>
</g>
</svg>
