<?xml version="1.0" encoding="utf-8"?>
<!-- Generator: Adobe Illustrator 23.0.6, SVG Export Plug-In . SVG Version: 6.00 Build 0)  -->
<svg version="1.1" id="Layer_1" xmlns="http://www.w3.org/2000/svg" xmlns:xlink="http://www.w3.org/1999/xlink" x="0px" y="0px"
	 viewBox="0 0 512 512" style="enable-background:new 0 0 512 512;" xml:space="preserve">
<style type="text/css">
	.st0{fill:#FFB782;}
	.st1{fill:#DE4C3C;}
	.st2{fill:#7A4930;}
	.st3{fill:#5C80B2;}
	.st4{fill:#3E8CC7;}
	.st5{fill:#5EB3D1;}
	.st6{fill:#FDB62F;}
	.st7{fill:#FD7B2F;}
	.st8{fill:#F2A46F;}
</style>
<g id="surface1">
	<path class="st0" d="M475.1,149.1l-90-90v361h120.3V222.3C505.5,194.8,494.5,168.5,475.1,149.1z"/>
	<path class="st1" d="M77.2,354.3l-68-176.5c-6.8-17.7,2-37.6,19.7-44.4L349.8,9.8c17.7-6.8,37.6,2,44.4,19.7l68,176.5
		c6.8,17.7-2,37.6-19.7,44.4L121.6,374.1C103.9,380.9,84,372,77.2,354.3z"/>
	<path class="st2" d="M418.7,93.2L34,242.2l25.6,66.5l384.8-149.1L418.7,93.2z"/>
	<path class="st3" d="M6.9,231V41.9c0-19,15.4-34.4,34.4-34.4h343.9c19,0,34.4,15.4,34.4,34.4V231c0,19-15.4,34.4-34.4,34.4H41.3
		C22.3,265.4,6.9,250,6.9,231z"/>
	<path class="st4" d="M385.1,7.5h-36.5L90.7,265.4h294.4c19,0,34.4-15.4,34.4-34.4V41.9C419.5,22.9,404.2,7.5,385.1,7.5z"/>
	<path class="st5" d="M41.3,145h34.4v17.2H41.3V145z"/>
	<path class="st5" d="M41.3,196.6h34.4v17.2H41.3V196.6z"/>
	<path class="st5" d="M196,196.6h34.4v17.2H196V196.6z"/>
	<path class="st5" d="M92.9,145h34.4v17.2H92.9V145z"/>
	<path class="st5" d="M144.4,145h34.4v17.2h-34.4V145z"/>
	<path class="st5" d="M196,145h34.4v17.2H196V145z"/>
	<path class="st5" d="M359.4,41.9h17.2v25.8h-17.2V41.9z"/>
	<path class="st5" d="M325,41.9h17.2v25.8H325V41.9z"/>
	<path class="st5" d="M290.6,41.9h17.2v25.8h-17.2V41.9z"/>
	<path class="st5" d="M256.2,41.9h17.2v25.8h-17.2V41.9z"/>
	<path class="st3" d="M350.8,420.1h154.7v86H350.8V420.1z"/>
	<path class="st0" d="M325.5,162.8c-14.6-14.5-38.2-14.5-52.7,0.1c-14.1,14.1-14.5,36.8-1.1,51.4l70.5,76.9
		c-21.2,37.1-20.2,82.8,2.4,119l6.2,10h111.8V299.8L325.5,162.8z"/>
	<path class="st4" d="M376.6,445.9h17.2v17.2h-17.2V445.9z"/>
	<path class="st6" d="M41.3,96.9V55.6c0-7.6,6.2-13.7,13.7-13.7h41.2c7.6,0,13.7,6.2,13.7,13.7v41.2c0,7.6-6.2,13.7-13.7,13.7H55
		C47.4,110.7,41.3,104.5,41.3,96.9z"/>
	<path class="st7" d="M41.3,67.7h25.8v17.2H41.3V67.7z"/>
	<path class="st7" d="M84.3,67.7h25.8v17.2H84.3V67.7z"/>
	<path class="st8" d="M453.9,299.8c-2.3,0-4.5-0.9-6.1-2.5l-34.4-34.4c-3.3-3.4-3.2-8.9,0.3-12.1c3.4-3.2,8.6-3.2,12,0l34.4,34.4
		c3.4,3.4,3.4,8.8,0,12.1C458.4,298.9,456.2,299.8,453.9,299.8z"/>
</g>
</svg>
