<svg xmlns="http://www.w3.org/2000/svg" width="32" height="38.836" viewBox="0 0 32 38.836"><g transform="translate(-767.417 277)"><g transform="translate(766 -277)"><path d="M15.934,23.058a6.763,6.763,0,0,0,6.775-6.775,6.971,6.971,0,0,0-6.775-7.017,6.763,6.763,0,0,0-6.775,6.775A7.141,7.141,0,0,0,15.934,23.058ZM4.562,4.668A16.083,16.083,0,0,1,27.307,27.413L15.934,38.786,4.562,27.413A16.522,16.522,0,0,1,4.562,4.668Z" transform="translate(1.392 0.05)" fill="#0a7" fill-rule="evenodd"/></g><g transform="translate(766 -277)"><path d="M15.934,23.058a6.763,6.763,0,0,0,6.775-6.775,6.971,6.971,0,0,0-6.775-7.017,6.763,6.763,0,0,0-6.775,6.775A7.141,7.141,0,0,0,15.934,23.058Z" transform="translate(1.392 0.05)" fill="#fff" fill-rule="evenodd"/></g></g></svg>