<?xml version="1.0" encoding="utf-8"?>
<!-- Generator: Adobe Illustrator 23.0.6, SVG Export Plug-In . SVG Version: 6.00 Build 0)  -->
<svg version="1.1" id="Layer_1" xmlns="http://www.w3.org/2000/svg" xmlns:xlink="http://www.w3.org/1999/xlink" x="0px" y="0px"
	 viewBox="0 0 512 512" style="enable-background:new 0 0 512 512;" xml:space="preserve">
<style type="text/css">
	.st0{fill-rule:evenodd;clip-rule:evenodd;fill:#2FBADB;}
	.st1{fill-rule:evenodd;clip-rule:evenodd;fill:#FFA733;}
	.st2{fill-rule:evenodd;clip-rule:evenodd;fill:#ED1C24;}
	.st3{fill:#0093BA;}
</style>
<path class="st0" d="M439.9,475.9V36c0-14.3-11.7-26-26-26H99.2c-14.3,0-26,11.7-26,26v439.9c0,14.3,11.7,26,26,26h314.7
	C428.2,501.9,439.9,490.2,439.9,475.9z M378.6,223.3c0,67.4-54.6,121.9-122,121.9c-19,0-37-4.3-53-12.1c-4.1,7.8-9.4,15.6-16,22.1
	c-25.2,21.6-61.1-11.4-37.9-37.9c4.9-4.9,10.4-9,16.1-12.6c-19.4-21.6-31.3-50.2-31.3-81.5c0-67.3,54.6-121.9,122-121.9
	S378.6,156,378.6,223.3z M217.1,411.5h169.9c5.1,0,9.3,4.2,9.3,9.3v28.3c0,5.1-4.2,9.3-9.3,9.3H217.1c-5.1,0-9.3-4.2-9.3-9.3v-28.3
	C207.9,415.7,212,411.5,217.1,411.5z M137.7,412.8c13.7,0,24.8,11.1,24.8,24.7c0,13.7-11.1,24.7-24.8,24.7
	c-13.7,0-24.8-11.1-24.8-24.7C112.9,423.9,124,412.8,137.7,412.8z M400.1,74.5c0,13.7-11.1,24.7-24.8,24.7
	c-13.7,0-24.8-11.1-24.8-24.7c0-13.7,11.1-24.7,24.8-24.7C389,49.7,400.1,60.8,400.1,74.5z M137.6,49.7c13.7,0,24.8,11.1,24.8,24.7
	c0,13.7-11.1,24.7-24.8,24.7c-13.7,0-24.8-11.1-24.8-24.7C112.8,60.8,123.9,49.7,137.6,49.7z"/>
<path class="st0" d="M256.6,345.3c67.4,0,122-54.6,122-121.9c0-67.3-54.6-121.9-122-121.9s-122,54.6-122,121.9
	c0,31.3,11.8,59.9,31.3,81.5c21.3-13.1,45.5-17.1,48.5-14.1c2.7,2.8-0.4,22.9-10.7,42.5C219.6,340.9,237.6,345.3,256.6,345.3z
	 M297.7,223.3c0,22.7-18.4,41.1-41.1,41.1c-22.7,0-41.2-18.4-41.2-41.1c0-22.7,18.4-41.1,41.2-41.1
	C279.3,182.2,297.7,200.6,297.7,223.3z"/>
<path class="st1" d="M256.6,264.5c22.7,0,41.1-18.4,41.1-41.1c0-22.7-18.4-41.1-41.1-41.1c-22.7,0-41.2,18.4-41.2,41.1
	C215.4,246.1,233.9,264.5,256.6,264.5z"/>
<path class="st2" d="M187.6,355.3c6.6-6.5,11.8-14.3,16-22.1c10.4-19.6,13.4-39.7,10.8-42.5c-3-3-27.2,1.1-48.5,14.1
	c-5.7,3.5-11.3,7.7-16.1,12.6C126.5,343.9,162.5,376.9,187.6,355.3z"/>
<path class="st1" d="M217.1,458.4h169.9c5.1,0,9.3-4.2,9.3-9.3v-28.3c0-5.1-4.2-9.3-9.3-9.3H217.1c-5.1,0-9.3,4.2-9.3,9.3v28.3
	C207.9,454.2,212.1,458.4,217.1,458.4z"/>
<path class="st1" d="M137.7,462.3c13.7,0,24.8-11.1,24.8-24.7c0-13.7-11.1-24.7-24.8-24.7c-13.7,0-24.8,11.1-24.8,24.7
	C112.9,451.2,124,462.3,137.7,462.3z"/>
<path class="st1" d="M137.6,99.2c13.7,0,24.8-11.1,24.8-24.7c0-13.7-11.1-24.7-24.8-24.7c-13.7,0-24.8,11.1-24.8,24.7
	C112.8,88.1,123.9,99.2,137.6,99.2z"/>
<path class="st1" d="M375.3,99.2c13.7,0,24.8-11.1,24.8-24.7c0-13.7-11.1-24.7-24.8-24.7c-13.7,0-24.8,11.1-24.8,24.7
	C350.5,88.1,361.6,99.2,375.3,99.2z"/>
<path class="st3" d="M413.9,0H99.2c-19.9,0-36,16.2-36,36v175.5c0,5.6,4.5,10.1,10.1,10.1c5.6,0,10.1-4.5,10.1-10.1V36
	c0-8.8,7.1-15.9,15.9-15.9h314.7c8.8,0,15.9,7.1,15.9,15.9v439.9c0,8.8-7.1,15.9-15.9,15.9H99.2c-8.8,0-15.9-7.1-15.9-15.9
	l-0.2-174.7c0-5.6-4.5-10.1-10.1-10.1c0,0,0,0,0,0c-5.6,0-10.1,4.5-10.1,10.1l0.2,174.7c0,19.9,16.2,36.1,36,36.1h314.7
	c19.9,0,36.1-16.2,36.1-36.1V36C450,16.2,433.8,0,413.9,0z"/>
<path class="st3" d="M205.4,223.3c0,28.2,23,51.2,51.2,51.2s51.2-23,51.2-51.2s-23-51.2-51.2-51.2S205.4,195.1,205.4,223.3z
	 M287.7,223.3c0,17.1-13.9,31-31.1,31c-17.1,0-31.1-13.9-31.1-31c0-17.1,13.9-31,31.1-31C273.7,192.3,287.7,206.2,287.7,223.3z"/>
<path class="st3" d="M197.8,420.8v28.3c0,10.7,8.7,19.4,19.3,19.4h169.9c10.7,0,19.4-8.7,19.4-19.4v-28.3c0-10.7-8.7-19.3-19.4-19.3
	H217.1C206.5,401.4,197.8,410.1,197.8,420.8z M217.9,421.6h168.4v26.8H217.9V421.6z"/>
<path class="st3" d="M256.4,213.3c-5.6,0-10.1,4.5-10.1,10.1s4.5,10.1,10.1,10.1h0.1c5.6,0,10.1-4.5,10.1-10.1s-4.5-10.1-10.1-10.1
	H256.4z"/>
<path class="st3" d="M124.5,223.3c0,28.8,9.4,56.6,26.6,79.4c-2.9,2.3-5.8,4.8-8.5,7.5c-0.2,0.2-0.3,0.3-0.5,0.5
	c-15.8,18-10.7,38.7,0.8,50.2c6.8,6.9,16.6,11.4,26.9,11.4c8.2,0,16.7-2.8,24.4-9.4c0.2-0.2,0.4-0.3,0.5-0.5
	c5.2-5.2,9.5-10.8,13-16.4c15.5,6.2,31.9,9.3,48.8,9.3c26,0,51.2-7.6,72.8-21.8c4.6-3.1,5.9-9.3,2.8-14c-3.1-4.6-9.3-5.9-14-2.8
	c-18.3,12.1-39.7,18.5-61.7,18.5c-13.7,0-26.9-2.4-39.5-7.2c1.5-3.4,2.6-6.5,3.4-9c6-18,6.3-29.9,0.9-35.4c0,0-0.1-0.1-0.1-0.1
	c-5.5-5.4-17.4-5.1-35.4,1c-4.5,1.5-10.8,3.9-17.8,7.5c-15.2-19.6-23.6-43.7-23.6-68.6c0-61.7,50.2-111.8,111.9-111.8
	c61.7,0,112,50.2,112,111.8c0,9.3-1.1,18.5-3.4,27.5c-1.4,5.4,1.9,10.9,7.3,12.2c5.4,1.4,10.9-1.9,12.2-7.3c2.7-10.6,4-21.5,4-32.4
	c0-72.8-59.3-132-132.1-132C183.8,91.4,124.5,150.6,124.5,223.3z M204.6,300.4c-1.1,6.5-4.1,16.9-9.6,27.4c-0.2,0.3-0.4,0.7-0.6,1
	c-0.1,0.1-0.1,0.2-0.2,0.4c-3.5,6.5-8,13.1-13.6,18.7c-8.5,7.1-18,4.6-23.6-1.1c-5-5.1-7.7-13.7-0.1-22.5c4.2-4.1,8.8-7.6,13.5-10.6
	c0.3-0.2,0.7-0.4,1-0.6C183.9,305.6,196.9,301.7,204.6,300.4z"/>
<path class="st3" d="M137.6,39.7c-19.2,0-34.8,15.6-34.8,34.8c0,19.2,15.6,34.8,34.8,34.8c19.2,0,34.8-15.6,34.8-34.8
	C172.4,55.3,156.8,39.7,137.6,39.7z M137.6,89.2c-8.1,0-14.7-6.6-14.7-14.7c0-8.1,6.6-14.7,14.7-14.7c8.1,0,14.7,6.6,14.7,14.7
	C152.2,82.6,145.7,89.2,137.6,89.2z"/>
<path class="st3" d="M375.3,39.7c-19.2,0-34.8,15.6-34.8,34.8c0,19.2,15.6,34.8,34.8,34.8c19.2,0,34.9-15.6,34.9-34.8
	C410.2,55.3,394.5,39.7,375.3,39.7z M375.3,89.2c-8.1,0-14.7-6.6-14.7-14.7c0-8.1,6.6-14.7,14.7-14.7c8.1,0,14.7,6.6,14.7,14.7
	C390,82.6,383.4,89.2,375.3,89.2z"/>
<path class="st3" d="M137.7,402.7c-19.2,0-34.8,15.6-34.8,34.8c0,19.2,15.6,34.8,34.8,34.8c19.2,0,34.8-15.6,34.8-34.8
	C172.5,418.3,156.9,402.7,137.7,402.7z M137.7,452.2c-8.1,0-14.7-6.6-14.7-14.7c0-8.1,6.6-14.7,14.7-14.7c8.1,0,14.7,6.6,14.7,14.7
	C152.4,445.6,145.8,452.2,137.7,452.2z"/>
<path class="st3" d="M356.2,303.8c2.9,0,5.8-1.2,7.7-3.6l0.1-0.2c3.6-4.3,3-10.6-1.3-14.2s-10.6-3-14.2,1.3l-0.1,0.2
	c-3.6,4.3-3,10.6,1.3,14.2C351.6,303.1,353.9,303.8,356.2,303.8z"/>
<path class="st3" d="M73.1,266.6c5.6,0,10.1-4.5,10.1-10.1v-0.2c0-5.6-4.5-10.1-10.1-10.1S63,250.7,63,256.3v0.2
	C63,262.1,67.5,266.6,73.1,266.6z"/>
</svg>
