<?xml version="1.0" encoding="utf-8"?>
<!-- Generator: Adobe Illustrator 23.1.0, SVG Export Plug-In . SVG Version: 6.00 Build 0)  -->
<svg version="1.1" id="Capa_1" xmlns="http://www.w3.org/2000/svg" xmlns:xlink="http://www.w3.org/1999/xlink" x="0px" y="0px"
	 viewBox="0 0 512 512" style="enable-background:new 0 0 512 512;" xml:space="preserve">
<style type="text/css">
	.st0{fill:#FFC119;}
	.st1{fill:#0093BA;}
</style>
<circle class="st0" cx="256" cy="256" r="22.3"/>
<ellipse transform="matrix(6.652056e-02 -0.9978 0.9978 6.652056e-02 -217.093 487.714)" class="st0" cx="152.1" cy="359.9" rx="22.3" ry="22.3"/>
<path class="st1" d="M115.7,263.4c3.4,16.9,18.4,29.7,36.4,29.7c17.9,0,32.9-12.8,36.4-29.7h31.2c1,4.7,2.8,9.1,5.5,13L172.6,329
	c-5.9-3.9-12.9-6.2-20.4-6.2c-20.4,0-37.1,16.6-37.1,37.1c0,7.5,2.3,14.5,6.2,20.4c0,0,3.1,4.5,10.5,10.5c5.9,3.9,12.9,6.2,20.4,6.2
	c20.4,0,37.1-16.6,37.1-37.1c0-7.5-2.3-14.5-6.2-20.4l52.5-52.5c3.9,2.6,8.3,4.5,13,5.5v31.2c-16.9,3.4-29.7,18.5-29.7,36.4
	c0,17.9,12.8,32.9,29.7,36.4c0,0,6.4,1.2,14.8,0c16.9-3.4,29.7-18.4,29.7-36.4c0-17.9-12.8-32.9-29.7-36.4v-31.2
	c4.7-1,9.1-2.8,13-5.5l52.5,52.5c-3.9,5.9-6.2,12.9-6.2,20.4c0,20.4,16.6,37.1,37.1,37.1c7.5,0,14.5-2.3,20.4-6.2
	c0,0,7.7-5.6,10.5-10.5c3.9-5.9,6.2-12.9,6.2-20.4c0-20.4-16.6-37.1-37.1-37.1c-7.5,0-14.5,2.3-20.4,6.2l-52.5-52.5
	c2.6-3.9,4.5-8.3,5.5-13h31.2c3.4,16.9,18.5,29.7,36.4,29.7s32.9-12.8,36.4-29.7c1.4-7.6,0-14.8,0-14.8
	c-3.4-16.9-18.5-29.7-36.4-29.7c-17.9,0-32.9,12.8-36.4,29.7h-31.2c-1-4.7-2.8-9.1-5.5-13l52.5-52.5c5.9,3.9,12.9,6.2,20.4,6.2
	c20.4,0,37.1-16.6,37.1-37.1c0-7.5-2.3-14.5-6.2-20.4c-6.3-8.3-10.5-10.5-10.5-10.5c-5.9-3.9-12.9-6.2-20.4-6.2
	c-20.4,0-37.1,16.6-37.1,37.1c0,7.5,2.3,14.5,6.2,20.4l-52.5,52.5c-3.9-2.6-8.3-4.5-13-5.5v-31.2c16.9-3.4,29.7-18.4,29.7-36.4
	c0-17.9-12.8-32.9-29.7-36.4c-9-0.9-14.8,0-14.8,0c-16.9,3.4-29.7,18.4-29.7,36.4c0,17.9,12.8,32.9,29.7,36.4v31.2
	c-4.7,1-9.1,2.8-13,5.5L183,172.6c3.9-5.9,6.2-12.9,6.2-20.4c0-20.4-16.6-37.1-37.1-37.1c-7.5,0-14.5,2.3-20.4,6.2
	c-6.1,3.3-10.5,10.5-10.5,10.5c-3.9,5.9-6.2,12.9-6.2,20.4c0,20.4,16.6,37.1,37.1,37.1c7.5,0,14.5-2.3,20.4-6.2l52.5,52.5
	c-2.6,3.9-4.5,8.3-5.5,13h-31.2c-3.4-16.9-18.4-29.7-36.4-29.7c-17.9,0-32.9,12.8-36.4,29.7C115.7,248.6,114.6,255.9,115.7,263.4z
	 M359.9,233.7c12.3,0,22.3,10,22.3,22.3s-10,22.3-22.3,22.3c-12.3,0-22.2-10-22.2-22.3S347.6,233.7,359.9,233.7z M152.1,278.3
	c-12.3,0-22.3-10-22.3-22.3c0-12.3,10-22.3,22.3-22.3s22.3,10,22.3,22.3S164.4,278.3,152.1,278.3z M359.9,129.8
	c12.3,0,22.3,10,22.3,22.3c0,12.3-10,22.3-22.3,22.3c-12.3,0-22.3-10-22.3-22.3C337.6,139.8,347.6,129.8,359.9,129.8z M233.7,152.1
	c0-12.3,10-22.3,22.3-22.3s22.3,10,22.3,22.3c0,12.3-10,22.2-22.3,22.2S233.7,164.4,233.7,152.1z M152.1,174.3
	c-12.3,0-22.3-10-22.3-22.3s10-22.3,22.3-22.3s22.3,10,22.3,22.3C174.4,164.3,164.4,174.3,152.1,174.3z M152.1,382.2
	c-12.3,0-22.3-10-22.3-22.3s10-22.3,22.3-22.3s22.3,10,22.3,22.3C174.4,372.2,164.4,382.2,152.1,382.2z M278.3,359.9
	c0,12.3-10,22.3-22.3,22.3c-12.3,0-22.3-10-22.3-22.3c0-12.3,10-22.3,22.3-22.3S278.3,347.6,278.3,359.9z M256,278.3
	c-12.3,0-22.3-10-22.3-22.3c0-12.3,10-22.3,22.3-22.3s22.3,10,22.3,22.3C278.3,268.3,268.3,278.3,256,278.3z M359.9,337.7
	c12.3,0,22.3,10,22.3,22.3s-10,22.3-22.3,22.3c-12.3,0-22.3-10-22.3-22.3S347.6,337.7,359.9,337.7z"/>
</svg>
