<?xml version="1.0" encoding="utf-8"?>
<!-- Generator: Adobe Illustrator 23.0.6, SVG Export Plug-In . SVG Version: 6.00 Build 0)  -->
<svg version="1.1" id="Layer_5" xmlns="http://www.w3.org/2000/svg" xmlns:xlink="http://www.w3.org/1999/xlink" x="0px" y="0px"
	 viewBox="0 0 512 512" style="enable-background:new 0 0 512 512;" xml:space="preserve">
<style type="text/css">
	.st0{fill:#E6E9ED;}
	.st1{fill:#2FBADB;}
	.st2{fill:#FFB531;}
	.st3{fill:#FF3051;}
	.st4{fill:#0093BA;}
</style>
<circle class="st0" cx="168" cy="256" r="152"/>
<path class="st1" d="M480,16H256c-8.8,0-16,7.2-16,16v90.1l-0.1,0.1c38.6,20.7,67.3,57.8,76.6,101.8h0.1H480c8.8,0,16-7.2,16-16V32
	C496,23.2,488.8,16,480,16z"/>
<path class="st2" d="M320,16h96v48h-32h-32h-32V16z"/>
<path class="st1" d="M252.8,171.2C231.1,149.4,201.1,136,168,136s-63.1,13.4-84.8,35.2C61.4,192.9,48,222.9,48,256
	c0,66.2,53.8,120,120,120c4,0,7.9-0.2,11.8-0.6l44.2-46.3l24-25.1l20,18.3c12.6-19,20-41.8,20-66.3
	C288,222.9,274.6,192.9,252.8,171.2z"/>
<path class="st3" d="M177.3,255.9l14.4,86.2c0.2,1.3,0.3,2.6,0.3,3.9v6c0,6.6-2.7,12.6-7,17s-10.3,7-17,7c-13.3,0-24-10.7-24-24v-6
	c0-1.4,0.1-2.6,0.3-3.9l14.4-86.2c0.7-4.6,4.6-7.9,9.3-7.9S176.6,251.4,177.3,255.9L177.3,255.9z"/>
<path class="st2" d="M368,368l-24,24l-24-22l-28.2-25.8L272,326l-4-3.7L248,304l-24,25.1l-44.2,46.3l-3.8,4l-26.2,27.4L128,429.7
	L80,480v16h48h48h48h48h48h48h48V320L368,368z"/>
<path class="st4" d="M480,8H256c-13.2,0-24,10.8-24,24v77.5c-19.6-8.6-41.2-13.5-64-13.5C79.8,96,8,167.8,8,256
	c0,75.8,53,140.4,125.6,156.3L72,476.8V504h352V323.3l48-48V336h16v-88h-88v16h60.7L343.8,380.9l-41.5-38.1
	C319,317,328,287.1,328,256c0-8.2-0.8-16.2-2-24h154c13.2,0,24-10.8,24-24V32C504,18.8,493.2,8,480,8z M376,40v16h-16V40h-16v16h-16
	V24h80v32h-16V40H376z M56.4,248c1.8-24.9,11.6-47.5,27-65.2l22.3,22.3l11.3-11.3l-22.3-22.3c17.8-15.4,40.4-25.3,65.2-27V176h16
	v-31.6c24.9,1.8,47.5,11.6,65.2,27l-22.3,22.3l11.3,11.3l22.3-22.3c15.4,17.8,25.3,40.4,27,65.2H248v16h31.7
	c-1.1,16.1-5.8,31.7-13.5,45.8l-18.6-17L199.7,343c-0.1-0.7-0.1-1.5-0.2-2.2l-14.4-86.2c-1.4-8.4-8.6-14.6-17.2-14.6
	s-15.8,6.1-17.2,14.6l-14.4,86.2c-0.3,1.7-0.4,3.5-0.4,5.3v6c0,4.2,0.9,8.2,2.3,11.9c-44.9-12.4-78.5-52-81.9-99.9H88v-16L56.4,248z
	 M152,352v-6c0-0.9,0.1-1.8,0.2-2.6l14.4-86.1c0.2-1.4,2.6-1.4,2.8,0l14.4,86.2c0.2,0.9,0.2,1.8,0.2,2.6v6c0,8.8-7.2,16-16,16
	S152,360.8,152,352L152,352z M216,349.1V488h-32V382.6L216,349.1z M232,332.4l16.4-17.2l15.6,14.3V488h-32V332.4z M280,344.2
	l32,29.3V488h-32V344.2z M168,488h-32v-55.1l32-33.5V488z M88,483.2l32-33.5V488H88V483.2z M408,488h-32V371.3l32-32V488z
	 M344.2,403.1l15.8-15.8V488h-32v-99.8L344.2,403.1z M290.3,331.9l-12-11C289.8,301.3,296,279,296,256c0-70.6-57.4-128-128-128
	S40,185.4,40,256c0,68.2,53.6,123.9,120.9,127.6l-14,14.7C76.6,388,24,327.6,24,256c0-79.4,64.6-144,144-144s144,64.6,144,144
	C312,283.1,304.5,309.2,290.3,331.9L290.3,331.9z M488,208c0,4.4-3.6,8-8,8H322.7c-10.8-41.9-38.2-77.1-74.7-98.4V32
	c0-4.4,3.6-8,8-8h56v48h112V24h56c4.4,0,8,3.6,8,8V208z"/>
<path class="st4" d="M424,184h16v16h-16V184z"/>
<path class="st4" d="M392,184h16v16h-16V184z"/>
<path class="st4" d="M456,184h16v16h-16V184z"/>
<path class="st4" d="M392,152h80v16h-80V152z"/>
</svg>
