<svg xmlns="http://www.w3.org/2000/svg" viewBox="0 0 252.7 252.7"><defs><style>.cls-1,.cls-2{fill:none;stroke:#5a4fef;stroke-miterlimit:10;}.cls-1{stroke-width:9px;}.cls-2{stroke-width:5px;}.cls-3{fill:#5a4fef;}</style></defs><title>Node </title><g id="Layer_2" data-name="Layer 2"><g id="Layer_1-2" data-name="Layer 1"><circle class="cls-1" cx="126.35" cy="126.35" r="121.85"/><g id="Layer_1-2-2" data-name="Layer 1-2"><circle class="cls-2" cx="132" cy="126.7" r="20.77"/><path class="cls-3" d="M205,71.42a19.62,19.62,0,0,1-29.9,16.73l-25,25.1-5.67-5.67,24.94-24.92A19.6,19.6,0,1,1,205,71.42Z"/><path class="cls-3" d="M151.51,196.32a19.62,19.62,0,1,1-23.35-19.24V149.52h8v27.67A19.57,19.57,0,0,1,151.51,196.32Z"/><path class="cls-3" d="M119.28,107.61l-5.46,5.86-19-17.7A14.88,14.88,0,0,1,88,97.4a15.23,15.23,0,1,1,12.81-7Z"/><path class="cls-3" d="M109.66,123.18v8h-27a19.6,19.6,0,1,1,.25-8Z"/></g></g></g></svg>