<?xml version="1.0" encoding="utf-8"?>
<!-- Generator: Adobe Illustrator 23.0.6, SVG Export Plug-In . SVG Version: 6.00 Build 0)  -->
<svg version="1.1" id="Layer_1" xmlns="http://www.w3.org/2000/svg" xmlns:xlink="http://www.w3.org/1999/xlink" x="0px" y="0px"
	 viewBox="0 0 512 512" style="enable-background:new 0 0 512 512;" xml:space="preserve">
<style type="text/css">
	.st0{fill:#93A3AF;}
	.st1{fill:#7B8C98;}
	.st2{fill:#627687;}
	.st3{fill:#6CB0D5;}
	.st4{fill:#5F9EEB;}
	.st5{fill:#D3D8DF;}
	.st6{fill:#DD801B;}
	.st7{fill:#3A82D0;}
	.st8{fill:#F1DD47;}
	.st9{fill:#EFC40F;}
</style>
<path class="st0" d="M369.5,158.1h-13.4V76.7h13.4c5.7,0,10.3,4.6,10.3,10.3v60.8C379.8,153.5,375.2,158.1,369.5,158.1z"/>
<path class="st0" d="M56.3,251.9h13.4v-40.2H56.3c-5.7,0-10.3,4.6-10.3,10.3v19.6C46,247.3,50.6,251.9,56.3,251.9z"/>
<path class="st0" d="M56.3,178.7h13.4v-102H56.3C50.6,76.7,46,81.3,46,87v81.4C46,174.1,50.6,178.7,56.3,178.7z"/>
<path class="st0" d="M56.3,315.8h13.4v-40.2H56.3c-5.7,0-10.3,4.6-10.3,10.3v19.6C46,311.1,50.6,315.8,56.3,315.8z"/>
<path class="st1" d="M67,491.4V20.6C67,9.2,76.3,0,87.6,0h250.5c11.4,0,20.6,9.2,20.6,20.6v470.8c0,11.4-9.2,20.6-20.6,20.6H87.6
	C76.3,512,67,502.8,67,491.4z"/>
<path class="st2" d="M358.7,20.6v470.8c0,11.4-9.2,20.6-20.6,20.6H318c11.4,0,20.6-9.2,20.6-20.6V20.6C338.6,9.2,329.4,0,318,0h20.2
	C349.5,0,358.7,9.2,358.7,20.6z"/>
<path class="st3" d="M67,52h291.7v408H67V52z"/>
<path class="st4" d="M338.6,52h20.2v408h-20.2V52z"/>
<path class="st2" d="M233.1,35.4h-40.3c-4.3,0-7.7-3.5-7.7-7.7c0-4.3,3.5-7.7,7.7-7.7h40.3c4.3,0,7.7,3.5,7.7,7.7
	S237.3,35.4,233.1,35.4z"/>
<path class="st5" d="M300.8,193.9H125c-8,0-14.6-6.5-14.6-14.6v-23.4c0-8,6.5-14.6,14.6-14.6h175.9c8.1,0,14.6,6.5,14.6,14.6v23.4
	C315.4,187.3,308.9,193.9,300.8,193.9z"/>
<path class="st6" d="M145.9,175.3L145.9,175.3h-0.2c-4.3,0-7.7-3.5-7.7-7.8c0-4.2,3.5-7.7,7.7-7.7h0.1h0.1c4.3,0,7.7,3.5,7.7,7.8
	C153.6,171.9,150.2,175.3,145.9,175.3z"/>
<path class="st6" d="M174.9,175.3C174.9,175.3,174.8,175.3,174.9,175.3h-0.2c-4.3,0-7.7-3.5-7.7-7.8c0-4.2,3.5-7.7,7.7-7.7h0.1h0.1
	c4.3,0,7.7,3.5,7.7,7.8C182.6,171.9,179.1,175.3,174.9,175.3z"/>
<path class="st6" d="M203.8,175.3L203.8,175.3h-0.2c-4.3,0-7.7-3.5-7.7-7.8c0-4.2,3.5-7.7,7.7-7.7h0.1h0.1c4.3,0,7.7,3.5,7.7,7.8
	C211.5,171.9,208.1,175.3,203.8,175.3z"/>
<path class="st6" d="M232.8,175.3L232.8,175.3h-0.2c-4.3,0-7.7-3.5-7.7-7.8c0-4.2,3.5-7.7,7.7-7.7h0.1h0.1c4.3,0,7.7,3.5,7.7,7.8
	C240.5,171.9,237,175.3,232.8,175.3z"/>
<g>
	<path class="st7" d="M145.9,112.9h-24.4c-4.3,0-7.7-3.5-7.7-7.7c0-4.3,3.5-7.7,7.7-7.7h24.4c4.3,0,7.7,3.5,7.7,7.7
		C153.7,109.4,150.2,112.9,145.9,112.9z"/>
	<path class="st7" d="M216.6,228.5h-95.1c-4.3,0-7.7-3.5-7.7-7.7c0-4.3,3.5-7.7,7.7-7.7h95.1c4.3,0,7.7,3.5,7.7,7.7
		S220.8,228.5,216.6,228.5z"/>
	<path class="st7" d="M204.2,250.6h-82.7c-4.3,0-7.7-3.5-7.7-7.7s3.5-7.7,7.7-7.7h82.7c4.3,0,7.7,3.5,7.7,7.7
		S208.5,250.6,204.2,250.6z"/>
	<path class="st7" d="M216.6,406.9h-23.9c-4.3,0-7.7-3.5-7.7-7.7c0-4.3,3.5-7.7,7.7-7.7h23.9c4.3,0,7.7,3.5,7.7,7.7
		C224.3,403.5,220.8,406.9,216.6,406.9z"/>
	<path class="st7" d="M169,406.9h-47.5c-4.3,0-7.7-3.5-7.7-7.7c0-4.3,3.5-7.7,7.7-7.7H169c4.3,0,7.7,3.5,7.7,7.7
		C176.8,403.5,173.3,406.9,169,406.9z"/>
	<path class="st7" d="M133.7,379.2h-12.2c-4.3,0-7.7-3.5-7.7-7.7c0-4.3,3.5-7.7,7.7-7.7h12.2c4.3,0,7.7,3.5,7.7,7.7
		C141.4,375.8,138,379.2,133.7,379.2z"/>
</g>
<path class="st2" d="M417.4,340.9c-8.5,0-15.5-6.9-15.5-15.4V212.3c0-25.3-20.6-45.8-45.8-45.8c-25.3,0-45.8,20.6-45.8,45.8v113.1
	c0,8.5-6.9,15.4-15.5,15.4s-15.5-6.9-15.5-15.4V212.3c0-42.3,34.4-76.8,76.7-76.8s76.8,34.4,76.8,76.8v113.1
	C432.8,334,425.9,340.9,417.4,340.9z"/>
<path class="st8" d="M466.3,372.9c0,60.9-49.4,110.2-110.2,110.2s-110.2-49.3-110.2-110.2s49.4-110.2,110.2-110.2
	S466.3,312.1,466.3,372.9z"/>
<path class="st9" d="M466.3,372.9c0,60.9-49.4,110.2-110.2,110.2c-5.2,0-10.3-0.4-15.3-1.1c53.6-7.5,94.9-53.5,94.9-109.2
	s-41.3-101.7-94.9-109.2c5-0.7,10.1-1.1,15.3-1.1C417,262.7,466.3,312.1,466.3,372.9z"/>
<path class="st6" d="M381.9,380.5c0-15.2-13.2-27.3-28.7-25.6c-11.8,1.3-21.4,10.8-22.7,22.6c-1.1,9.9,3.4,18.9,10.8,24.1v23.6
	c0,8.2,6.6,14.8,14.8,14.8s14.8-6.6,14.8-14.8v-23.6C377.5,396.9,381.9,389.2,381.9,380.5z"/>
</svg>
