<?xml version="1.0" encoding="utf-8"?>
<!-- Generator: Adobe Illustrator 23.0.6, SVG Export Plug-In . SVG Version: 6.00 Build 0)  -->
<svg version="1.1" id="Layer_1" xmlns="http://www.w3.org/2000/svg" xmlns:xlink="http://www.w3.org/1999/xlink" x="0px" y="0px"
	 viewBox="0 0 466 466" style="enable-background:new 0 0 466 466;" xml:space="preserve">
<style type="text/css">
	.st0{fill:#FFB531;}
	.st1{fill:#0093BA;}
	.st2{fill:#404E51;}
	.st3{fill:#F7CAA5;}
	.st4{fill:#EDB288;}
	.st5{fill:#2FBADB;}
	.st6{fill:#4B5D63;}
	.st7{fill:#FF3051;}
</style>
<path class="st0" d="M365.4,264.7c55.6,0,100.6,45.1,100.6,100.6S420.9,466,365.4,466s-100.6-45.1-100.6-100.6
	C264.7,309.8,309.8,264.7,365.4,264.7z"/>
<path class="st1" d="M167.3,215.7H204c28.1,0,50.9,22.8,50.9,50.9v45H126.4v-70.5L167.3,215.7z"/>
<path class="st2" d="M218.7,50.9H115.4c-0.5,0-1,0-1.5,0c-10-0.6-18.7-7-22.3-16.4c-3.6-9.4-1.3-20,5.8-27.1
	c0.7-0.8,1.5-1.4,2.4-2.1c4.5-3.5,10-5.4,15.6-5.4h52.4C195.9,0,218.7,22.8,218.7,50.9z"/>
<path class="st3" d="M87.5,190.9c-22.4-14-36-38.5-36.1-65V81.1c3.8,0.5,37.1,3.7,62.6-30.2v0c0.5,0,1,0,1.5,0h85V126
	c-0.1,25.2-12.5,48.7-33.1,63C143.5,205.6,112.1,206.4,87.5,190.9z"/>
<path class="st4" d="M167.3,215v0.7l-40.9,25.4l-38.9-25.4v-24.8c24.6,15.4,56,14.6,79.8-2V215z"/>
<path class="st5" d="M87.5,215.7l38.9,25.4v70.5H0v-45c0-28.1,22.8-50.9,50.9-50.9H87.5z"/>
<path class="st6" d="M113.9,50.9L113.9,50.9C88.5,84.8,55.1,81.6,51.3,81.1v-6c0-31.1,19.3-58.9,48.4-69.8l0.1,0.1
	c-0.8,0.6-1.6,1.3-2.4,2.1c-7.1,7.1-9.4,17.7-5.8,27.1C95.2,43.9,103.9,50.3,113.9,50.9z"/>
<path class="st4" d="M94.1,132.2c-5.5,0-10.8-2.2-14.7-6.1s-6.1-9.2-6.1-14.7c0-4.4,3.6-8,8-8s8,3.6,8,8c0,2.6,2.1,4.7,4.7,4.7
	c2.6,0,4.7-2.1,4.7-4.7c0-4.4,3.6-8,8-8s8,3.6,8,8C114.8,122.9,105.5,132.2,94.1,132.2z"/>
<path class="st4" d="M157.7,132.2c-5.5,0-10.8-2.2-14.7-6.1s-6.1-9.2-6.1-14.7c0-4.4,3.6-8,8-8s8,3.6,8,8c0,2.6,2.1,4.7,4.7,4.7
	c2.6,0,4.7-2.1,4.7-4.7c0-4.4,3.6-8,8-8s8,3.6,8,8C178.4,122.9,169.1,132.2,157.7,132.2z"/>
<path class="st1" d="M404.5,381.8h-44.8c-4.4,0-8-3.6-8-8V315c0-4.4,3.6-8,8-8s8,3.6,8,8v50.7h36.8c4.4,0,8,3.6,8,8
	C412.5,378.2,408.9,381.8,404.5,381.8z"/>
<g>
	<path class="st7" d="M376.5,86.6c-1.5-1.5-3.6-2.3-5.7-2.3c-2.1,0-4.1,0.9-5.6,2.4L355,97.1V54.2c0-12.3-4.9-24.1-13.7-32.7
		C332.6,12.8,320.8,8,308.6,8h-53.4c-4.4,0-8,3.6-8,8s3.6,8,8,8h53.4c8-0.1,15.8,3.1,21.5,8.8c5.7,5.7,8.9,13.4,9,21.4v43
		l-10.4-10.5c-3.1-3.1-8.2-3.2-11.3-0.1c-3.1,3.1-3.2,8.2-0.1,11.3l24.1,24.4l0,0c0.2,0.2,0.3,0.3,0.5,0.4c0,0,0.1,0.1,0.1,0.1
		c1,0.8,2.2,1.4,3.5,1.7h0c0.2,0.1,0.5,0.3,0.8,0.3c0.3,0,0.5,0.2,0.8,0.2h0c0.2,0,0.4-0.2,0.5-0.2c1.4-0.1,2.8-0.6,3.9-1.4
		c0,0,0-0.1,0.1-0.1c0.2-0.1,0.4-0.3,0.6-0.4c0.1-0.1,0.1-0.1,0.2-0.2c0.1-0.1,0.3-0.2,0.4-0.4l0,0l23.9-24.4
		C379.7,94.7,379.6,89.7,376.5,86.6z"/>
	<path class="st1" d="M210.9,442h-53.4c-8,0.1-15.8-3.1-21.5-8.8c-5.7-5.7-8.9-13.4-9-21.4v-43l10.4,10.5c3.1,3.1,8.2,3.2,11.3,0.1
		c3.1-3.1,3.2-8.2,0.1-11.3l-24.1-24.4l0,0c-0.2-0.2-0.3-0.3-0.5-0.4c0,0-0.1-0.1-0.1-0.1c-1-0.8-2.2-1.4-3.5-1.7h0
		c-0.2-0.1-0.5-0.3-0.8-0.3c-0.3,0-0.5-0.2-0.8-0.2h0c-0.2,0-0.4,0.2-0.6,0.2c-1.4,0.1-2.8,0.6-3.9,1.4c0,0,0,0.1-0.1,0.1
		c-0.2,0.1-0.4,0.3-0.6,0.4c-0.1,0.1-0.1,0.1-0.2,0.2c-0.1,0.1-0.3,0.2-0.4,0.4l0,0l-23.9,24.4c-2,2-2.8,5-2.1,7.8s3,4.9,5.7,5.6
		c2.8,0.7,5.7-0.1,7.7-2.2l10.2-10.4v42.9c0,12.3,4.9,24.1,13.7,32.7c8.7,8.7,20.5,13.5,32.8,13.5h53.4c4.4,0,8-3.6,8-8
		S215.3,442,210.9,442z"/>
</g>
</svg>
