<?xml version="1.0" encoding="utf-8"?>
<!-- Generator: Adobe Illustrator 23.0.6, SVG Export Plug-In . SVG Version: 6.00 Build 0)  -->
<svg version="1.1" id="Capa_1" xmlns="http://www.w3.org/2000/svg" xmlns:xlink="http://www.w3.org/1999/xlink" x="0px" y="0px"
	 viewBox="0 0 58 58" style="enable-background:new 0 0 58 58;" xml:space="preserve">
<style type="text/css">
	.st0{fill:#2FBADB;}
	.st1{fill:#FFA733;}
	.st2{fill:#0093BA;}
</style>
<path class="st0" d="M27.5,0c0,1.7-1.3,3-3,3s-3-1.3-3-3h-3v58h3c0-1.7,1.3-3,3-3s3,1.3,3,3h14.9c1.2,0,2.1-0.9,2.1-2.1V2.1
	c0-1.2-0.9-2.1-2.1-2.1H27.5z M39.6,54.9c-1.9,0.4-3.5-1.2-3-3c0.2-0.9,0.9-1.6,1.8-1.8c1.9-0.4,3.5,1.2,3,3
	C41.2,54,40.5,54.7,39.6,54.9z M39.6,7.9c-1.9,0.4-3.5-1.2-3-3c0.2-0.9,0.9-1.6,1.8-1.8c1.9-0.4,3.5,1.2,3,3
	C41.2,7,40.5,7.7,39.6,7.9z"/>
<g>
	<rect x="38.5" y="10" class="st1" width="6" height="2"/>
	<rect x="38.5" y="13" class="st1" width="6" height="2"/>
	<rect x="38.5" y="16" class="st1" width="6" height="2"/>
	<rect x="38.5" y="19" class="st1" width="6" height="2"/>
	<rect x="38.5" y="22" class="st1" width="6" height="2"/>
	<rect x="38.5" y="25" class="st1" width="6" height="2"/>
	<rect x="38.5" y="28" class="st1" width="6" height="2"/>
	<rect x="38.5" y="31" class="st1" width="6" height="2"/>
	<rect x="38.5" y="34" class="st1" width="6" height="2"/>
	<rect x="38.5" y="37" class="st1" width="6" height="2"/>
	<rect x="38.5" y="40" class="st1" width="6" height="2"/>
	<rect x="38.5" y="43" class="st1" width="6" height="2"/>
	<rect x="38.5" y="46" class="st1" width="6" height="2"/>
</g>
<rect x="22.5" y="8" class="st2" width="10" height="6"/>
<rect x="22.5" y="44" class="st2" width="10" height="6"/>
<rect x="22.5" y="26" class="st2" width="10" height="6"/>
<g>
	<rect x="23.5" y="5" class="st1" width="2" height="3"/>
	<rect x="26.5" y="5" class="st1" width="2" height="3"/>
	<rect x="29.5" y="5" class="st1" width="2" height="3"/>
	<rect x="23.5" y="14" class="st1" width="2" height="3"/>
	<rect x="26.5" y="14" class="st1" width="2" height="3"/>
	<rect x="29.5" y="14" class="st1" width="2" height="3"/>
	<rect x="23.5" y="41" class="st1" width="2" height="3"/>
	<rect x="26.5" y="41" class="st1" width="2" height="3"/>
	<rect x="29.5" y="41" class="st1" width="2" height="3"/>
	<rect x="23.5" y="50" class="st1" width="2" height="3"/>
	<rect x="26.5" y="50" class="st1" width="2" height="3"/>
	<rect x="29.5" y="50" class="st1" width="2" height="3"/>
	<rect x="23.5" y="23" class="st1" width="2" height="3"/>
	<rect x="26.5" y="23" class="st1" width="2" height="3"/>
	<rect x="29.5" y="23" class="st1" width="2" height="3"/>
	<rect x="23.5" y="32" class="st1" width="2" height="3"/>
	<rect x="26.5" y="32" class="st1" width="2" height="3"/>
	<rect x="29.5" y="32" class="st1" width="2" height="3"/>
</g>
<polygon class="st2" points="15.5,3 15.5,55 13.5,55 13.5,58 18.5,58 18.5,0 13.5,0 13.5,3 "/>
</svg>
