<?xml version="1.0" encoding="utf-8"?>
<!-- Generator: Adobe Illustrator 23.0.6, SVG Export Plug-In . SVG Version: 6.00 Build 0)  -->
<svg version="1.1" id="Layer_1" xmlns="http://www.w3.org/2000/svg" xmlns:xlink="http://www.w3.org/1999/xlink" x="0px" y="0px"
	 viewBox="0 0 512 512" style="enable-background:new 0 0 512 512;" xml:space="preserve">
<style type="text/css">
	.st0{fill:#3EA69B;}
	.st1{fill:#44C4A1;}
	.st2{fill:#FCD462;}
</style>
<g>
	<path class="st0" d="M442.3,43c-33,81.3-49.6,159.9-62.7,247.2c-45.2-3.4-65.9-5.9-110.7-13.5c8-88,10.5-168.3-2.3-255.1
		C342.4,2.4,373,6.3,442.3,43z"/>
	<path class="st1" d="M358.1,278.3c-26.5-2.8-39.3-4.4-65.7-8c1.1-9.8-4.7-18.6-12.8-19.6c5.4-69.4,7-132.5,2.6-201.7
		c12-3.4,21.5-12.7,20.9-22.3c42-8.2,63.6-5.5,102.4,12.5c-2.8,9.1,4.2,20.4,15,26.7c-20.7,66.1-34.1,127.7-45.3,196.4
		C367,261.4,359.5,268.5,358.1,278.3z"/>
	<g>
		<path class="st0" d="M344.8,112.6c25.4,3.1,41.5,26.1,37.7,45.4s-24.3,31.2-46.6,28.5c-22.2-2.7-39.3-19.2-38.5-38.9
			C298.3,127.8,319.4,109.4,344.8,112.6z"/>
		<path class="st0" d="M353.9,36.5c5.6,0.7,9.6,5.3,8.9,9.9s-5.5,7.5-10.9,6.8c-5.3-0.7-9.3-4.6-8.9-9.3
			C343.4,39.3,348.3,35.8,353.9,36.5z"/>
		
			<ellipse transform="matrix(0.1194 -0.9928 0.9928 0.1194 36.1016 549.2733)" class="st0" cx="327.7" cy="254.3" rx="8.4" ry="6.8"/>
	</g>
	<path class="st1" d="M374,157.8c-2.4-0.6-3.6-0.9-5.9-1.4c-2.1,7.9-6.2,14.6-12.2,20.2c-2.4-3.1-3.6-4.7-6-7.7
		c4.6-4.4,7.7-9.2,9.3-14.4c-6.3-1.2-9.5-1.7-15.9-2.6c-2.3,6.6-4.9,11.4-7.6,14.3c-2.7,2.9-6.4,4.1-11,3.7
		c-4.6-0.4-8.2-2.4-10.9-6.2c-2.7-3.8-4-8.5-3.9-14.3c-1.7,0-2.5,0-4.2,0c0.1-2.3,0.2-3.4,0.3-5.7c1.7,0,2.6,0,4.3,0
		c0.9-6.6,3.4-12.8,7.6-18.6c3.1,2.4,4.6,3.6,7.5,6.1c-3,3.9-5,8.1-6,12.7c6.3,0.3,9.5,0.5,15.8,1.1c0-0.1,0-0.2,0-0.3
		c2.3-6.8,4.9-11.7,8-14.7c3-2.9,7.1-4.1,12.1-3.2s8.8,3.7,11.3,8c2.5,4.4,3.3,9.6,2.5,15.7c2.4,0.5,3.5,0.8,5.9,1.4
		C374.5,154.4,374.4,155.4,374,157.8z M320.4,156.1c1.1,1.6,2.5,2.5,4.4,2.6c1.8,0.1,3.3-0.4,4.5-1.5s2.5-3.3,3.8-6.6
		c-5.7-0.6-8.6-0.8-14.3-1C318.8,152.4,319.3,154.6,320.4,156.1z M359,141.6c-1-1.9-2.5-3.1-4.5-3.4c-2-0.3-3.6,0.1-5,1.2
		c-1.3,1.2-2.7,3.5-4.2,7c6,0.8,9,1.3,14.9,2.5C360.5,145.9,360,143.4,359,141.6z"/>
	<path class="st0" d="M494.5,113.4c-54.5,65.7-92.8,134.7-130.3,213.4c-41.5-19.5-60.2-29.4-100-52.8
		c32.9-81.1,58.5-156.8,71.7-244.4C412.5,38.8,440.1,53.5,494.5,113.4z"/>
	<path class="st1" d="M347.5,307.8c-24-12.2-35.6-18.4-59.3-31.3c3.8-9,1-19.4-6.4-23.4c25.2-64.3,44.9-123.9,60.8-191.6
		c12.2,1.1,23.8-4.4,26.1-13.7c41.7,7.3,61.3,17.7,92.5,48.9c-5.3,7.7-2,21,6.4,30.9c-38.6,55.7-69,109.7-99.4,171.2
		C360.8,294.8,351.5,298.9,347.5,307.8z"/>
	<g>
		<path class="st0" d="M382.9,144.6c22.9,12.1,31.4,39.9,22.2,56.9c-9.2,17.1-31.9,21-51.9,10.4c-20.1-10.6-31.3-32.5-24.8-51
			C334.8,142.6,360,132.6,382.9,144.6z"/>
		<path class="st0" d="M413.5,75.3c5.1,2.7,7.4,8.5,5.5,12.6c-2,4.1-7.4,5.2-12.2,2.6c-4.8-2.5-7.4-7.8-5.7-12.1
			C402.8,74.3,408.4,72.7,413.5,75.3z"/>
		<path class="st0" d="M329.3,266.1c3.4,1.8,4.6,6.7,2.8,10.9c-1.9,4.2-6.1,6.2-9.5,4.4c-3.4-1.8-4.6-6.6-2.8-10.9
			C321.5,266.4,325.9,264.4,329.3,266.1z"/>
	</g>
	<path class="st1" d="M397.1,198.4c-2.1-1.4-3.1-2.1-5.2-3.5c-4.3,6.8-10.1,11.7-17.3,14.9c-1.3-3.8-2-5.7-3.4-9.5
		c5.6-2.6,9.9-6,12.9-10.4c-5.6-3.5-8.4-5.1-14.2-8.2c-4.1,5.5-7.9,9.1-11.3,10.9s-7.2,1.6-11.4-0.4c-4.2-2-7-5.3-8.4-9.9
		c-1.4-4.6-1.3-9.6,0.5-15.1c-1.6-0.6-2.3-0.9-3.9-1.5c0.8-2.1,1.2-3.2,2-5.3c1.6,0.6,2.4,0.9,4,1.6c2.7-5.9,6.8-11,12.6-15
		c2.2,3.4,3.2,5.1,5.3,8.6c-4,2.6-7.1,5.9-9.3,10c5.9,2.5,8.7,3.9,14.5,6.7c0-0.1,0.1-0.2,0.1-0.3c4.1-5.7,8-9.4,11.7-11.1
		c3.7-1.7,7.9-1.3,12.3,1.4c4.5,2.7,7.2,6.7,8.2,11.7c1,5.1,0.3,10.4-2.2,15.9c2.1,1.4,3.1,2.1,5.1,3.5
		C398.8,195.4,398.3,196.4,397.1,198.4z M347.4,177.6c0.6,1.9,1.7,3.3,3.3,4.1c1.7,0.8,3.2,0.9,4.7,0.2c1.4-0.6,3.3-2.3,5.5-4.9
		c-5.2-2.6-7.8-3.8-13.2-6.1C346.9,173.4,346.8,175.6,347.4,177.6z M387.9,177.6c-0.4-2.2-1.5-3.8-3.2-4.9c-1.7-1-3.4-1.2-5-0.6
		c-1.6,0.6-3.6,2.3-6,5.1c5.4,3,8,4.5,13.3,7.8C388,182.1,388.3,179.8,387.9,177.6z"/>
	<path class="st2" d="M416.1,250.6L416.1,250.6c0-18.8-14.9-34-33.2-34h-2.3c-31.8-3-56.9-1.9-74.5,0h-4.4v0.5
		c-16.1,2-24.7,4.5-24.7,4.5l-1.8-51.2l-23.3,4.9c-13.3,3-25.4,9.9-34.6,19.9l-50.9,55.2c-12.7,13.7-30.5,21.6-49.2,21.6h-6.4
		L85.8,454.5l63.7,0.6c90.5,35.8,199.4,23.2,199.4,23.2h9.4c18.4,0,33.2-15.2,33.2-34l0,0c0-13.7-7.9-25.4-19.3-30.8h2.3
		c18.4,0,33.2-15.2,33.2-34l0,0c0-13.5-7.7-25.1-18.8-30.6c15.5-2.8,27.4-16.7,27.4-33.4l0,0c0-15.2-9.8-28.1-23.3-32.4
		C406.4,278.6,416.1,265.8,416.1,250.6z"/>
	<rect x="17.5" y="242.9" class="st1" width="106.7" height="259"/>
	<circle class="st0" cx="70.9" cy="461" r="18.7"/>
</g>
</svg>
