<?xml version="1.0" encoding="utf-8"?>
<!-- Generator: Adobe Illustrator 23.0.6, SVG Export Plug-In . SVG Version: 6.00 Build 0)  -->
<svg version="1.1" id="Layer_5" xmlns="http://www.w3.org/2000/svg" xmlns:xlink="http://www.w3.org/1999/xlink" x="0px" y="0px"
	 viewBox="0 0 512 512" style="enable-background:new 0 0 512 512;" xml:space="preserve">
<style type="text/css">
	.st0{fill:#2FBADB;}
	.st1{fill:#E6E9ED;}
	.st2{fill:#FFB531;}
	.st3{fill:#0093BA;}
</style>
<path class="st0" d="M336,304H48c-17.7,0-32-14.3-32-32V48c0-17.7,14.3-32,32-32h288c17.7,0,32,14.3,32,32v224
	C368,289.7,353.7,304,336,304z"/>
<path class="st1" d="M48,208h112v64H48V208z"/>
<path class="st2" d="M128,16h128v48h-32h-32h-32h-32V16z"/>
<path class="st0" d="M480,344h-16c-4.2-29.3-27.4-51.6-56-55.4L392,240c-8,0-15.4,2.3-21.6,6.3c-0.8,0.5-1.6,1-2.4,1.7
	c-5.1,3.8-9.3,8.9-12.1,14.7L360,296l-159.6-0.2c-5.2,2.2-10.2,5-14.8,8.2c-25.1,16.9-41.6,45.5-41.6,78c0,19.4,6.6,37.5,17.9,52
	c11.3,14.5,27.3,25.3,46.1,30l6.5,25.9c0.9,3.6,4.1,6.1,7.8,6.1h19.5c3.7,0,6.9-2.5,7.8-6.1L256,464h96l6.5,25.9
	c0.9,3.6,4.1,6.1,7.8,6.1h19.5c3.7,0,6.9-2.5,7.8-6.1L400,464c28.4,0,53.4-18.8,61.2-46.2l2.8-9.8h16c8.8,0,16-7.2,16-16v-32
	C496,351.2,488.8,344,480,344L480,344z"/>
<path class="st1" d="M368,352v32c0,8.8-7.2,16-16,16H208c-8.8,0-16-7.2-16-16v-32c0-8.8,7.2-16,16-16h8c14.6,19.4,37.8,32,64,32
	s49.4-12.6,64-32h8C360.8,336,368,343.2,368,352z"/>
<path class="st2" d="M355.9,262.7c2.6,7.9,4.1,16.5,4.1,25.3c0,18-6,34.6-16,48c-14.6,19.4-37.8,32-64,32s-49.4-12.6-64-32
	c-8.6-11.4-14.2-25.2-15.6-40.2c-0.2-2.6-0.4-5.2-0.4-7.8c0-44.2,35.8-80,80-80C315.4,208,345.4,231,355.9,262.7L355.9,262.7z"/>
<circle class="st2" cx="424" cy="336" r="8"/>
<path class="st3" d="M480,336h-9.4c-6.7-27.4-28.8-48.8-56.5-54.4L397.8,232H392c-5.5,0-10.9,1.1-16,2.9V48c0-22.1-17.9-40-40-40H48
	C25.9,8,8,25.9,8,48v224c0,22.1,17.9,40,40,40h115.9c-16.2,17.2-26.2,39.7-27.7,64H136v72c0,8.8-7.2,16-16,16s-16-7.2-16-16
	s7.2-16,16-16h8v-16h-8c-17.6,0-32,14.4-32,32s14.4,32,32,32s32-14.4,32-32v-14c11.6,17,28.7,30.2,49.4,36.5l5.4,21.4
	c1.8,7.1,8.2,12.1,15.5,12.1h19.5c7.4,0,13.7-5,15.5-12.1l5-19.9h83.5l5,19.9c1.8,7.1,8.2,12.1,15.5,12.1h19.5
	c7.4,0,13.7-5,15.5-12.1l5-20.2c29.2-2.6,54.4-23.1,62.6-51.7l1.2-4h10c13.2,0,24-10.8,24-24v-32C504,346.8,493.2,336,480,336
	L480,336z M352,344c4.4,0,8,3.6,8,8v32c0,4.4-3.6,8-8,8H208c-4.4,0-8-3.6-8-8v-32c0-4.4,3.6-8,8-8h4.2c16.2,19.5,40.6,32,67.8,32
	s51.7-12.5,67.8-32H352z M280,360c-39.7,0-72-32.3-72-72s32.3-72,72-72s72,32.3,72,72S319.7,360,280,360z M216,40v16h-16V40h-16v16
	h-16V40h-16v16h-16V24h112v32h-16V40H216z M24,272V48c0-13.2,10.8-24,24-24h72v48h144V24h72c13.2,0,24,10.8,24,24v196.4
	c-0.8,0.7-1.6,1.5-2.4,2.3c-14.8-27.8-44-46.7-77.6-46.7c-48.5,0-88,39.5-88,88c0,1,0.1,2,0.2,2.9c-3.1,1.6-6.1,3.2-9,5.1H48
	C34.8,296,24,285.2,24,272L24,272z M488,392c0,4.4-3.6,8-8,8h-22l-4.5,15.6c-6.8,23.8-28.8,40.4-53.5,40.4h-6.2l-8,32h-19.5l-8-32
	H249.8l-8,32h-19.5l-7.6-30.6l-4.7-1.2c-34.1-8.5-57.9-39-57.9-74.2c0-30.7,16.4-58.7,42.4-74.1c1.7,7.4,4.3,14.4,7.7,20.9
	c-10.4,2.6-18.1,12-18.1,23.2v32c0,13.2,10.8,24,24,24h144c13.2,0,24-10.8,24-24v-32c0-11.2-7.7-20.5-18.1-23.2
	c6.4-12.2,10.1-26.1,10.1-40.8c0-8.4-1.2-16.4-3.4-24.1c4.8-8.1,12.7-13.8,21.8-15.4l15.6,47.4l5,0.7c25.3,3.3,45.5,23.3,49.1,48.6
	l1,6.9H480c4.4,0,8,3.6,8,8V392z"/>
<path class="st3" d="M288,264c4.4,0,8,3.6,8,8h16c0-13.2-10.8-24-24-24v-16h-16v16h-24v24c0,13.2,10.8,24,24,24h16c4.4,0,8,3.6,8,8
	v8h-24c-4.4,0-8-3.6-8-8h-16c0,13.2,10.8,24,24,24v16h16v-16h24v-24c0-13.2-10.8-24-24-24h-16c-4.4,0-8-3.6-8-8v-8H288z"/>
<path class="st3" d="M40,200v80h128v-80H40z M152,264H56v-48h96V264z"/>
<path class="st3" d="M72,232h64v16H72V232z"/>
<path class="st3" d="M328,120h16v16h-16V120z"/>
<path class="st3" d="M328,184h16v16h-16V184z"/>
<path class="st3" d="M328,152h16v16h-16V152z"/>
<path class="st3" d="M40,40h16v16H40V40z"/>
<path class="st3" d="M40,104h16v16H40V104z"/>
<path class="st3" d="M40,72h16v16H40V72z"/>
</svg>
