<svg id="Group" xmlns="http://www.w3.org/2000/svg" xmlns:xlink="http://www.w3.org/1999/xlink" width="17.484" height="17.484" viewBox="0 0 17.484 17.484">
  <defs>
    <clipPath id="clip-path">
      <path id="Mask" d="M15.984,17.484h0l-4.967-4.968v-.8l-.282-.282a6.366,6.366,0,0,1-4.218,1.547,6.315,6.315,0,0,1-4.618-1.9A6.287,6.287,0,0,1,0,6.493,6.288,6.288,0,0,1,1.9,1.9,6.288,6.288,0,0,1,6.493,0a6.287,6.287,0,0,1,4.594,1.9,6.315,6.315,0,0,1,1.9,4.618,6.365,6.365,0,0,1-1.547,4.218l.282.282h.8l4.969,4.968-1.5,1.5ZM6.516,2.016A4.359,4.359,0,0,0,3.328,3.328,4.359,4.359,0,0,0,2.016,6.516,4.358,4.358,0,0,0,3.328,9.7a4.359,4.359,0,0,0,3.188,1.313A4.358,4.358,0,0,0,9.7,9.7a4.358,4.358,0,0,0,1.313-3.187A4.359,4.359,0,0,0,9.7,3.328,4.358,4.358,0,0,0,6.516,2.016Z" fill="#333"/>
    </clipPath>
  </defs>
  <path id="Mask-2" data-name="Mask" d="M15.984,17.484h0l-4.967-4.968v-.8l-.282-.282a6.366,6.366,0,0,1-4.218,1.547,6.315,6.315,0,0,1-4.618-1.9A6.287,6.287,0,0,1,0,6.493,6.288,6.288,0,0,1,1.9,1.9,6.288,6.288,0,0,1,6.493,0a6.287,6.287,0,0,1,4.594,1.9,6.315,6.315,0,0,1,1.9,4.618,6.365,6.365,0,0,1-1.547,4.218l.282.282h.8l4.969,4.968-1.5,1.5ZM6.516,2.016A4.359,4.359,0,0,0,3.328,3.328,4.359,4.359,0,0,0,2.016,6.516,4.358,4.358,0,0,0,3.328,9.7a4.359,4.359,0,0,0,3.188,1.313A4.358,4.358,0,0,0,9.7,9.7a4.358,4.358,0,0,0,1.313-3.187A4.359,4.359,0,0,0,9.7,3.328,4.358,4.358,0,0,0,6.516,2.016Z" fill="#333"/>
  <g id="Group-2" data-name="Group" clip-path="url(#clip-path)">
    <g id="_icon-color" data-name="↳🎨icon-color" transform="translate(-27 -27)">
      <rect id="Icon-Shade" width="72" height="72" fill="#333"/>
    </g>
  </g>
</svg>
