<?xml version="1.0" encoding="utf-8"?>
<!-- Generator: Adobe Illustrator 23.0.6, SVG Export Plug-In . SVG Version: 6.00 Build 0)  -->
<svg version="1.1" id="Layer_1" xmlns="http://www.w3.org/2000/svg" xmlns:xlink="http://www.w3.org/1999/xlink" x="0px" y="0px"
	 viewBox="0 0 512 512" style="enable-background:new 0 0 512 512;" xml:space="preserve">
<style type="text/css">
	.st0{fill:#705CB2;}
	.st1{fill:#CCA400;}
	.st2{fill:#FFDA44;}
	.st3{fill:#44358E;}
</style>
<g>
	<path class="st0" d="M440.1,122.3c15.9,0,29.6,11.2,32.7,26.7s-5,31.2-19.7,37.4c-4.2,1.8-8.6,2.7-13.1,2.7
		c-12.7,0-24.3-7.1-29.8-18.5c-2.4-4.6-3.7-9.7-3.6-15c0-11.1,5.4-21.5,14.7-27.7C426.9,124.3,433.4,122.3,440.1,122.3z"/>
	<path class="st0" d="M453.3,325.6c15.4,6.6,23.4,23.5,19,39.6c-4.5,16.1-20.1,26.5-36.7,24.2c-16.5-2.3-28.9-16.4-28.9-33
		c0-5.2,1.3-10.4,3.6-15c5.6-11.3,17.1-18.5,29.8-18.5C444.6,322.9,449.1,323.8,453.3,325.6z"/>
	<path class="st1" d="M334.9,208.3c21.6,35.8,16.5,81.6-12.5,111.6s-74.8,36.7-111.1,16.1c-36.4-20.5-54.4-62.9-43.8-103.4
		c10.6-40.5,47.2-68.6,88.9-68.6C288.4,163.9,318.3,180.7,334.9,208.3z M323.1,256c0-36.8-29.7-66.6-66.5-66.8h-0.4
		c-36.9-0.1-66.9,29.7-67,66.7c-0.1,36.9,29.7,66.9,66.6,67h0.4C293.2,322.9,323.1,292.9,323.1,256z"/>
	<path class="st2" d="M256.2,222.5v-16.7l0.4-16.7c36.9,0.1,66.8,30.1,66.7,67c-0.1,36.9-30.1,66.8-67,66.7h-0.4l0.4-16.7v-16.7
		c9.2,0,16.7-7.5,16.7-16.7s-7.5-16.7-16.7-16.7c-9.2,0-16.7-7.5-16.7-16.7C239.6,230,247,222.5,256.2,222.5z"/>
	<path class="st0" d="M289.7,47.1c0,0.9,0,1.8-0.2,2.7c-1.4,17.4-15.9,30.7-33.3,30.7c-17.5,0-31.9-13.4-33.3-30.7
		c-0.1-0.8-0.2-1.8-0.2-2.7c0-18.5,15-33.5,33.5-33.5S289.7,28.6,289.7,47.1z"/>
	<path class="st0" d="M289.6,462.3c0.1,0.8,0.2,1.8,0.2,2.7c0,18.5-15,33.5-33.5,33.5c-18.5,0-33.5-15-33.5-33.5
		c0-0.9,0-1.8,0.2-2.7c1.4-17.4,15.8-30.7,33.3-30.7C273.7,431.5,288.2,444.9,289.6,462.3z"/>
	<path class="st2" d="M256.2,289.5v16.7l-0.4,16.7c-36.9-0.1-66.8-30.1-66.6-67c0.1-36.9,30.1-66.8,67-66.7h0.4l-0.4,16.7v16.7
		c-9.2,0-16.7,7.5-16.7,16.7s7.5,16.7,16.7,16.7c9.2,0,16.7,7.5,16.7,16.7S265.5,289.5,256.2,289.5z"/>
	<path class="st0" d="M105.8,155.7c0,5.2-1.3,10.4-3.6,15c-5.6,11.3-17.1,18.5-29.8,18.5c-4.5,0-9-0.9-13.2-2.7
		c-15.4-6.6-23.4-23.5-19-39.6c4.5-16.1,20.1-26.5,36.7-24.2C93.5,124.9,105.8,139,105.8,155.7z"/>
	<path class="st0" d="M102.2,341.3c2.4,4.6,3.7,9.7,3.6,15c0,11.1-5.4,21.5-14.7,27.7c-10.6,7.1-24.2,7.7-35.2,1.5
		c-11.1-6.3-17.6-18.3-16.9-31c0.7-12.7,8.6-23.8,20.3-28.9c4.2-1.8,8.6-2.7,13.2-2.7C85,322.8,96.5,330,102.2,341.3z"/>
	<path class="st3" d="M256.2,180.8c-41.5,0-75.2,33.7-75.2,75.2s33.7,75.2,75.2,75.2s75.2-33.7,75.2-75.2
		C331.4,214.5,297.8,180.8,256.2,180.8z M256.2,314.6c-32.3,0-58.6-26.2-58.6-58.6s26.2-58.6,58.6-58.6c32.3,0,58.6,26.2,58.6,58.6
		S288.5,314.5,256.2,314.6z"/>
	<path d="M256.2,230.9c4.6,0,8.4,3.8,8.4,8.4h16.7c0-10.6-6.7-20-16.7-23.5v-9.9h-16.7v9.9c-11.5,4.1-18.4,15.8-16.3,27.8
		c2.1,12,12.5,20.8,24.7,20.8c4.6,0,8.4,3.8,8.4,8.4c0,4.6-3.8,8.4-8.4,8.4c-4.6,0-8.4-3.8-8.4-8.4h-16.7c0,10.6,6.7,20,16.7,23.5
		v9.9h16.7v-9.9c11.5-4.1,18.4-15.8,16.3-27.8c-2.1-12-12.5-20.8-24.7-20.8c-4.6,0-8.4-3.8-8.4-8.4
		C247.9,234.7,251.6,230.9,256.2,230.9z"/>
	<path class="st3" d="M463.2,321.6c13.7-42.7,13.7-88.5,0-131.1c18.1-11.9,24-35.8,13.7-54.8c-10.4-19-33.6-27-53.4-18.3
		c-32-38.8-76.5-65.1-125.9-74.7c-2-21.3-20-37.6-41.4-37.6s-39.3,16.3-41.4,37.6c-49.4,9.5-93.9,35.9-125.9,74.7
		c-5.2-2.3-10.9-3.5-16.6-3.5c-18.4,0-34.6,12.1-39.9,29.7s1.5,36.6,16.8,46.8c-13.7,42.7-13.7,88.5,0,131.1
		c-18.1,11.9-24,35.8-13.7,54.8c10.4,19,33.6,27,53.4,18.3c32,38.8,76.5,65.2,125.9,74.7c2,21.3,20,37.6,41.4,37.6
		s39.3-16.3,41.4-37.6c49.4-9.5,93.9-35.9,125.9-74.7c5.2,2.3,10.9,3.5,16.6,3.5c18.4,0,34.6-12.1,39.9-29.7
		C485.4,350.7,478.6,331.7,463.2,321.6z M456.9,256c0,20.1-3.1,40-9.1,59.3c-2.5-0.5-5-0.7-7.5-0.7c-12.8,0-24.9,6-32.7,16.1
		l-61.2-30.5c13.7-27.7,13.7-60.3,0-88l61.2-30.5c7.8,10.1,19.9,16,32.7,16.1c2.5,0,5.1-0.3,7.5-0.7
		C453.7,216,456.9,235.9,456.9,256z M256.2,339.5c-46.1,0-83.5-37.4-83.5-83.5s37.4-83.5,83.5-83.5s83.5,37.4,83.5,83.5
		C339.7,302.1,302.4,339.5,256.2,339.5z M465.2,155.7c0,13.8-11.2,25.1-25.1,25.1S415,169.6,415,155.7c0-13.8,11.2-25.1,25.1-25.1
		S465.2,141.8,465.2,155.7z M295.9,59.6c44.5,8.9,84.7,32.7,113.9,67.7c-10,10.4-13.8,25.4-9.8,39.3l-62.3,31.1
		c-17-23.8-43.8-39-73-41.5V88C279.4,84.9,291.4,74.1,295.9,59.6z M256.2,22c13.8,0,25.1,11.2,25.1,25.1c0,13.8-11.2,25.1-25.1,25.1
		c-13.9,0-25.1-11.2-25.1-25.1C231.2,33.2,242.4,22,256.2,22z M216.6,59.6c4.5,14.4,16.5,25.3,31.3,28.4v68.2
		c-29.3,2.5-55.9,17.7-73,41.5l-62.3-31.2c4.1-13.9,0.3-28.9-9.8-39.3C131.9,92.4,172,68.5,216.6,59.6z M72.4,130.6
		c13.8,0,25.1,11.2,25.1,25.1c0,13.8-11.2,25.1-25.1,25.1s-25.1-11.2-25.1-25.1C47.3,141.8,58.5,130.6,72.4,130.6z M55.6,256
		c0-20.1,3.1-40,9.1-59.3c2.5,0.5,5,0.7,7.5,0.7c12.8,0,24.9-6,32.7-16.1l61.2,30.5c-13.7,27.7-13.7,60.3,0,88L105,330.4
		c-7.8-10.1-19.9-16-32.7-16.1c-2.5,0-5.1,0.3-7.5,0.7C58.8,296,55.6,276.1,55.6,256z M47.3,356.3c0-13.8,11.2-25.1,25.1-25.1
		s25.1,11.2,25.1,25.1c0,13.8-11.2,25.1-25.1,25.1S47.3,370.2,47.3,356.3z M216.6,452.5c-44.5-8.9-84.7-32.7-113.9-67.7
		c10-10.4,13.8-25.4,9.8-39.3l62.3-31.2c17,23.8,43.8,39,73,41.5V424C233.1,427.1,221.1,437.9,216.6,452.5z M256.2,490
		c-13.8,0-25.1-11.2-25.1-25.1c0-13.8,11.2-25.1,25.1-25.1c13.9,0,25.1,11.2,25.1,25.1C281.3,478.8,270.1,490,256.2,490z
		 M295.9,452.5c-4.5-14.4-16.5-25.3-31.3-28.4v-68.2c29.3-2.5,55.9-17.6,73-41.5l62.3,31.2c-4.1,13.9-0.3,28.9,9.8,39.3
		C380.6,419.6,340.5,443.5,295.9,452.5z M440.1,381.4c-13.8,0-25.1-11.2-25.1-25.1c0-13.8,11.2-25.1,25.1-25.1s25.1,11.2,25.1,25.1
		C465.2,370.2,453.9,381.4,440.1,381.4z"/>
</g>
</svg>
