<?xml version="1.0" encoding="utf-8"?>
<!-- Generator: Adobe Illustrator 23.0.6, SVG Export Plug-In . SVG Version: 6.00 Build 0)  -->
<svg version="1.1" id="Layer_1" xmlns="http://www.w3.org/2000/svg" xmlns:xlink="http://www.w3.org/1999/xlink" x="0px" y="0px"
	 viewBox="0 0 512 512" style="enable-background:new 0 0 512 512;" xml:space="preserve">
<style type="text/css">
	.st0{fill:#0093BA;}
	.st1{fill:#2FBADB;}
	.st2{fill:#F1CFA2;}
	.st3{fill:#FFDAAA;}
	.st4{fill:#FFB531;}
	.st5{fill:#3E3D42;}
</style>
<polygon class="st0" points="280,344 307.2,351.2 232,440 156.8,351.2 184,344 232,400 "/>
<path class="st1" d="M120,488H32v-30c0-43.6,29.4-81.8,71.6-92.8l53.2-14L232,440l75.2-88.8l29.6,7.8
	c-27.1,34.9-20.7,85.2,14.2,112.2c14,10.9,31.3,16.8,49,16.8H120z"/>
<path class="st2" d="M120,232c-13.3,0-24-10.7-24-24s10.7-24,24-24h16v48H120z"/>
<path class="st2" d="M361,225c-4.5,4.5-10.6,7-17,7h-16v-48h16c13.3,0,24,10.8,24,24C368,214.4,365.4,220.5,361,225L361,225z"/>
<path class="st3" d="M280,308.2V344l-48,56l-48-56v-35.8C214.1,323.9,249.9,323.9,280,308.2z"/>
<path class="st3" d="M336,184v32c0,57.4-46.6,104-104,104s-104-46.6-104-104v-45.4c2.6,0.3,5.2-0.1,7.7-1.1
	c23.5-9.4,67.9-33.4,96.3-33.4s72.8,24.1,96.3,33.4c2.4,1,5.1,1.4,7.7,1.1V184z"/>
<path class="st1" d="M141.8,41.4l24,71.9c-13.4,2.7-26.2,5.7-36.6,8.2c-3.4,0.8-6.5,2.4-9.2,4.6V71.7C120,58,128.8,45.8,141.8,41.4z
	"/>
<path class="st1" d="M344,72.2V126c-2.7-2.2-5.8-3.7-9.2-4.6c-12.2-3-27.7-6.6-43.4-9.7l29.4-70.4C334.5,45.3,344,57.9,344,72.2z"/>
<path class="st4" d="M320.7,41.4l-29.4,70.4c-19.5-4.3-39.4-6.9-59.4-7.8c-22.3,1.1-44.5,4.2-66.2,9.3l-24-71.9
	c0.4-0.2,0.9-0.2,1.3-0.4c24.6-7.1,63.4-17,89-17c20.9,0,62.2,10.2,88.4,17.4C320.5,41.4,320.6,41.4,320.7,41.4z"/>
<path class="st0" d="M344,126.1c7.9,6.3,11.1,16.8,7.8,26.4l-2.4,7.2c-2.7,8.3-11.6,12.9-19.9,10.2c-0.4-0.1-0.8-0.3-1.2-0.4
	c-23.5-9.4-67.9-33.4-96.3-33.4s-72.8,24.1-96.3,33.4c-8.1,3.3-17.3-0.5-20.7-8.6c-0.2-0.4-0.3-0.8-0.4-1.2l-2.4-7.2
	c-3.2-9.6-0.1-20.1,7.8-26.4c2.7-2.2,5.8-3.7,9.2-4.6c10.4-2.6,23.2-5.5,36.6-8.2c21.8-5.1,43.9-8.2,66.2-9.3
	c20,0.9,39.8,3.5,59.4,7.8c15.8,3.1,31.2,6.6,43.4,9.7C338.2,122.3,341.3,123.9,344,126.1z"/>
<path class="st2" d="M280,308.2v16c-30.1,15.7-65.9,15.7-96,0v-16C214.1,323.9,249.9,323.9,280,308.2z"/>
<path class="st2" d="M232,240c-13.3,0-24-10.7-24-24v-32h16v32c0,4.4,3.6,8,8,8s8-3.6,8-8v-32h16v32C256,229.3,245.3,240,232,240z"
	/>
<circle class="st5" cx="184" cy="184" r="8"/>
<rect x="112" y="424" class="st0" width="16" height="64"/>
<path class="st4" d="M232,280c-17.8,0.8-35.1-6.1-47.6-18.8l12.1-10.5c9.5,9.1,22.4,13.9,35.5,13.2c13.2,0.7,26-4.1,35.5-13.2
	l12.1,10.5C267.1,273.9,249.8,280.8,232,280z"/>
<circle class="st5" cx="280" cy="184" r="8"/>
<g>
	<g>
		<path class="st0" d="M400,328c-44.2,0-80,35.8-80,80s35.8,80,80,80s80-35.8,80-80S444.2,328,400,328z M434.6,423.2h-33.9
			c-0.1,0-0.2,0-0.3,0c-0.1,0-0.2,0-0.3,0c-3.1,0-5.5-2.5-5.5-5.5v-56.5c0-3.1,2.5-5.5,5.5-5.5s5.5,2.5,5.5,5.5v50.9h29.1
			c3.1,0,5.5,2.5,5.5,5.5C440.1,420.7,437.6,423.2,434.6,423.2z"/>
	</g>
</g>
</svg>
