<?xml version="1.0" encoding="utf-8"?>
<!-- Generator: Adobe Illustrator 23.0.6, SVG Export Plug-In . SVG Version: 6.00 Build 0)  -->
<svg version="1.1" id="Capa_1" xmlns="http://www.w3.org/2000/svg" xmlns:xlink="http://www.w3.org/1999/xlink" x="0px" y="0px"
	 viewBox="0 0 512 512" style="enable-background:new 0 0 512 512;" xml:space="preserve">
<style type="text/css">
	.st0{fill:#2FBADB;}
	.st1{fill:#4BB9F5;}
	.st2{fill:#FFB531;}
	.st3{fill:#FF3051;}
	.st4{fill:#0093BA;}
</style>
<path class="st0" d="M416.5,95.6c-41.2-41.4-98.1-66.8-160.9-66.8S135.9,54.2,94.7,95.6c-41.4,41.2-66.8,98.1-66.8,160.9
	c0,125.6,102.1,227.7,227.7,227.7c7.6,0,15-0.4,22.4-1.1l95.2-38.9l43.1-31.9l29-30c23.9-36.1,37.9-79.3,37.9-125.8
	C483.3,193.7,457.9,136.8,416.5,95.6z"/>
<circle class="st1" cx="256" cy="256" r="24"/>
<path class="st2" d="M456,256c0,110.5-89.5,200-200,200c-110.8,0-200-89.2-200-200c0-110.5,89.5-200,200-200
	c29.7,0,58,6.5,83.3,18.2L314.5,99h88.6V10.4l-29.5,29.5C339.2,21.1,299.8,10.3,257.9,10C122.4,9,10,120.4,10,256
	c0,135.9,110.1,246,246,246s246-110.1,246-246H456z"/>
<path class="st3" d="M290,256c0-15.3-10.1-28.2-24-32.5v-87c0-5.5-4.5-10-10-10s-10,4.5-10,10v87c-2.1,0.6-4,1.5-5.9,2.5l-27.5-27.5
	c-3.9-3.9-10.2-3.9-14.1,0c-3.9,3.9-3.9,10.2,0,14.1l27.5,27.5c-2.5,4.7-4,10.2-4,15.9c0,18.7,15.3,34,34,34S290,274.7,290,256z
	 M256,270c-7.7,0-14-6.3-14-14s6.3-14,14-14c7.7,0,14,6.3,14,14C270,263.7,263.7,270,256,270z"/>
<path class="st2" d="M350.5,174.3h-3.4c-14.9,0-27,12.1-27,27v17c0,5.5,4.5,10,10,10h37.4c5.5,0,10-4.5,10-10s-4.5-10-10-10h-27.4
	v-7c0-3.9,3.1-7,7-7h3.4c14.9,0,27-12.1,27-27s-12.1-27-27-27h-20.4c-5.5,0-10,4.5-10,10s4.5,10,10,10h20.4c3.9,0,7,3.1,7,7
	S354.3,174.3,350.5,174.3z"/>
<path class="st2" d="M407.6,147.4c0-5.5-4.5-10-10-10s-10,4.5-10,10v37.4c0,5.5,4.5,10,10,10H425v23.6c0,5.5,4.5,10,10,10
	s10-4.5,10-10v-71c0-5.5-4.5-10-10-10s-10,4.5-10,10v27.4h-17.4V147.4z"/>
<path class="st2" d="M476.5,170.9h-1.9v-23.6c0-5.5-4.5-10-10-10s-10,4.5-10,10v71c0,5.5,4.5,10,10,10s10-4.5,10-10v-27.4h1.9
	c8.6,0,15.5,7,15.5,15.5v11.9c0,5.5,4.5,10,10,10s10-4.5,10-10v-11.9C512,186.9,496.1,170.9,476.5,170.9z"/>
<path class="st2" d="M255.6,412.3c-2.6,0-5.2,1.1-7.1,2.9c-1.9,1.9-2.9,4.4-2.9,7.1c0,2.6,1.1,5.2,2.9,7.1c1.9,1.9,4.4,2.9,7.1,2.9
	c2.6,0,5.2-1.1,7.1-2.9c1.9-1.9,2.9-4.4,2.9-7.1s-1.1-5.2-2.9-7.1C260.8,413.4,258.2,412.3,255.6,412.3z"/>
<path class="st2" d="M130.9,366.5c-1.9,1.9-2.9,4.4-2.9,7.1c0,2.6,1.1,5.2,2.9,7.1c1.9,1.9,4.4,2.9,7.1,2.9c2.6,0,5.2-1.1,7.1-2.9
	c1.9-1.9,2.9-4.4,2.9-7.1c0-2.6-1.1-5.2-2.9-7.1c-1.9-1.9-4.4-2.9-7.1-2.9C135.4,363.6,132.8,364.7,130.9,366.5z"/>
<path class="st2" d="M82.2,248.9c-1.9,1.9-2.9,4.4-2.9,7.1c0,2.6,1.1,5.2,2.9,7.1c1.9,1.9,4.4,2.9,7.1,2.9s5.2-1.1,7.1-2.9
	c1.9-1.9,2.9-4.4,2.9-7.1s-1.1-5.2-2.9-7.1S92,246,89.3,246S84.1,247.1,82.2,248.9z"/>
<path class="st2" d="M145.1,145.5c1.9-1.9,2.9-4.4,2.9-7.1c0-2.6-1.1-5.2-2.9-7.1c-1.9-1.9-4.4-2.9-7.1-2.9c-2.6,0-5.2,1.1-7.1,2.9
	c-1.9,1.9-2.9,4.4-2.9,7.1s1.1,5.2,2.9,7.1c1.9,1.9,4.4,2.9,7.1,2.9C140.6,148.4,143.2,147.3,145.1,145.5z"/>
<path class="st2" d="M255.6,99.7c2.6,0,5.2-1.1,7.1-2.9s2.9-4.4,2.9-7.1s-1.1-5.2-2.9-7.1c-1.9-1.9-4.4-2.9-7.1-2.9
	c-2.6,0-5.2,1.1-7.1,2.9c-1.9,1.9-2.9,4.4-2.9,7.1c0,2.6,1.1,5.2,2.9,7.1C250.4,98.6,253,99.7,255.6,99.7z"/>
<path class="st2" d="M373.2,383.6c2.6,0,5.2-1.1,7.1-2.9c1.9-1.9,2.9-4.4,2.9-7.1c0-2.6-1.1-5.2-2.9-7.1c-1.9-1.9-4.4-2.9-7.1-2.9
	c-2.6,0-5.2,1.1-7.1,2.9c-1.9,1.9-2.9,4.4-2.9,7.1c0,2.6,1.1,5.2,2.9,7.1C368,382.5,370.6,383.6,373.2,383.6z"/>
<path class="st4" d="M502,246h-46c-5.5,0-10,4.5-10,10c0,104.8-85.2,190-190,190c-50.9,0-98.7-19.7-134.5-55.5S66,306.9,66,256
	c0-104.8,85.2-190,190-190c22.7,0,44.7,3.9,65.7,11.7L307.4,92c-2.9,2.9-3.7,7.2-2.2,10.9c1.5,3.7,5.2,6.2,9.2,6.2H403
	c5.5,0,10-4.5,10-10V10.4c0-4-2.4-7.7-6.2-9.2c-3.7-1.5-8-0.7-10.9,2.2l-24.3,24.3C336.7,9.8,297.5,0.3,258,0
	c-55-0.4-107.6,16.7-152.3,49.4c-4.5,3.3-5.4,9.5-2.2,14c3.3,4.5,9.5,5.4,14,2.2C158.2,35.7,206.1,20,256,20c0.6,0,1.2,0,1.8,0
	c38.8,0.3,77.2,10.2,111,28.7c3.9,2.1,8.7,1.4,11.9-1.7l12.5-12.5V89h-54.5l7.8-7.8c2.3-2.3,3.4-5.6,2.8-8.8s-2.7-6-5.7-7.3
	C316,52.4,286.5,46,256,46C140.2,46,46,140.2,46,256c0,56.3,21.8,109,61.4,148.6S199.8,466,256,466c112.4,0,204.5-88.8,209.8-200h26
	c-5.3,125.5-109,226-235.8,226C125.9,492,20,386.1,20,256c0-47.2,14.2-93,41.1-132.3c3.1-4.6,2-10.8-2.6-13.9s-10.8-2-13.9,2.6
	C15.4,155.1,0,204.7,0,256c0,68.4,26.6,132.7,75,181s112.6,75,181,75s132.7-26.6,181-75s75-112.6,75-181
	C512,250.5,507.5,246,502,246z"/>
<path class="st4" d="M81.2,93.7c2.6,0,5.2-1,7.2-3l-7.1-7.1l7.1,7.1c3.9-3.9,3.9-10.2,0-14.1s-10.2-3.9-14.1,0l-0.2,0.2
	c-3.8,4-3.7,10.3,0.2,14.2C76.2,92.8,78.7,93.7,81.2,93.7z"/>
<path class="st4" d="M256,369c-62.3,0-113-50.7-113-113c0-5.5-4.5-10-10-10s-10,4.5-10,10c0,73.3,59.7,133,133,133
	c5.5,0,10-4.5,10-10S261.5,369,256,369z"/>
</svg>
