<?xml version="1.0" encoding="utf-8"?>
<!-- Generator: Adobe Illustrator 23.0.3, SVG Export Plug-In . SVG Version: 6.00 Build 0)  -->
<svg version="1.1" id="Capa_1" xmlns="http://www.w3.org/2000/svg" xmlns:xlink="http://www.w3.org/1999/xlink" x="0px" y="0px"
	 viewBox="0 0 576.1 512" style="enable-background:new 0 0 576.1 512;" xml:space="preserve">
<style type="text/css">
	.st0{fill:#5A4FEF;}
</style>
<path d="M536.1,334.3V111.9c0-11.3-9.2-20.5-20.5-20.5h-13.3v-8.6c0-14.5-11.8-26.3-26.3-26.3H347c-18.4,0-35,10-44,25.2
	c-9-15.2-25.6-25.2-44-25.2H105.4c-14.5,0-26.3,11.8-26.3,26.3v8.6H60.5c-11.3,0-20.4,9.2-20.4,20.4v42.1c0,3.9,3.1,7,7,7h0
	c3.9,0,7-3.1,7-7v-42.1c0-3.6,2.9-6.5,6.4-6.5h18.6v250.3c0,14.5,11.8,26.3,26.3,26.3h280.3c3.4,6,2.7,12.1,0.2,19.9h-53.1l-0.8,6.1
	c-1.9,14.4-14.3,25.3-28.9,25.3s-27-10.9-28.9-25.3l-0.8-6.1H60.5c-3.6,0-6.4-2.9-6.4-6.4V177.3c0-3.9-3.1-7-7-7h0c-3.9,0-7,3.1-7,7
	v218.2c0,11.3,9.2,20.4,20.4,20.4h201.1c5.2,18.2,22,31.3,41.5,31.3s36.3-13.1,41.5-31.3h36.2c-3.9,10.9-6.5,22.8,0.9,35.1
	c1.6,2.6,4.3,4.2,7.4,4.3h0.4c2.9,0,5.6-1.4,7.3-3.8c2-2.8,5-5.8,9-9.1c5.4,3.8,11.1,7.2,17.5,10.6c3.4,1.8,7.6,1.2,10.4-1.4
	c2.8-2.6,3.7-6.7,2.1-10.3c-3.4-7.7-0.4-16,3.2-25.5h76.6c11.3,0,20.4-9.2,20.4-20.4v-38c0-3.9-3.1-7-7-7l0,0c-3.9,0-7,3.1-7,7v38
	c0,3.6-2.9,6.4-6.4,6.4h-71.9c1.6-6.3,2.3-13,0.3-19.9h32.4c14.2-0.2,25.8-12,25.8-26.3V177.3c0-3.9-3.1-7-7-7h0c-3.9,0-7,3.1-7,7
	v178.5c0,6.6-5.4,12.1-12,12.3H310.1V107.6c0-2.6,0.3-5.2,0.8-7.7c3.6-17,18.8-29.3,36.2-29.3h129c6.8,0,12.3,5.5,12.3,12.3v71.2
	c0,3.9,3.1,7,7,7h0c3.9,0,7-3.1,7-7v-48.6h13.3c3.5,0,6.4,2.9,6.4,6.5v222.4c0,3.9,3.1,7,7,7l0,0
	C532.9,341.3,536.1,338.2,536.1,334.3z M296.1,368H105.4c-6.8,0-12.3-5.5-12.3-12.3V82.9c0-6.8,5.5-12.3,12.3-12.3h153.7
	c17.4,0,32.6,12.3,36.2,29.3c0.5,2.5,0.8,5.1,0.8,7.7V368z M396,415c3.7-9.7,8.1-21.2,4.8-33H429c4.4,8,1.7,16.1-2.8,28
	c-3,7.8-6.2,16.4-6,25.3c-3.3-2-6.3-4.1-9.3-6.3c-3.2-2.4-7.7-2.4-10.9,0.1c-3.5,2.6-6.5,5.2-9,7.7C390.2,430.1,392.9,423,396,415z"
	/>
<g>
	<g>
		<g>
			<path class="st0" d="M202.3,218.1c-4.7,3.6-4.7,6.2-4.7,10.6c0,1.6-0.8,3.5-5,3.5c-3.5,0-4.7-1.3-4.7-5.7
				c0-7.3,3.2-10.8,5.7-12.9c2.8-2.4,7.5-5,7.5-9.6c0-3.9-3.4-5.8-7.6-5.8c-8.6,0-6.8,6.5-11.4,6.5c-2.3,0-5.1-1.5-5.1-4.8
				c0-4.6,5.3-11.4,16.7-11.4c10.9,0,18.1,6,18.1,14C211.8,210.6,204.6,216.4,202.3,218.1z M199.2,244.6c0,3.5-2.9,6.5-6.5,6.5
				s-6.4-3.1-6.4-6.5c0-3.6,2.9-6.5,6.4-6.5S199.2,241,199.2,244.6z"/>
		</g>
		<path class="st0" d="M194.6,283.1c-35.2,0-63.8-28.6-63.8-63.8s28.6-63.8,63.8-63.8s63.8,28.6,63.8,63.8S229.7,283.1,194.6,283.1z
			 M194.6,171c-26.6,0-48.3,21.7-48.3,48.3s21.7,48.3,48.3,48.3s48.3-21.7,48.3-48.3S221.2,171,194.6,171z"/>
	</g>
</g>
<g>
	<g>
		<path class="st0" d="M332.4,164.5c0-0.3,0.1-0.6,0.2-1l16.6-54.5c1-3.1,5-4.6,9.1-4.6c4.1,0,8.1,1.5,9.1,4.6l16.7,54.5
			c0.1,0.4,0.2,0.7,0.2,1c0,3.3-5.1,5.7-8.9,5.7c-2.2,0-4-0.7-4.6-2.6l-3-11.2H349l-3,11.2c-0.5,1.9-2.3,2.6-4.6,2.6
			C337.5,170.3,332.4,167.9,332.4,164.5z M364.9,145.8l-6.5-24l-6.5,24H364.9z"/>
		<path class="st0" d="M424.3,144.7V166c0,2.4-2.9,4.3-6.8,4.3c-3.5,0-6.2-1.9-6.2-4.3v-2c-3.2,3.8-7.3,7.2-13.6,7.2
			c-6.2,0-11.4-3.8-11.4-11.9c0-10.5,8.6-13.5,20.9-13.5h3.2v-0.9c0-3-1.6-6.6-6.7-6.6c-7.3,0-8,2.9-10.5,2.9c-3,0-4.6-3.7-4.6-6.9
			c0-4.2,8.7-7.2,15.3-7.2C418.6,127.2,424.3,135.7,424.3,144.7z M410.5,152.5h-0.4c-5.1,0-9.8,0.5-9.8,4.8c0,2.6,1.4,3.8,3.5,3.8
			c2.8,0,6.7-3.7,6.7-8.2V152.5z"/>
	</g>
</g>
<path class="st0" d="M465.1,209H335.4c-3.7,0-6.7-3.5-6.7-7.7s3-7.7,6.7-7.7h129.7c3.7,0,6.7,3.5,6.7,7.7S468.8,209,465.1,209z"/>
<path class="st0" d="M465.1,252.3H335.4c-3.7,0-6.7-3.5-6.7-7.7s3-7.7,6.7-7.7h129.7c3.7,0,6.7,3.5,6.7,7.7S468.8,252.3,465.1,252.3
	z"/>
<path class="st0" d="M413.6,295.5h-77c-4.4,0-7.9-3.5-7.9-7.7s3.5-7.7,7.9-7.7h77c4.4,0,7.9,3.5,7.9,7.7
	C421.6,292,418,295.5,413.6,295.5z"/>
</svg>
