<?xml version="1.0" encoding="utf-8"?>
<!-- Generator: Adobe Illustrator 23.0.6, SVG Export Plug-In . SVG Version: 6.00 Build 0)  -->
<svg version="1.1" id="Layer_1" xmlns="http://www.w3.org/2000/svg" xmlns:xlink="http://www.w3.org/1999/xlink" x="0px" y="0px"
	 viewBox="0 0 512 512" style="enable-background:new 0 0 512 512;" xml:space="preserve">
<style type="text/css">
	.st0{fill:#1AB975;}
	.st1{fill:#D63030;}
	.st2{fill:#F44545;}
	.st3{fill:#AF2727;}
	.st4{fill:#1ED688;}
	.st5{fill:#169B62;}
	.st6{fill:#5A4146;}
	.st7{fill:#694B4B;}
	.st8{fill:#E6AF78;}
	.st9{fill:#D29B6E;}
	.st10{fill:#F4CF67;}
	.st11{fill:#E8B423;}
	.st12{fill:#F0C087;}
	.st13{fill:#E9C348;}
	.st14{fill:#B79535;}
	.st15{fill:#707487;}
	.st16{fill:#5B5D6E;}
</style>
<g>
	<path class="st0" d="M109.1,216.2c-14.5-16.4-36.5-50.4-32.2-101.9l-39.1,5c0,0,1.1,78.2,66.7,103.6
		C108.6,224.4,112,219.5,109.1,216.2z"/>
	<path class="st1" d="M512,18.4v111c0,9.1-7.3,16.4-16.4,16.4H317.8c-9.1,0-16.4-7.3-16.4-16.4v-111c0-9.1,7.3-16.4,16.4-16.4h177.8
		C504.7,2,512,9.3,512,18.4z"/>
	<path class="st2" d="M512,18.4v111c0,9.1-7.3,16.4-16.4,16.4H350.1c-9.1,0-16.4-7.3-16.4-16.4v-111C333.7,9.3,341,2,350.1,2h145.5
		C504.7,2,512,9.3,512,18.4z"/>
	<path class="st2" d="M474.2,119.3c0,0-1.1,78.2-66.7,103.6c-4.1,1.6-7.5-3.4-4.6-6.7c14.5-16.4,36.5-50.4,32.2-101.9"/>
	<path class="st3" d="M417.7,73.9l24.7-24.7c3.1-3.1,3.1-8,0-11.1s-8-3.1-11.1,0l-24.7,24.7L382,38.1c-3.1-3.1-8-3.1-11.1,0
		c-3.1,3.1-3.1,8,0,11.1l24.7,24.7l-24.7,24.7c-3.1,3.1-3.1,8,0,11.1c1.5,1.5,3.5,2.3,5.5,2.3c2,0,4-0.8,5.5-2.3L406.7,85l24.7,24.7
		c1.5,1.5,3.5,2.3,5.5,2.3c2,0,4-0.8,5.5-2.3c3.1-3.1,3.1-8,0-11.1L417.7,73.9z"/>
	<path class="st0" d="M210.6,18.4v111c0,9.1-7.3,16.4-16.4,16.4H16.4c-9.1,0-16.4-7.3-16.4-16.4v-111C0,9.3,7.3,2,16.4,2h177.9
		C203.3,2,210.6,9.3,210.6,18.4z"/>
	<path class="st4" d="M210.6,18.4v111c0,9.1-7.3,16.4-16.4,16.4H47.7c-9.1,0-16.4-7.3-16.4-16.4v-111C31.3,9.3,38.6,2,47.7,2h146.6
		C203.3,2,210.6,9.3,210.6,18.4z"/>
	<path class="st5" d="M140.3,46.5l-38.8,38.8L86.8,70.6c-2.9-2.9-7.7-2.9-10.6,0c-2.9,2.9-2.9,7.7,0,10.6l20,20
		c1.5,1.5,3.4,2.2,5.3,2.2s3.8-0.7,5.3-2.2L151,57.2c2.9-2.9,2.9-7.7,0-10.6C148,43.6,143.3,43.6,140.3,46.5z"/>
	<g>
		<path class="st6" d="M358.6,324.8v5c0,6.2,1,12.3,2.9,18.2l11.4,34.3h21.6v-79h-14.4C368.2,303.2,358.6,312.9,358.6,324.8z"/>
		<path class="st7" d="M457,339.7l-12.2,42.6L387.3,332c-7.9,0-14.4-6.4-14.4-14.4l0,0c0-11.9,9.7-21.6,21.6-21.6h50.3
			c7.9,0,14.4,6.4,14.4,14.4v13.5C459.2,329.3,458.4,334.6,457,339.7z"/>
		<rect x="387.3" y="403.8" class="st8" width="43.1" height="31.8"/>
		<path class="st9" d="M387.3,417c6.7,2.7,13.9,4.2,21.6,4.2s14.9-1.5,21.6-4.2v-13.2h-43.1L387.3,417L387.3,417z"/>
		<path class="st10" d="M465.1,431.2l-34.7-9.9l-21.6,14.3l-21.6-14.3l-34.7,9.9c-9.3,2.6-15.6,11.1-15.6,20.7v52.5
			c0,4,3.2,7.2,7.2,7.2h129.3c4,0,7.2-3.2,7.2-7.2v-52.5C480.7,442.3,474.4,433.8,465.1,431.2z"/>
		<polygon class="st11" points="416.1,511.6 401.7,511.6 405.3,435.6 412.5,435.6 		"/>
		<path class="st12" d="M408.9,411L408.9,411c-23.8,0-43.1-19.3-43.1-43.1v-8.4c0-3.8,1.5-7.5,4.2-10.2l13-13
			c2.8-2.8,6.5-4.3,10.4-4.2c23,0.7,43.3,5.6,54.4,16.5c2.7,2.7,4.1,6.4,4.1,10.2v9.2C452,391.7,432.7,411,408.9,411z"/>
		<path class="st8" d="M387.3,361.3c0-8.3,7-14.9,15.2-14.3c14.5,0.9,36,3.3,49.2,9.7c-0.4-3-1.7-5.9-3.9-8
			c-11.1-10.9-31.4-15.8-54.4-16.5l0,0v0c-3.9-0.1-7.7,1.5-10.4,4.2l-13,13c-2.7,2.7-4.2,6.3-4.2,10.2v8.4
			c0,19.7,13.2,36.2,31.2,41.4c-6-7.4-9.6-16.8-9.6-27L387.3,361.3L387.3,361.3z"/>
		<path class="st13" d="M452,473.3c0-5.7,2.3-11.2,6.3-15.2l18.5-18.5c2.5,3.5,3.9,7.8,3.9,12.3v52.5c0,4-3.2,7.2-7.2,7.2H452
			L452,473.3L452,473.3z"/>
		<path class="st14" d="M412.5,450h-7.2c-2,0-3.6-1.6-3.6-3.6v-10.8h14.4v10.8C416.1,448.4,414.5,450,412.5,450z"/>
		<g>
			<g>
				<path class="st13" d="M408.9,435.6l-12.2,9.3c-2.1,1.6-5.1,1-6.4-1.4l-10.9-20l4.4-6.7c1-1.5,3.1-1.7,4.4-0.5L408.9,435.6z"/>
				<path class="st13" d="M408.9,435.6l12.2,9.3c2.1,1.6,5.1,1,6.4-1.4l10.9-20l-4.4-6.7c-1-1.5-3.1-1.7-4.4-0.5L408.9,435.6z"/>
			</g>
		</g>
		<path class="st6" d="M163.9,408c-6.1-16.3-11-44.2-12.1-58.8c-2-27.7-22.9-50.3-51.1-50.3s-49.1,22.6-51.1,50.3
			c-1.1,14.6-5.9,42.5-12.1,58.8c-1.4,3.6,0.2,7.5,3.7,9.1c6.6,3,20.6,8.8,37.5,11.1h43.8c16.8-2.3,31-8.1,37.5-11.1
			C163.7,415.5,165.2,411.6,163.9,408z"/>
		<path class="st7" d="M160.1,417.1c3.5-1.6,5.1-5.6,3.7-9.1c-6.1-16.3-11-44.2-12.1-58.8c-2-27.7-22.9-50.3-51.1-50.3
			c-0.1,0-0.1,0-0.2,0c-21.7,0.1-29.3,29.6-10.7,40.6c1.1,0.7,1.8,1,1.8,1l16.3,87.7h14.6C139.5,426,153.6,420.1,160.1,417.1z"/>
		<path class="st8" d="M152.7,442.7L129.4,431c-4.9-2.4-7.9-7.4-7.9-12.9l0-21.6H78.4v21.6c0,5.4-3.1,10.4-7.9,12.9l-23.3,11.6
			c-7.3,3.7-11.9,11.1-11.9,19.3v42.5c0,4,3.2,7.2,7.2,7.2h115c4,0,7.2-3.2,7.2-7.2v-42.5C164.6,453.8,160,446.3,152.7,442.7z"/>
		<path class="st9" d="M99.9,425.4c7.7,0,15.1-1.6,21.9-4.4c-0.2-0.9-0.4-1.8-0.4-2.8l0-21.6H78.4v21.6c0,0.9-0.2,1.9-0.4,2.8
			C84.8,423.8,92.2,425.4,99.9,425.4z"/>
		<path class="st10" d="M152.7,442.7l-16.6-8.3c-7.7,11.9-21,19.7-36.2,19.7s-28.5-7.9-36.2-19.7l-16.6,8.3
			c-7.3,3.7-11.9,11.1-11.9,19.3v42.5c0,4,3.2,7.2,7.2,7.2h115c4,0,7.2-3.2,7.2-7.2v-42.5C164.6,453.8,160,446.3,152.7,442.7z"/>
		<path class="st12" d="M99.9,411L99.9,411c-21.9,0-40-16.4-42.8-37.5c-0.4-3.1,1.1-6.1,3.8-7.5c3.3-1.7,8.1-4.5,12.7-8.6
			c5.1-4.6,8.1-9.4,9.8-12.9c1.5-3,4.8-4.8,8.1-3.9c25.3,6.5,42.5,19.6,48.8,25c1.7,1.4,2.6,3.6,2.5,5.8
			C141.2,393.5,122.6,411,99.9,411z"/>
		<path class="st8" d="M140.4,365.5c-6.2-5.4-23.5-18.5-48.8-25c-3.3-0.8-6.6,0.9-8.1,3.9c-1.3,2.7-3.4,6.1-6.6,9.6c0,0,0,0,0,0
			c-1,1.1-2,2.2-3.3,3.3c-4.6,4.1-9.4,6.9-12.7,8.6c-2.8,1.4-4.2,4.4-3.8,7.5c2.5,19,17.3,34.2,36.2,37c-8.6-5.9-15-13.9-15-28.2
			V372c1.6-1.2,3.3-2.4,4.9-3.9c4-3.6,7.5-7.7,10.3-12.1c19.4,6,32.5,16.1,37.4,20.4c1.4,1.2,4.7,4.3,8.7,8
			c1.7-4.1,2.8-8.5,3.2-13.1C143.1,369.1,142.1,367,140.4,365.5z"/>
		<path class="st13" d="M39.6,449c-2.8,3.7-4.4,8.2-4.4,13v42.5c0,4,3.2,7.2,7.2,7.2H64v-36.2c0-4.4-2-8.5-5.4-11.2L39.6,449z"/>
		<path class="st13" d="M361.2,432.9L301.1,411L258,425.4L214.9,411l-60.1,21.9c-11.4,4.1-18.9,14.9-18.9,27v44.5
			c0,4,3.2,7.2,7.2,7.2H373c4,0,7.2-3.2,7.2-7.2v-44.5C380.1,447.8,372.6,437,361.2,432.9z"/>
		<polygon class="st15" points="250.5,439.7 243.6,511.6 272.4,511.6 265.5,439.7 		"/>
		<path class="st16" d="M265.5,449.6h-15.1c-2.8,0-5-2.3-5-5v-19.2h25.1v19.2C270.6,447.4,268.3,449.6,265.5,449.6z"/>
		<path class="st14" d="M372.4,440.3c4.9,5.2,7.7,12.1,7.7,19.6v44.5c0,4-3.2,7.2-7.2,7.2H337v-24c0-7.6,3-14.9,8.4-20.3
			L372.4,440.3z"/>
		<path class="st6" d="M337,262.8v-60.2c0-7.9-6.4-14.4-14.4-14.4h-86.2c-31.7,0-57.5,25.7-57.5,57.5v17.1c0,7.7,1.2,15.4,3.7,22.7
			l2.4,7.2c0.7,2.2,1.1,4.5,1.1,6.8v3.7h143.7v-3.7c0-2.3,0.4-4.6,1.1-6.8l2.4-7.2C335.8,278.2,337,270.5,337,262.8z"/>
		<path class="st7" d="M214.9,217.5c0,16.1,13.1,29.2,29.2,29.2h4l2,56.6h79.8v-3.7c0-2.3,0.4-4.6,1.1-6.8l2.4-7.2
			c2.4-7.3,3.7-15,3.7-22.7v-60.2c0-7.9-6.4-14.4-14.4-14.4h-78.6C228,188.3,214.9,201.3,214.9,217.5z"/>
		<rect x="214.9" y="360.7" class="st8" width="86.2" height="64.7"/>
		<path class="st9" d="M214.9,385c12.7,7.4,27.4,11.6,43.1,11.6s30.4-4.3,43.1-11.6v-24.3h-86.2L214.9,385L214.9,385z"/>
		<g>
			<g>
				<path class="st14" d="M258,425.4l-22.9,22.9c-3.1,3.1-8.2,2.7-10.8-0.7l-23.8-31.3l6.2-13.1c1.8-3.9,6.6-5.3,10.3-3L258,425.4z"
					/>
				<path class="st14" d="M258,425.4l22.9,22.9c3.1,3.1,8.2,2.7,10.8-0.7l23.8-31.3l-6.2-13.1c-1.8-3.9-6.6-5.3-10.3-3L258,425.4z"
					/>
			</g>
		</g>
		<path class="st12" d="M258,382.3L258,382.3c-39.7,0-71.9-32.2-71.9-71.9V302c0-3.8,1.5-7.5,4.2-10.2l6-6c2.7-2.7,4.2-6.3,4.2-10.2
			v-17.2c0-3.3,2.2-6.2,5.5-7c17-4,69.9-13.5,105.9,12.9c2.3,1.7,3.6,4.5,3.6,7.4v3.8c0,3.8,1.5,7.5,4.2,10.2l6,6
			c2.7,2.7,4.2,6.3,4.2,10.2v8.4C329.9,350.1,297.7,382.3,258,382.3z"/>
		<path class="st8" d="M311.9,264.5c-25.3-18.6-58.9-19.4-82.6-16.9c-10,1.1-18.2,2.7-23.3,3.9c-3.2,0.8-5.5,3.7-5.5,7v17.2
			c0,3.8-1.5,7.5-4.2,10.2l-6,6c-2.7,2.7-4.2,6.4-4.2,10.2v8.4c0,36.7,27.6,67,63.2,71.3c-12.4-12.9-20.1-30.4-20.1-49.7v-52.5
			c0-7.3,5.4-13.4,12.6-14.3c17.2-2.2,48.8-3.5,73.6,10.5v-3.8C315.5,269,314.2,266.2,311.9,264.5z"/>
		<path class="st14" d="M143.6,440.3c-4.9,5.2-7.7,12.1-7.7,19.6v44.5c0,4,3.2,7.2,7.2,7.2H179v-24c0-7.6-3-14.9-8.4-20.3
			L143.6,440.3z"/>
	</g>
</g>
</svg>
